<mxfile host="app.diagrams.net" agent="Mozilla/5.0 (Windows NT 10.0; Win64; x64) AppleWebKit/537.36 (KHTML, like Gecko) Chrome/138.0.0.0 Safari/537.36" version="27.1.6">
  <diagram name="Page-1" id="eZq-Qk-xrMyJmhioBCZH">
    <mxGraphModel dx="1426" dy="783" grid="1" gridSize="10" guides="1" tooltips="1" connect="1" arrows="1" fold="1" page="1" pageScale="1" pageWidth="827" pageHeight="1169" math="0" shadow="0">
      <root>
        <mxCell id="0" />
        <mxCell id="1" parent="0" />
        <mxCell id="OYDcvir6wLGYqZr8SC8--26" style="edgeStyle=orthogonalEdgeStyle;rounded=0;orthogonalLoop=1;jettySize=auto;html=1;exitX=1;exitY=0.5;exitDx=0;exitDy=0;entryX=0;entryY=0.5;entryDx=0;entryDy=0;" edge="1" parent="1" source="OYDcvir6wLGYqZr8SC8--6" target="OYDcvir6wLGYqZr8SC8--20">
          <mxGeometry relative="1" as="geometry" />
        </mxCell>
        <mxCell id="OYDcvir6wLGYqZr8SC8--6" value="" style="shape=image;verticalLabelPosition=bottom;labelBackgroundColor=default;verticalAlign=top;aspect=fixed;imageAspect=0;image=data:image/png,iVBORw0KGgoAAAANSUhEUgAAAQAAAAEACAYAAABccqhmAAAABHNCSVQICAgIfAhkiAAAAAlwSFlzAAAHYgAAB2IBOHqZ2wAAABl0RVh0U29mdHdhcmUAd3d3Lmlua3NjYXBlLm9yZ5vuPBoAACAASURBVHic7d15mBXlmTbw+3nfOks3iyiNQDQRjbuCW6JmJDPqOBniks+MwdFoopkYoNvoYILoCJgaemFVE5HVjUUmiRjjkqhxiTF+jp/OuGuiIoJRVJDd3s+p9/n+6G5l6eUsVfVWnfP8rsvL7rNU3d103eetnSBijW+8qgKtzQd6rA4EeCixqgJ4CIDBRBhsDAYT0WCAk51v2bvz/0kA/Tq/bgLQ3vn11s7/tzGwWYE3M9RmMG8G0SYmswmGP9Ya65CuXEs/uaklnJ9UBIFsBxB948XjEtikDvNAo8jgaBAOYsIIYhoB8FC76WgDg9cSYx2AtUz0mibzGqrMWzR+ScZuNtEXKYCI6fhEb/2KMXQSwKMAjARwJDo+seOkHcBfALwG0KtK8XNIp/9XRgzRIgVgGddfNtTj5InEOIGIT2FgNIC07VwByYLwCpieYcILWmf/RNcu+ZvtUOVMCiBk7LoOnI0nG+azoXAGGMejvP8d3gXwOIN+pwfqR+nKeW22A5WTcv7DCw27V+xvdOYcIvomA6fj841vYleNBH6CQY8o8IM0ddF624FKnRRAQNgdV+UlnDMV8/c6F3plO1PMGGY8S6BVylOryL3lQ9uBSpEUgI/YHVdltP5XJj6fQKMhC71fDAN/Jua7ldZ303XzN9sOVCqkAHzA06tPMArjAHwPQIXtPCWujYAHPMYSZ+rCJ4jAtgPFmRRAgditGWYSfAkYlwE42HaeMvUOmFYqwu00dcH7tsPEkRRAnnj6hOOMUj8F+HwACdt5BAAgA8avlaIbaMqCl22HiRMpgBxxXc1oBl/DwFmQ31tkMeMZEM3SUxb8TlYP+iZ/yL1g13U8veF7RJiEjqPxRHy8zsBcnR26klw3aztMVEkBdINdV3nOhvMIqANwqO08oijrQJihDtl0O52/yrMdJmqkAHbCDPLqa84mcC2AY2znEb76KxPN1Jl97yLXNbbDRIUUQKdMbc0YRTwLwCjbWUSgXjZM1ySmLXjUdpAoKPsC4NrxhzCpegbG2s4iwkPA46TMv9N1i/9iO4tNZVsA7E4cZHTbtSBMBJCynUdYkQFooXKy19O1S7bbDmND2RUAM8irq7mMiBsAVNnOIyJhIzOu1VMXLi23XYdlVQBcO+7LTGoxg/7RdhYRPcx4WgM/omkL37KdJSxlUQDsuo7RGy8HcT3kVFzRuxYwzVbeJw3krmrv++XxVvIF0Hmizu2Q3XoiPy8pUpfRlPkv2g4SpJItAHZdZfTGK0A8G/G7np6IhiyY6tVhn9SW6kFEJVkAPHPcl7ysWkGgv7edRcQfMz2rHb6Y/mPhu7az+K3kLliRrasea7L6ZVn4hV+I+GvGw0vZ+uqLbWfxW8mMAHjOpH6mrXkxwBfZziJK2jKV9WrIXdJsO4gfSqIAeEbNwcYz9wI00nYWURZeVez9C01bssZ2kGLFfhUgWzv+TOPx87LwixCNMqRfzNZWn2s7SLFiOwJgBpmG6slgNKAEikzEEoMxW3lDr4vrGYaxLACeM6kftzX9koFzbGcRgsD3U6r/RXT13CbbWfIVuwLg+nHDDfSDYJxgO4sQO3lFZZ2zyZ33ge0g+YhVAfD0y48yyvwewAG2swjRjfXKmLPo+sWv2A6Sq9isO2fqL/9Ho8wzkIVfRNd+RqmnM7U1Y2wHyVUsCiBbX/1dxeZhAHvZziJEHwYo4vuzdTX/ajtILiJfANnamh8RYwXkGvwiPpIEXpmtrfmh7SB9iXQBeHU1NUS8CBHPKUQ3NBHf6tVVT7QdpDeRXbC8+uprAJ6PCGcUog8E4CavfsLPbAfpSST3Anh11bUAptrOIYSPpuupCyNXBJErAK++ZgqY62znEMJ3hOv0lIUzbMfYWaQKwKutvgKEm23nECIwxJP0lEU32I7RJTIFkK2vuZSY70CEMgkRAGam8c60BbfaDgJEZGHL1ld/t3NXn2zwE+XAY9BFztQFv7YdxHoBZGonnKqI/gC5bp8oLxnDODMxbeHjNkNYLQBuGH+kMeoZAINs5hDCkh3K6NF0/S2v2QpgrQC4ftxww/pZyLH9orytU5Q5mabctsHGzK2sc7M7rtKD/i1k4RdihEHi9zxnkpUb1oReAOy6ih39K2KcFPa8hYgkxgnc3nQXu27oy2PoMzR6oytX8hFiV8w41yQ+nhL2fEPdBpCtnXA2Ed0P2d0nRHcMsznHmbb4obBmGFoBcO34Qwyp5yFb/IXozVbF3lfDuuR4KJ/EPGdSP0PqXsjCL0Rf9jak72V3XGUYMwulADru2IOjw5iXECVglHH0LWHMKPBVgGx99cWdh/kKIfLAxBc6Uxb9Ksh5BFoAXFfzRQN+BcDeQc5HiBK1TUEdS1PnvxfUDAJbBWDXVR54OWThF6JQgzw2K/jusTqoGQRWAMbZcB0BpwY1fSHKARG+bt4efHVg0w9iojy9+gSj8CzkSr5C+CGjDJ9E1y96ye8J+z4CYNd1jOIlkIVfCL8kjKI7efE435cp3wvAOBsmA3S839MVoswdYzZp3y8x7usqADdcfqgx5mUAFX5OVwgBAGhRmkbRfyx4x68J+jYCYAaxMQshC78QQanwPL6V2b8Pbt8KwKuruYyB0/2anhBiTwSc6tVVX+rj9IrH7sRBxmlbDaDKj+kJIXq1UTneoXTtku3FTsjxI41x2n4GWfhFjtY0ZvHi1nZ8mvF8n/bHzW14d3uL79PVRDhoQAo/OHgf7FsR2HE5udrXZPQUAJOLnVDRIwBuGHe4MfpVyG4/0Yet7R6uf20bntrYGtg82ttb0drSGNj0FRHOPXAIbjxxeGDzyFG7UmokXTf/7WImUvQ2ADb6RsjCL/rwadbg0uc2Bbrwh8Ew4953N+Lf/hzY4fm5SjKbOcVOpKgCyNRWn8HAN4sNIUrf/NU7sLYxazuGb578cBv+/LdtVjMw41uZ+gn/XMw0Ci4AZpAizC1m5qI8ZA3wwPpm2zF8xQBueWsTuMn/7Q35UIyGYnYLFrwR0GuYMJaAYwp9vygfH7Zk0Zjhzx8gBQroRHSlNRKpdDATB+C1tcJ0fr2uOQs0t4IBUD9bh7/Q8V79hHOBRb8t5N0FFQDfPVabt8kt5L2i/LQY3uV7nUzBSacCmZdub4PTEtyncmM2C3gdqzLtXT+X5RIgUC277v3kuqbvV++qoFUA7+3B3wVwRCHvFaIkNbfaXB04ynM2ji3kjXkXAN89VhMo9OuXCxF5FkuAwNPZdfMe0eddAN5bVd8HcFi+7xOiLNgrgUO9xIYL8n1TXgXADCLCpHxnIkRZsVQCxDw53z0CeRWA11B9JoAj80olRDmyUgI0MltX80/5vCOvAlCMn+YXSIgyZqEENHFey2jOBcDTxx/DcpFPIfITcgkw8A2urzk219fnvNXQkJqMkG8m2p1HPmzB4jU7sK7Jg8fc9xsiLpNpQ0vzp7Zj+CKhNUYP3wuL/m4/pFTPny1eWwu89mAWio6TgQI86pDz3tUe+nECxvBVAC7J5bU5jQDYrRkGQkH7Gf20fG0jJr+yBWsasyWx8JeajOfhyQ+24IyHVgN9/ftwkP+Z4P4rVJgjAcIF7E7YN5eX5jQCMAn+AdjuGX9b2g3mvb3DZgSRo/cbW3H7axvww5FD0d0xv6Q0SAdzSwqHgEod3Pn6zU2fFl4E4Y0EkiZBlwDo82zBPguAGWTq8W++xCrC69vb0WbkUz8u/rixCT/c3gTs1W+P51QiGdihwKq9DdkAP2iVUjBekSMBhFACjMuYMZcIvS40fRZAtuHy0xXMwf4lK0yrt+vPMWDvQTjipOMspfGPSlciNWQ/2zGKtua5Z/CXp5/67PsWD+BMBrS9CVBJi8kiKJwSOBT1l38dmP/n3l7UZwEoNj/yL5N/huw/HN+5MpLR8rK9TePd7cGdvRaWioGDdimALpzJAAFc+iv2QigB07Hs9loAva6IccPlgwGc62coUYaypXMhEF8FvWGQ8B2eUd3rzXl7LQBjvAsBBLOyJoQIugTSxvS+9673EQDs7/oTouQFWALEfH5vz/dYAFw/bjiBTvE/khBiDwGVAINO5frLhvb0fI8bAY1xzgex9QugixLEHriYXWm9TbrzYpVBoSD3RAezYVAbTp4HYEF3T/ZYAEx8vvXjfkVJ8trb4bW3BzLtoO8LELgASoA7VgO6LYBuVwHYvWJ/Ak72LYEQInc+rw4Q4evs/vgL3T3X7QjAON634OONQ4XYmXIckA7myPKkduAkg9tx1bxjK0wx5wTkPCNfRwLKJLyzASzZ/YluC4DAY+SgWxEU0onADgWmdiDbEuBxB0oBAW2/2IOPJUBMY9BNAezxKc/u2CQDpxU9RyFE8XxaHWDwGeyO3eOY7D0KIKur/h5A/6LnKITwhz8lMCCrB//d7g/uUQCK5F5/QkSODyXQ3bLd3Ya+MUXNRQgRjOJLoPcC6DxiSK76K0RUFVUCdPTuVwrapQA8dkYXHEwIEY7CS4A8R39t5wd22Q1IhFN6v36IEMVj48FkMoFM23geEOChwIjKAtLcCiaAKvPbRUhsTgFwf9f3uxQAM50ih/+KoJlMO0xGDgUuWlMrmPM7ToAJu5zg99kqAN94VQUBOV9PXAgRAXmuDhBwAruXfnYJqs+3ATS3fxWAXLxNiLjJrwRSSKZP6PrmswIw4BP9ziWECEkeJWAMndT19ecjAOZj/E8lhAhN7iUwquuLzwuAPn9QCBFTOZUAj+z6SgEALx6XAHB4kLmEECHpswToKHZdB+gaAWxIHg7ZAChE6ei9BFJIfnQo0FkAnsrK8F+IUtNLCXhGjwQ6C4CYjgoxlhAiLD2UAIGPBrpWAQgHhZtKCBGa7kqAO5b5jo2AwIHhpxJChGa3EmDCCKBrFQAd3wghSthOJUCdH/qK50zqB2CIzVxCiJB8XgLD2L007aClZQQU5CRAIcpFx6nEhIqKAxyPsgeQ3AJAiPLS1IqsMecqKNXtHUOEEKWNDA5WxFxlO4gQwgKFYQqgwbZzCCEs8DBYAZACEKIMEXhvRSQFIER54oHKMGQbgBDlyHA/RcAg2zmEEFakFIB0ny8TQpQcZigFYrkQiBBliZUCkxSAEGWImZUCkLIdRAgRPmKQglwLUIiyxMxSAEKUK4KcBihE+SKGAhDMbVqFEBFHUgBClC9mBaDNdgwhhA3ECsQyAhCiDDGBFZikAIQoQwQyCkCr7SBCiPARwVPM2Go7iBDCAlKtShFvsp1DCBE+JjQrhtpsO4gQInwE2qEAIyMAIcoQK96mICMAIcoUbVHMkAIQohwp/bECvI9s5xBChI/B7yitsc52ECFE+BzoFxTSlWsBsO0wQogQEYBW87yin9zUAuAT23mEEOFhUoZ+vnSb6vgGa20HEkKEhwjNADquCEQs2wGEKCuqY/e/0/ntGotRhPDFUf9wKvY9aiQ2b96BN35/D7auf892pMhSpNcCnQXAoNdJtgOKmFKOQvXNN+GAEUOwdkca21o1jhzzbTy/cjFe/s0K2/EiydN4AehcBdBkXrMbR4jCfeuqiThgxJBdHiMinHTReOz1hS9aShVtDpk/Ap0FgMywNyGXBhMxdcTxI7t/ggjHfvuicMPExfBNTwBdGwFdNwvgr1YDCVGgRFL3+FyyX/8Qk8QDadVCVz7cBmCn+wIwXrWWSIgibFi/scfn1vzfJ0JMEhNafdj1pfPZg0SvxemAwA3vfYAV9T+3HaNolEwjVTXUdoyirXvpf6zN+545P8dV82ch6dAuj3/yzpt497+ftJQqukipV7q+/qwAlOLnjLETKBeVetd/3KYdn+K1Z563lMY/mUwbWpo/tR3DdxW7LYxB2vz+B5g7fhLOu/oqeAOHoa1NY83Tj+HpxXNDyxAnRqvfd339+Qigv/M8dmTbENG7BY8clEI/h9CUjc8opZydPSQd6vy2ffQRbv/JZLS3t6K1pTHUeccKATqZuafr28+2AdCV89oYeMlOqr7tlSBMPmwAwvtcEYU6fGAlLhheYTuG6I7Wn5K7ckfXt87OzxHTMyA+OfxUufn2lwZguAYWr23EulZGxsIqSwsDGR8HIUQKRP7WmpWSJEJaK5w5rB9mHbqXjQQAAFWRAmQE0CNW6q2dv9+lAJjMMwT6abiR8nPyfgNw8j4JcGOLlflP3+Dgdzv8u6lyIpOB4yR8m17KUXj+2HCH31Ew4LRjsc8Fp6Hpkw3YumYddDtj611/hLejyXa0aFH60V2+3fkbncUz4aYpUEUa1F+GmKJDv68ejqpLvgGVSgAgGC+LjPaw92XfAJR/ZR17BDgGS3d+aJffDrmLNgJ4I8xMBZMSEJ32+e5p3T6eybRh4Nd7OEqwDJHSzTRn6eqdH+uuHh8OKU/xpAQEAD2g578BvX9ViEmizWj9yu6P7VEAhtQj4cTxiZRA2eOWTM/PbS29YywKpTSt2uOx3R9wMhufBhCv31pFGtRPSqBcbX/0f7t93EmmsP3Jl0NOE1FErIy+bfeH9ygAcle1EyF+x09WykigXG178Fk0PvP6Lo8lkik03vc8uKXdUqpooYT+iGbfsccHu9Pdi9nwIyD6VvCxfFaRBgHWdhEKez659SFs+eWfoA4fjsyGT7D9L+uAKB/bHjal/9Ddw90WgCI8YIBb0P1GwmgLoATWtzE+aDNgEDa0ZWGy/v1astkMvKx/n1JtRuG2Dzr+8EdUaJw+OBXDf8TCeI3NaPnvN+RQ4N0RoJK4oYenupetq36agNHBpQpYS2vRJbC6xaD2vXa80hjcJ0nQJwMltcYVBw7Cjw/oF9g8+vJ2i8HYN1pDmVeY5wIMSiXx0uhhocyrGOTorfqGlft091yPHw7EuDu4SCEocu/AW80Gl7zZGujCH4Z2z8MN72xB7Zp4bdcV/mHtPNbTcz0WgPJoFQAvkERhKWLvwM/WtaMp3j/9Thh3vrcdf2uJd5mJwmimGT091/MIwF3wMQNPBxMpRAXsHVjdYvDX5tJaWJgNFrwv68blhhy9heYs7XFfaK/bh4g53qsBXfJcHVjbWprXHFjdmLUdQYSMncR9vT3fawEore8GEM7Wm6DlUQLtXJoF0C67xcoLEfQAcnt7Se8jgOvmbwaj1waJFTlsWJQRSuh3aeqd7/f2mj53ERvwrf5FigA5bFiUC6Xm9/mSvl7gTF30JIDVfb0uVvrYMJgu0euOpXWJ/mBiT0pl1Aktv+jzZX29gAgM8B3+pIqQXlYHDq7o+UYTcXbUgEhe71UEwUk8Quev6nNHdk5HiSrK3gmg53Mu46qHEhiRJnxlQGkdQKuVsno0oAgREbTDk3J5aU5/5TTltg1g/Lq4VBHVQwlMPzCFIYnSGDITAdcesg+qSuTnEb0jx3mbZix/O5fX5vwxpxTmIE63DspHNyWwX5Kw8og0xuyjkYztckMYlEriFyOH4rL9K62lKM0VquieKccaP8v1tXn9aZu66scYOCP/SDHRwwlELYbxYRujPYD6a/IYH7X6f4BOgoAj+yXwpQr7f6Y7PMY/vNwCE8LHR5gnAx08oAKPnTik7xeGiBJ6s567MufroHV7OnBPPKYbFHHpFkAPpxJXKMKXKwIcBgwo1c/IDgM14bh+Gi80lszJFQCAf943eruTTTIxK5/X5/XxkJi24BEAe1xYsKTIwUKB+Pf9EwjxdoGBG5hMYuKXorVRlRzd4iSXdnvef0/yHh8ycFO+74kdKQHfHdNfoe7AJFI+3wXJhv7JBO45vgqOitbPYpLOYnKR1/Heef8EfPdYbd6uegPAYfm+N3Z8uKiI2NUHbQYrN2bxwqcmkNOtt7e2YmOT/3cDUgT0dzROG1yJ2kMHIB2xhR9at+vD+vWn8Uvy2l1f0E+RrZtwEYHuKuS9sdPcCm6SEhARl0re4sxefkW+bytoE7HODvslgFcLeW/syNWGRcSRo1t15UFXFfLeggqAXNcwU20h740l2SYgIsw4iRvJdQval1zwigwzyNRXvwjg2EKnETuyTUBEDGndpAauHJjvxr8uBR8lQgQ2pHI63rhkyEhARE3KcQtd+IEiRgBdTF31AwycU+x0YkU2DIoIIMf5WN9w1/BiplH0caLE3lUA2oqdTqzIhkERASqhLyl6GsVOgKYtWQNgXrHTiR1ZHRA2JZPP0sxljxY7GV/OFFGJtukAPvZjWrEiJSBsUMroZOVYXyblx0Tomjs+ZcZ1fkwrdqQERNhSegnVL1rvx6R8O1dUT124lIDH/ZperMiFRkVIyNHbdHrF5X5Nz7cCIAIT63EA/D8QOw5kw6AIHEFp5zvF7Pbbna9Xi6Bpt6wFoXyOENydrA6IAKl08kGavewJX6fp58QAQGWG3gDCC35PNzakBEQQtG6m5oG+bPjbme8FQK6bVVDjUIpXEc6VlIDwW9L5Ps2b5/vxNoFcMI6mzH8RgBvEtGNDNgwKn6hU8mFn5rLfBDLtICYKACo7dCYBTwY1/ViQDYOiWI7eTpUt5wY1+cAKgFzXUNb5PoAtQc0jFmR1QBSKwDqdGEPuqvagZhHoNaPJnfcBM40Pch6xICUgCkDp9M1Uv/T/BTqPICfexaurXgqg6BMXYk/OIhQ5okTiTT13xRFBzyeUu0aobMsEgF8MY16RJtsERA7I0S0qQaPDmFcoBUDu0lYF/S8ANocxv0iT1QHRGyJWyeQ3acbyUJaV0O4bRVPnv2fIXAigtG4PUwgpAdEDSiWvpxl3PhXW/EK9cVxiyuLHQFy+hwrvTEpA7Ealk4/qWcvqQp1nmDMDAJUZVkvg+8OebyTJwUKii+Osp4rl3wx7tqEXALmuocqKCxkIdPdGbMiGwbJHWjfpAf2P9/Msv5znHfYMu3DDFUOMyT4L4Mu2MkSKXHK8PCnK6grnOGpY8bqV2duYKQDQdfM+UUznANhqK0OkyDaB8kNgpJPn2Vr4AYsFAAA0bcFflcK3UW5XFe6JbBMoK1xRMdmZsewBmxmsFgAA0HULn2LQJZDdgx1km0DpI4CTqZsSM+6cG4Eo0ZCtq76EgDsQgVKKBNkmUJoIoHRymZ65/FLbUYAIFQAAeLXVl4Nwi+0ckSElUHJUOnm/mrU8sNN78xWpAgAAr7bmKhDfaDtHZMgJRCVDpZN/ULOWj7GdY2eRG27raQtuAjDddo7IkG0CpSGZ+FPUFn4ggiOALl599TVgzLSdIzJkdSCeCFDJ1CNq9rLQj/LLRWQLAAC8uuoJAOYjgiMVK6QE4oUAlUzeq2YvP892lJ5EesHSUxcuYvD3AWRtZ4kEOU4gPghAKrU0ygs/EPECAABn6qKVDLoYQGDXRYsV2SYQfUTgROomZ9ayH9iO0pdIrwLsjBsmnGIM3QegynaWSJDVgWgiYlORnJicsexm21FyEZsCAACeUXOw8fghAIfYzhIJUgLRoiir087/oRkrHrIdJVexKgAAYHdclaf1fUQ4xXaWSJDjBCKBtG5SCXyNZq18zXaWfER+G8DuyF2ySXveNwj0W9tZIkG2CVhHycT7KqUPiNvCD8RwBNCFGWQaqieDUQ9A285jnawOhI8AJJNP6cqDTifXDf1iHn6IbQF0ydTXnKaYfwVgX9tZrJMSCA+BOZ38z8TM5f9pO0oxYl8AAMB1NV/0iH9DjK/azmKdbBMIHGmnWVU6Z1Hd0j/ZzlKskigAAOAbr6owza3zAUR+32vgZCQQGE4m3nRU68k0a9V221n8UDIF0CVbN+E8Ai0BsI/tLFZJCfiMmCpSN+uZSyfaTuKnkisAoHOVALycgFNtZ7FKVgd8QdrZplRiDM298znbWfxWkgUAdO4lqKu5EsSzASRt57FGRgKFI0Clko/T1vSZtGRJxnacIJRsAXTh6ROOMwq3AXS87SzWSAnkz9FNWicuptlL77MdJUixOxAoX3T9opdUdthJYJoIoNF2HivkLMLcEaDSyYf1gPZ9Sn3hB8pgBLAznlF9EHu0iMH/ZDuLFTIS6J3jbNMJ50KaufQR21HCUlYFAHRsG/Dqqi8lohkAD7WdJ3RSAntgpYxKJW7TM5eNt50lbGVXAF14zqR+prX5ahBfAyBtO0+oZO9ABwIomXhRORVnU8OSj2zHsaFsC6ALz6g5mD1uYGCs7SyhKveRgONs4oTzvUQZDfe7U/YF0CVTW32GIp5VVnsLyrAESOsmL6WmJmes+LntLFEgBbCbjiLAbADH2c4SinJZHdCqjVPOfCe1/Gobt+GOKimAbjCDvPqaswlcB2CU7TyBK+GRAGnVhmRimUo3X0HuKrmu5G6kAHrBd4/V3uqqC4lxNUq9CEqtBLRqRVIv1VsqrizVo/j8IAWQI66rGc3gaxg4C6X6e4v76gAB0M42Tjm/cJJLp8tQv2+l+YccIK6vHmUMfgrCBSjFcwziOBIgAiWcNawTVzsz75BLxeVBCqBAPKN6b2MwFowrABxtO4+v4jIS0Lodjn5Ca0ykGcvfth0njqQAfMDTq08wCuMAXASgn+08vojqSIAAOM4HnNDznNSyuTLML44UgI+6RgXEfD6DTkXcL1YalZEAAaT1Fk7oB7WunEL1i9bbjlQqpAACwg2XD/aYz1LMYxkYA8CxnakgFkcCpJ0drNUTmuHS3OWvWglR4qQAQsDuj79gEt7ZxDSGwWcAGGA7U17CGgkQmBLOR0zqCe3wbGpY8XrwMy1vUgAh48XjEtlNzmjFZgxAYxCX4wuCGgk4uhVav8yK73EGYxFdvaLJ/5mInkgBWMbuFQOzOnuiAo0m4lMYGI2onp1YdAkQoFUzK7UaGn90EonFVHfHW77lE3mTAogYdi9Nw6n8igGfCGAUwCMBOgpAynY2ALmvDhABSjWzpvWk9BtE9AeVzvwXuSt3BB9S5EoKIAbYdR3ojYd4hFEEPhqMg5gwgoADAQwPPdBOJcCKjFKqEZo2Meh9VvSyo+gxfDrwcZo3ry30bCIvUgAxx+6laSSTIzzWo3Sd4QAAAFNJREFUB8JgGBENBnMVCFVEGGwMBhNhbwCVnW8ZiI7dkwkA/TsfawSQAeAB6PqEbmbGVqWwmRmbAfoEwGYmbGKDj522JoNs5n9o5n9tDfHHFT77/6ndH+cRj2P6AAAAAElFTkSuQmCC;" vertex="1" parent="1">
          <mxGeometry x="220" y="247" width="136" height="136" as="geometry" />
        </mxCell>
        <mxCell id="OYDcvir6wLGYqZr8SC8--25" style="edgeStyle=orthogonalEdgeStyle;rounded=0;orthogonalLoop=1;jettySize=auto;html=1;exitX=1;exitY=0.5;exitDx=0;exitDy=0;entryX=0;entryY=0.5;entryDx=0;entryDy=0;" edge="1" parent="1" source="OYDcvir6wLGYqZr8SC8--20" target="OYDcvir6wLGYqZr8SC8--22">
          <mxGeometry relative="1" as="geometry" />
        </mxCell>
        <mxCell id="OYDcvir6wLGYqZr8SC8--20" value="&lt;font style=&quot;font-size: 18px;&quot;&gt;Frontend&lt;/font&gt;" style="swimlane;whiteSpace=wrap;html=1;startSize=23;" vertex="1" parent="1">
          <mxGeometry x="460" y="215" width="200" height="200" as="geometry" />
        </mxCell>
        <mxCell id="OYDcvir6wLGYqZr8SC8--7" value="" style="shape=image;verticalLabelPosition=bottom;labelBackgroundColor=default;verticalAlign=top;aspect=fixed;imageAspect=0;image=data:image/png,iVBORw0KGgoAAAANSUhEUgAAAQAAAAEACAYAAABccqhmAAAAAXNSR0IArs4c6QAAIABJREFUeF7tXXl8FEX2/77umdwnt8q1uroeq/7WW9Zjk+4QRFHXA9Zdj10VRTxQQEVdJKIoeOAKigqiqHgQ1xONJNOTiCKK4n3ggReo4AGEG5KZqd/WJCBHkq7uru6ZyXT940fy6tU7qr5TXfXqPYLffAv4FkhbC1Daau4r7lvAtwB8APAngW+BNLaADwBp7Hxfdd8CPgD4c8C3QBpbwAeANHa+r7pvAR8A/DngWyCNLeADQBo731fdt4APAP4c8C2QxhbwASCNne+r7lvAB4A0nQOMMaqrqzssKyvrwz59+mxMUzOkvdo+AKTZFDAM41ACRgPoByAQV5/oc8bYeFVVZ5WUlGxKM5Oktbo+AKSB+2tra//AYrFRAAYByDJR+UsGjFBVdU5JSUkkDcyT1ir6ANBO3V9TU7NrQFGGMeASANk21GRg7G0CbiwoLq455JBDGm3w8LskuQV8AEhyB1kRr66urigajV5FwBAARVb6mtBuBQMKBKr9nYFEyyaYlQ8ACXaA0+Grq6tzA4HARWDscgC7OuUn0J8BmMeAUZqmvUlE/P/9lqIW8AEgBR03f/787I0bNw4CY9cA2NMrFfhk2WG1xwgIxYCx8+bNW1BRURHzShZ/HDkW8AFAjh1d57Jw4cLgmlWr+jKw0SDlMNcHtD5AhAG1/7tTuMEHA+vGS1QPHwASZXmBcfldfW1t7ZFg7DYAR/ALO4FuyUDCbw9mMeAWXdc/TQaBfBlatkCqTKi08l9dTc3/MUW5hQHa1rv61LUAjyt4OsbYzWVlZYtSV432KbkPAEniV8Mw9lWAaxlwKoDMJBFLthibiYMBcLOmaYv8A0TZ5rXOzwcA6zaT1qO6urpHQFGGg+hfAAqkMRZlxGIAKaLUsunWgbHpkVhsYnl5+VLZzH1+YhbwAUDMTtKo5syZ0yEQCAwh4FIAXaUxtsAo+M0iFFU9TDmL38PiwAFQjzuOKX36AFlmQYIWBrFGugaMPaQEAneUlJR8b62rT+3EAj4AOLGeYN/Zs2fnZGdnnwHgRgK6CXaTShb48TsU1DxO+R+/Cor8FtT3RX33reNQjx5QTzyRKQcdBKiq1PEtMPPBwIKxnJL6AODUgq3059d2q1evPhOMXQdgd5eGaZOtsuJnFNbOooKFNaDNLT/42xYAtmVG3bv/BgaBpjdDCWg/ETCpIRK5v1+/fisTMH67H9IHAIkurqurC8RisQHNi/5Pbl/btRCYA1q3BoWvP4/82qdI3byhSbuWCJv1bg0AtgOD5NgZ/MSAyZFI5D4fDORNWh8AHNqyoqJCOfroo48CcD0YO/Z/23zP987K5o3IffUFFL7yXwqsX2VJIxEA2MpQUUB77gn15JOZ8oc/AErCDhDjYBCNRu8qLy9fb0lhn3g7C/gAYHNChEKh/RWiawGclohFz7/js98Moaj2ScpY+aNNLQBLALDdtoBAe+3VBAZ7781zCtiWwWHHxQyYsHHjxicGDBjQvOVxyDGNuifMa6lo47q6ut6xWGwcGON39Rme6xCJIOvDN1EceoQyl30tZXjbANASGJx0ElP22SeRYPA1iMZv2LDhcR8MxKaHDwAmdnp1zpxdIoHAdQw4G0CemFklUsViyFj8ETrUPEJZiz+QyLiJlRQA2FYqVYXyf/8XP0Cknj0TBwaMfQVFGbtixYpZAwcObJBuuHbC0AeAFhz5alVV58bMzKEALgZjnaT6mj+nE7B68PvFKK6ZSdkfzQfxgB2XmnQA2FbOQADKgQc2gUGvXi5pYMqWW/w9BtxUVFT0kp/YZHt7CUxFUwO3C4Lmd/VnEWNXMaB3IpQKrFiGwuceoLxP54Oi3iTgcRUAdtwZ/OlPUE8/nVHXhMQ/cWk4GLzPgBtVVX3RT2wi9FuUiKXgzZiVlZUZHTp0+CsB4xJ1V6+u+An5oSep4J0QlEaP83H2+D2+XNkR7IcfvDH4llEyMqAceSTU449n1KWLt2NvP9r7ILr8tddem5euuQzSbgdQWVmpdurUqZzFYjcDOCARs09ZW4/cV5+n4vnPQ1m/JhEixMfMnlqLTz/8gjXedFPi5kFmZhMY9O+fSDCIgmgugLHpBgaJc7yH0z6eAz8UOoap6g1gjN/Ze36BTZs2IHdBDYpeqaTAqp891L7loai4Mwqf+wzvv/cea7z8cmL19QmXCRwM+vSB+te/Mirw/m1UswHSCgzaNQDwd/UxVR0Nxk4AEPR8hkciyP3wVRS+MJ0y6n/yfPi2Bswc/ySyjyyLA0Ds3XcRmTQpueZCXh7UkhIoZWUtgIHgSapzi0cBvBhj7PqysrKPnLNLPg7J5XQJ9qmrq/t9LBq9GgB/fJMjgaU1FrEosj98A4VVMyjr52+t9fWImrJyUDhnSfyKjgMAH7ZhyBDCJo/PIET1zc2FWloKRdcZFRaK9pJNx68SX4gxdqOu6x+3l1wG7QIADMPoSoxdCqJhAHJle96UH2PI+Ow9FFXPpJzvPgJYcifKDY68E7kDeFgDtgJA7PXXEZk2LfnnA98ZDBjA1GOOAbLtlDsw9aYIQQOInmeMjdM07aNUBoPkd3gr7qiqqirIzMy8AnzhAx1EvCaVhjEElnyJwuqZlPf5AlCU7xZToKkBFIV+ANSmF35bdgCIxdAweDAhVfTg4RQdOkA57jimHnVUIsGAZzmazohu0zTtuxSYAduJmFIAwNNhb9iw4QIChgPokQhjqz//iKLw45T3bh2ocXMiRHA0pnLWSBScz7OJN7WtAAAgOns2ok8/nVJzYose1LEjlH79mHr00YlMbLKOgEdSCQyS3tl1dXVZ0Wj0VAL4w5t9HM1+i523vKJVV69AwdxnKP/V56BEUm/Rb6t2YXg5KPDbeei2AICGBjRcwPE1tRsHA/W005hyyCFA0Puz32brrQfRo4qi3FpSUpKch0FiQaneT4bmd/WlzU9s+3gvAaBsXIe8UCUVvjEb6sa1QiJ4djYtJM3OREr5GSi49u7t/rAdAACIzJhBsVdesTlC8nWj3XaLnxkoBx/sIRjsNBN+AdEURVHuKSkp+TWZrJQ0aN+cA//Q/53c35rIu/qc16tQNPdpCq75JZn81LIsbST6aKlDftW3UHPz2wQAbNiAhqFDk2ZeyHRCYsBgBw2IOADcE9y8ecox/fsnfJIl3NG1tbX7sVjslu3q1cv0uhmvxkZkv/cqOhgzKfhz+01OSwcfi8KJz+xkjR13AJwgMnEixT78cHtai2BjZvZE/z2e2IQ/X95330QmNvmFAfdkZmZOPvroo61lcpFkwIQAgMV69ZJU3YZNNIqszxaiuPpRylzymXz+Scgx7+lPEOi0cz7SlgCArVyJxuHDEzI3EmG6JAGD7wi4jVT1kZKSknVe2cEzJ29Tr36w5NLVYrZiDJnfLULRM/dR1pJFoB3LXIpxSUkqZfd9UfDQay3K3hIAcMLGMWOIfWf9VivZz0HadCAR6Pe/T4adgWdg4CoA8Hr1LBIZzIh4ZJ73d/U8/pff1b80g3K/XAiKuXlXn+A9chvDZz/0OjJ339sSALClS9E4enTL8yPBqnqCwooC5YADmnIZ/O53CUtsQgC/Qbj915UrH3AjsYl0AODXdiwaPZvxJJne1KvfaT6oy79HQehxyv/gFSiR9E4Go3TqhoKnP2l1zbS2A4jvAoYPJ/45kPaNZznaFgwSYxC+ufqY5zJYuXLlC7LAQAoA8Gu7aDQ6iJoWvWf16rf1g7LqV+TXPU2Fb70EZZOd3JDt82ct887nkX0QfwDZcmsLANjixUjoU+HELLTWR+VThJp3Bied1LQzSFz7iAE367o+y4kIjgEgHAq9CSJ+feeYl1VFaMM6FLw+GwWvPkPq2oQcoloV2VN6ys5tevTTRmsLAHi3hosuImxsuaiIXWVS+pxgW6V5YpPDD29KbNItIQWfoOm6o6ftjhdt2DD4EzLPMuRSw2bkvRtGwYsPU3DdCrtzMC36Ba+Zgtx+gxwBQOyttxCZMsXxPGn3BrcBBhL2nKs1XS92YlvHjg0bBl+FjoQwU4Af3mUvCKMw/Dhl/urXjjSzV/zvGZkoqvnB9PDKbAcQfyTEw4MjEaFhk4Eo4TuMLWBwwglu5z9cqOn6YU5s7hgADMN4g4DDnQjRYt9oFJkfv4Wimkcp+4cvpLNPGoZCPwNCRNupFDz/38g96wpTNU0BgD8SmjMH0SefdDxXTIVJSQIT3+TkQP3LX6D07cuoqEiuhkRPaJr2DydMHTs1HArdBqIRToTY2pfFEPzq03gO/OzF74P/+vjNhgUUFYXGj6DmJ79OzgDifaNRNJx/PiV7ngMblvK2i2wwILpB07QbnCghAwB4Io67nAgR/PEbFIUeo5z3XwMxN+/qnUiZOn3VAecgf+REIYFFdgBxDHjsMYqGQkI8fSIBCzSDgXrCCQw5NhNXEfXTNK1GYLRWSRwDgGEYOgGWheCJMQuMJynvzZeheJQD34mhUqYvEQpeXgIlW2xSiQIANm9Gw4UXOp4vKWNHDwWl4mIo5eVNWY6sgAFRD03THOV0d+zQeDouYJmIvXhBy4Jn7o/Xq1cb7NzVi4yS3jTBI/sid/wTwkYQBgD+SGjyZIq9844wb5/QugWCY8YIxxcoqlrg9N2AYwDgefY7duggVMYm+N0X2O3O9vnU1Lqr3emR9/wXCBR1bJl5C8fjVgAA69ej4eKLHc8ZdzRvH1wzpkwR/SRgr82bF3Ra0MSxM+Pv+MNh/nOeaeYCZdN69Bx1kuMxzcZpF3+3fvAPdc8DkP9AnSX1LQEADw8eO5bY13IqE1sSNFWIbfhtW9Uypk9nUFURbTdouu64WK2UxWglFqD35fzIwG9u3FXnPLoAGT1/b8m4VgGA/fILGq+80vehJSsLEisKMh58UCylNNEnmqbtL8jZvUNAzjkcDn8ExvYTEabnyOMp1fPqiejpNY3StTsKKq2XD28LAFr7MeMAwIFgS3MDzLy2X1KMl52NjHvvFQMAxp7Uysr+7lRuKUgeNoxpAM4TEab7dadRYL37ZaiEJqXD7ZqIvl7RZE2uQtYB1uOxrO4AuD78E4B/CnilW7qMQ3vsgeDo0aIAcJdWVmYe6WViPClODIdCwrEAu9x5GWV+92m6+NQbPYs7o+g5e5mN7AAAV6rhkksI6zxLXOONHRM8inL00Qicd54YABAN0jTtKaciSwGA2tra/iwWe1FEmOJn76PCuf8VIfVpBC2QNWY6skpPFqTenswuACRlPUFbFrDQyeUdI09lrp7Ay1iat0g0ukd5efk35pRtU0gBgLq6ut6xaFToaDh7fjW6Vt4mZVynyreL/tm5KJrDU3fZM6ldAIjvAngloUahG+B2YWq3lQiMHMmUP/5RaJhINJpfXl6+Xoi4DSJ7s2YHhgsXLgyurq8XqpgR/PJj7HbP5VLGdap8e+ifMfRG5AwaalsVJwAQDYcRffRR35e2rb99x+CkSaJl0ZmiqpklJSWOn2hKc17YMDgAmJZhUdbWo+fo0xyNK3TAt5NTXN6/SZoEVtiwQBBFoR9Biv2cEE4AgD8Oajj3XP+RkBWntUFrIQagQdP1LBnDOlqI2woQNgxePse8Mi+LofcVfaWNK8MIqcoj89QLkH0ZL6lgvzkCAP5IaNYsir78sn0BkrJnAn4sVBUZDzzAeMl2s8YThZbq+u5mdCJ/Nx9NhAuPBTCMrwAIJUnrdWV/osb0TtYpaNbWyUhBQc1SKBnOfgicAgBPFBI/C0jykuiO7e02g4wMZEydKnQDwIAqXdfFTgtN5JYHAOHwLDB2uoidul99MgU2+1dIIrZqjSZ47ADkjp3hhEW8r2MA4I+E7r2XYgsWOJbFEQPXf7TdHYC6d0fwpptEAWCyruvDHNmrubM0ADAMYxgBd4oItcv4CyhzucClgbs2FxE1aWnyZi9GoMB5JjYZAMCThsaTh/rNtgWUP/8ZgcGDRQFgsK7r020Ptk1HaU6zEgvQsfJOyp//kgz505KHut+hyJ8yR4ruUgCAPxK6+WZiX7Tj1G1SrN06EysxAKQo+5eWlrZe7MGCrNIAIBQK7aMQCQmVM38OulTeLm1sC/q2C9K8J99DYJeeUnSRBQBJXU8wBXaSgcsuY8pBBwn5VFYMAB9M2iKcPXt2Tk52ttCHffDzD7HbvelTfFLIq6JEe/wRRQ/OFaU2pZMFAHygxlGjiC1fbjqmT7CzBYK3386oUycR08QUVc2SEQMgFQCa8wLwsDDTS2l15U/oMfYf0sBHxGrthSb3fgPBvf8kTR2ZAMCWLEHj9df7frXhnczp0xkTywMQ1XTdNN5GVASpzgobxpr/FTI0TVJA0Qh6jegndWxRhVOarkt3FD1l/clvWzrLBID4LmDYMGKrV6e0mT0XnucB4DEAYgFdP2m6vossGaUuwrBhLAWwm4hwHAA4EPhN3AI542Yi46jjxDsIUMoGgNhHHyFyxx1S55WAGqlNEgwiY9o0oRsAAIam631lKSzVUYZhzCFASDg/FsCaC1lBMYpnL7bWSYBaNgDwIRuGDCFs4hXj/CZiAercGcHbbmMiZ5UMkBYDIPUMgDMLh0KjQHSziNK73PhPylzhl/kSsRWnyb7iVmSeLJRzRZRlnM4NAIjNnYvIQw9J/XGxpFSKESuHHYbA0KFCOwAGXKrr+j2yVJTqpHA4fBwYE7rg7/TwTZT33iuy9Eh5Pm09cGIZWSiqXuro0c/2BmIA/70hdwAg/kiI1xBo8MO9RSamxRiAI0tLS6WFXUoFgLqamkNiivKWiNL582aj43/vkjq+yLipSJN55hXIHvxvV0R3YwfABY0++yxFn3/eFZm9YGrvxak9yQIXX8yUQw8V6hxjrLisrEzaKavUBRgKhQoVolUimmR88QF2nTJC6vgi46YcjaKioOZ7KEF3KrC7BQDxeoL8kZBf39F0ygXHjWO0m9DZOVasXJk1cOBAaVsr6QswbBhCFT3V5UvRY/y/pI9vau0UIwiWD0LutVNck9o1AOCPhB54gGLz5rkme3thHH8FmCEE8DFN1wMy9Za+AEXzAlDjZvS68njp48s0TjLwKqj6FkpuvgNRWt/MNoSfwcdf/Sq8/bQshMR6gl5uyS3r6aQDUVMtAIE8AABWa7ru/AXYNvJKX4Bhw+BH+7uK2CSeGIQJbRhE2LU7GjrqeBSOe8Q1vVadsh++/LkYGZMnC51A2xEkcuutFPvUzwK9o+22ApqFGAAGLNB1/Ug7fmitjxsA8DoAISF7jDqZ1E1Czwdk6pwyvPKf+hBqF7FvQ6tKRd5/HeuGnYgv6rsjeN11jPbc0yoLIXoeFcijA4WI05CICgsRvOsuMQBm7B6trOxSmWaS7piwYYwHcJWIkLtUnE2Z9T+KkKYfzX6HoWiKe6m2Vp1zFOjbRXEAoK5dEZwwQWwS2vBEY0UFsW+/tdGz/XdR9t8fgREjxGzP2DCtrGyyTKvIB4BXwmcgwh4TEbLLfddQzmdvt0nabr/9TAyU98ArCOzpuPRbi6NEvv0c687pE/8bBwDeOABwIHCjsR9+QON110mfa27I6jVPtX9/qAMHigEAUT9N02pkyijdKYZhHEkA/wwwbYW1s1D8wjTpMpgOnOQErMfvUTxTWqzHTtrWXzYA+GD+dgBAu++O4PXXtzgRRUJUzUy6Yz1BM/p0+Xvg3HOZcswxQuoyYBdd138SIhYkkr74DMPoSsAykfEzP3gDuzw0WroMImMnM03u7U8jeOhfXBExtuInrDll3628t+wA+D/EDwPzndw4tC5ybNEiRCZM8H29g4k46HLwFWmFRUWZhxxyiNRKLNIdUlFRoRx91FFCz/zU779Bj9sHO5KhvX0isKJOKH7+c5H5YItmzZjzEHvluRYBQDngAASGDxfbjtoYvfHyy4nVu18Y1oZoCesSrwacnS0yfuS1efOyKioqpF6bOVp8rUkdNgxesshUK9q0Ab1GnWgqQ3tb5G15O/vaKcgsHyQyISzTRDeux9p+26cS23YHEN8FiAelWB4/Nn8+IlOnmvrbMuMU7pAxY8YOgNvqbF+v6br07ZkrzrCSF6D35borMqTinGCZ2SiuXgrBoBDLKm64dRgaXpq5Xb8dAUD5y18Q+Oc/XdsFxB8Jbd6xipyMUwYTc3gwhGWHtBID0KKoRJ9omib9VNiVxRc2DJ62ZnthWwG2nlefSMrmDZZt1x47BC8bj9xTB1tTTXB7xCIRrO67G7BDEpYdAQC8Qg1PTiGWncaarPyR0OzZiD79tCvzzrIwie6Qk4OMKVNEwXa6pusWJ4e5gq44otYw7mPABebDA7vecCZlrHKeSFJwHYiIlBgaNYCimh+AgNRQ7626bHpoAjbNuHUn3XYCAADqqacydcAAd+wQizU9EopG3eHfAtdknRu0xx4Ijh4tBgAuxABwU7kCAOFw+Cww9rCIh7veOYyyvxPKJi7CLmVp1DMuQ/6QMa7IzxhDfb+e4GcuO7aWAICDUDxHnUstMmMGxV7xc0Go5eVQzzhDyM7E2GmlZWXPyHaJKwBgJRagePYDVBh+UrZeqcWPCIUvfwfKNq+takexhpcexYZbL2+xa4sAACBwwQVM6dMULCS9NTQ0JQxJ83qCgX/9iynHHitkXkVVdy8pKZEeTukKAFRXV/cIqOp3IpplffA6uj00xhU5RMZPBhoqG4jCf9/rmiirTvoDqP5XSwDAr6biV1QutciUKRR7Syh3jEsSJJ5tcNQoRnvvLSSI7DwAWwZ1ZeEtXLgwuLq+fsej3hYVVZd8hR4TL3RFDiHLtkjk7ZFxwTOfQunoThhuw4IwNlw1sEUt+er+sjkUuCWCwNVXM2Wffeybsa2ea9ei4dJLk8zv7qjaGtfgpEmMCgpEBo2UalomEUkHZNccEDYMDgCmBQxo7Wr0Gn2qa3JsZ11v17WIY4GDjkHRnc+K0dqgqv/bQcCy1jdjrX0C8KGouBjBO++UPum2qNF4yy3EPncv6MmGuTztEs8DIHbb4koMQNzHbmkcDod/BmPmtY5YDPG8AGna8mcugNrj965o37j4Y6w/r+1vzLYAgAsVvPlmRrsKpXewrAP76Sc0Xn11evqeX7fyg1axRCDfaLq+h2UDC3RwzfjhcHgRGPuDgAzxzEA8Q5CUloy/8q0oxnrvg+KH3UuZtXqwBvbF+22a1QwArNStt+O/xjFjiH0ndFxkh33rfRI9T6ycsRA9pWmaK+GhbgLALDB2uojXdvv3IAquWyFC2q5ocu9+GcH9D3NFp8affsD6gQeY8jYDgPgu4K67GE9csWXLKPObgJcU56XFTQVtZwRWgJWAMaW6fqMbJnDN8IZh8JM9oaPtrrcOpewfrdeWT9YADxFHsY7dUPyMe/EPPNsPz/pj1kQAQNlvPwSuvFLmut9OrMbhw4mXF0+nZiXkmgF/13Xdlbty1wCgLhQ6IkbU9OjcpHWovIsK5s82I2tXf8+87SlkH1bqik7RdWuw9nj+xNR8zYoAABcy4777GLKyXJGXXwfya0FXmHvKVPy7wkoMACnK/qWlpa78Wrhm9Lq6ut6xaPRrEfvnvluHzo+Mc00WERk8pcnJQ1HVt+49+hk7GDzjr0gTBQDlz39GYPBgc0QRGXQ7mqZ9XMPQoYQN6fMmJHDVVUzZ97e8DG2ZbcPGjXkDBgxwxTiuLbrZs2fn5GRnC2X8DCz9Ct3vSLZYAMszWbhD8OrJyO3/d2F6K4Sxxgas4Y9+BAtyiAJAfBcwfTrjj4XcaNHqakSfeMK1+eiGzE54Bm+/nVEn80syALFSTQu6EQPA5XfV4GHD4NlLTGeMUr8CPSsGuSqLE2dJ7RsIoij0A6CYmsXWsBvvq8DmJ8TzRloBAPXEE6GecooLuwD+tcKaHglFhHLJ2LJNMnWyAKbrNF0Xihayo5+riy5sGL8A6GgmGEUj6DWin6uymMng1d/V865F/tkjXBmOsRjqy7rDypWqFQDgQSvx4BWXGq8lyGsKcvapfMBrah4eA8B3U6217ZX/SdP1XUx52iRwddFZigUY0Y84ELTrxh/9VH8PynTnMG3jMw9g811XWzKhJQDgj4QsPGCxJAgnjkSadgHt/ZGQhRgABtTout7Psi0FO7gLAKHQSyA6TkSW7qMHUWBt+44FoBPORuGVd4qYwxZN/XG9gQ1rLfW1CgC8hl08bZhLLfLQQxSbO9cl7snBlrp0QfDWW8VsSHSDpmk3uCW5qwBgGMZVBPBCITu3HfZ4XcYPoZzli93SMyn4FsxeDKVAamm3rXptmvcyNl13pmU9LQMA3wWMGMF4QYsdm/glWBtirl+PhosvdnVeWjaS5A7KYYchMHSoKAD8Q9O0JySLsJWdq4auran5M1OU10SE7zDjFip4PyxCmmQ0gtP+iDIUTXAlliNuj3qe6nuF9ZTxdgCAv2DjL9ncckRk8mSKvfOOW+wTzjdw9tlMKRWLAVFiscNK+vZd6JbQrgKAYRj7EvCxiPD5b1Sh46yJrsojIodbNPmVH0Dt2lSFR3bb9Om72HRRmS22dgCADxQcO5ZRz+0zDNsSoIVO7JdfwAuJyOKXbHwCl17KlIMPFhIrxlhxWVnZaiFiG0SuGjkUChUqRKtE5Aou/RK73XGRq/KIyCGXpml3wPY8AMUP1MllvQ23NWccjNiP9pLF7AwAYjsa6tYNwfHjXdsFNN54I7GvvnLNZolkbOWFpabripuyur7gwoYhVMhA+WU5eo4703V53DRma7xzHn4DGb33cmXohh+/w4YzDrLN2+4OIL4LmDiRUYcObYxt/zKPffMNGm+4oV3OBwu1FzZrum5aX8O2890OBOKChQ2Dl4IxDWTgd9f8WbATZZKyb9fuKKrkWdKdtNYX0tohfRFdZP972QkA8JLivLS4E83a6tsu6wlai6VYqem6ULigXR+4vuCsxALEE4MwoQ2DXX0975c16UVkHXikK+NG1tRj3QCWAEvAAAAgAElEQVRneSKcAABXKuOeexhy3UlmGvvgA0TuvNP1OeqKc1rdDorXAmDAAl3X3Zk8zfK5btxawwgxQBMxco9/n0bqunZUOy63AEVV34iobotm/ehz0Pjqi7b6bunkFACUww9H4KKLXNsFxK8E1/NKc+2j8fh//g5ARBsG3K7r+lUitHZpXAeAsGHwOAAhJbpOGELZy9pPLEDw+mnI1U6x65s2+8U2b8Kafj2EH/20xswpAMR3AW7WE1ywAJF773V9nrripBaY8vgJHkchNB6RqzEAXAbXDVsbCh3PiIQe+3d6YAzlfWyexELIeIkmCmY0VfoRS/poWdq1d12D6DNTLffbsYMMAFCPOw7qoEFik1pA4u3uIfgjoQsuIDRKrYotIIU7JFaqLjHgz7quv+GOJE1cXQcAK7EABXWV6PB8+6geqw4Zi/wzLnbFdywaxeqyXXeq82dnMBkAEH8kxBNcugR2KfNUWOAGNXDZZUw5SOzWhgG76LpuPbrLwkRwHQDq6uo6xaLRn0Vkylz8IXa5e7jrMonI4ohGUVBY8yMoaJoV3dYw65+8B433Xm+r7/adCF/U7yaBD6CedRZTNaGjHuvj8UdCfBcgmOPA+gDe9RALoGq69VmxcmVw4MCBrhZRdH2xVVZWqh07dBDavym/LEPPcWe5LpPb7lZOuQAFw25xZxhe56+8O7B5kxT+UnYAXBJe6pqfBcS9J9+F0VmzKPryy1J0TiSTeLWlbKGrfddjANzxVAvWDRsGP8Y11Zo2bUSvUQPkzx6PPV4wZwkUl+r8rQ8/i8ax50vTSBoA8EdCFra3lh/8b9yIhotSP1I0Y8YM0bMS12MAvASAzwAIhcL1vlxPbQA4+gQU3SRUGNnWIl7d/3dg69fY6ttSJ5kAwOMB4nEBLjV+GxBbsMAl7m2xFfi4F5EqK6spuapY+0jT9QPFSO1TebLYwqHQmyASSoDfc9RJpGxK3XvfvBe+RKCwrfBY+87a9OECbLq0v30GLfSUCgD8S2DMGEa/+51UGbcwY/X1aLz88hbmrKQF6orUvzG18oqSgKmluj7EZZFc+FhrQeJaw+Cwd4GIMrtMuIAylwklExZh5ymNss/BKLivxrUx1ww8ELGfvpfKXzYAUOfOCN52W/OvnP23AK0p2ThuHLEvv5RqA6+Y0R57IDh6tNgOgOgcTdMedVs2b3YA4fDpYGyWiDKdJl1JeV+/J0KadDQ5j7+DjN16J51cbQn0/nvviU3IJNGK/forGkeO9GTeylZZPf54qKefLmZvon6aprn3a9KsnCeGtBILUDR7OhWFXUuAItunW/nRrr1R+IT9RzmuCWbC+DcAkP9r7ZZOjaNGEVu+3C32rvG1kgdAUdXdS0pK7L3xtqCBJwBQXV3dJaCqQh7LXvQ2ut5/jSdyWbCTKWnWlBpk7SeW5MGUmYcEqbYD4KZh336LxoqKlJsjwYoKRr3FdoiFRUWZhxxyiND1uZPp4okRFy5cGFxdXy9U/lf9ZRl6pFgsABV0QOHs1PwuTUUA4BO+8bLLiK2RdxviZBGJ9uVp1PhBoEBr1HQ9U4DOMYknAMClDBsGBwDT0Dhavw69rjvZM7kcW5A/hrlpJnKOFkh+7NkuW3ygVAWAVHwqHK+pIBIuTfSrpmldZMxNMx6eLbRaw1jCAPOkeCyGeF6AFGk8xz/P9Q9KGZG3s2yqAkC8ktCFFxIaGlJjpvBIyWnTRA8AP9c0bR8vFPNs1lqJBeCZgaxUt/HCUK2NERg2AXmniEXmif8ue6dRygIAL5o3dy54HQHvrGV/JCosRPCuu0QB4ClN0wbZH028p2fGqzWMmbzOuYhou954DmWs+EGENLE0/NFP+CeQyLYusZK2OnoqAwB/HNRw/vkp8UiIZ1DmD4GEpgFjw7SyMvECj0JMWybyEgAuYMB9IrJ2umsk5X3zvghpQmnUv12K/IsqEiqD08FTGgAARJ95hqIvvODUDK73V0pKEDjnHDEA8CgGgCvtGQAYhnEAAUKruqjybiqa/5zrTnE0gKKgoPp7KBmeHNY6ErWtzqkOAPwMIP5UOMkbT5vG06eJNFKUfUpLSz8XoXVK45nhXq2q6tyYkSGU3CDn/VfRZcZYz2SzY8SAdgryrp9mp2tS9Ul5AOA1RadNo9jryZ1JKjhqFKO99xby/YaNG/MGDBiwQYjYIZFni6yuri4rFo0KKRX45Qd0H3eOZ7JZtyEh/8WvoOYXWu8q0MPLw8L2AADYtAkNQ4Yk8XwBgnfcwahjRwHvI6rpuul1uQgjERpPjRY2DB7ZpJoJRhvWode1yRsLoB7YB/mTeJpDL5eqmdXs/T1hACDZdJHbbqPYJ58IGCExLwczpk9nUE2nPpd/habrnQUUkULiNQAsA9DVVPJoBL1H9PNUNlOZtiHIrfwAQZfq/FmRQwZtwgBAhvDb8Gj9qbDkgeywU1XEAUCsLdV0vZcYqXMqTxeZpViAEf2IohHnGkrmoPbcE/mPvimZa+LYtRcA4BZs/Pe/iX0v97m0DM9YiQFgQI2u6/1kjCvCw1sACIdngbHTRQTrfsM/KLCqjTPDxOzkkP3AXGTu+UcRFVKCpj0BAPvhBzRed52nc1rEydS9O4I33SS2AyC6RtO0CSJ8ZdB4aqzaUOhKRiSkXOdJIyn3a6FbQxl2EOJBHbqg8NlFQrSpQtSeACC+Cxg2jNhq16pp23KrcthhCAwdKgoAnuQB2KKItwBQW3s4i8WECh0UPjaRit+usmVwtzplTqhE9hEupb52S2gTvmIAIPnEzkVdY4sWITJhgqfz2kwdHgDEA4FEGgP+qOv6pyK0Mmg8NZSVGgF5b1Sh06yJYvJ58TmQk4eil7+TYfOk4iEGAEklsqkw8SvBTc1p072YGyYSBa+5htEf/mAqNyeIMVZcVlbm2RZGbIEJiW5OVFdXlxeLRoUecQeXfYvdJpzvqXxtaRAc+R/kDjjLXMkUo2iPABCbPx+RqclTYSp4662MurT0unfnnZWm64qXU8jzBRY2jFbrf28L1rR6FXqNOd1z+VoyPsvMRlH1UpCtJ7/JvX1ujwAQfyQ0eDAh6mpRna1TxczDFoqnrtN0XShjiCyQ8HyBhQ1jFQDzELrGBvS+sr/n8rVk2MxzrkT2uaNk2Xx7PpEI1g4uAViruOjOuM1cP/ulyFX+rTInQvCGG3ZIkGG2lMRFjc6ejejTT9ubPzI/G3jdRJ4IRKAR8H2prvcUIJVGYs9ADoYPG8ZCAELVEXtd0ZcoQQtjq4pqAIU134MC7kRnrnvhYUTuGO7Aos66yk4LbkUa9W9/Y2o/l668+S7gvPOIJw5JZKP8fAQnTxYTgmi+pmlHeSlvIgCgEsBpIkr2GH06qWv5hsFh2+7bojmCV5BlsN8ZyL3mbkFqAbJtf+Tidf56AJs3CnR0h8QyAMj8dczMRMb994stDhvqR2bMoNgrr9joKa/L9nUSTPnequm6S1vNlsf2HABqDeMGBow2NQWPGZ40nLK//lCE1DWa/DlLoLpU52/DGyE0jPqba7KLMLYMACJMLdBYeSZrgW0TaRI8FVb23x+BESOEQI4YG1BaVvaSZT0ddPAcAMLhcF8wNkdE5g4zb6OChdUipK7QBA4+FnkTn3GFN2e66qS9QfW/uMZfhHGiAYCKihD8z39cqyQUmTiRYh8m7kdEHTiQqf3Fyrl5HQPA54fnAFBdXd0joKpCF+r54afQcfb9bcoo79ho5+WS98ynCHQ0f7skstB2pGn4ZCE2DC2301Vqn0QDAFfGyj25ZeXXrkXDpZd6Ps+3yGklDwADdtF1XShnhmU7tNLBc8NUVVUVZGZk1IsokPntIuzyHxnOs/7hqux5AAoeqBMR0xbNqjOPAC1NfC2BZAAAS7HyNqzdeP31xJYssdHTeZfghAmMuor9iKxYuTI4cOBAb+4um1XzHAAqKyvVjh06CFU8UdbUo+f1p3kuI7dNzoz5yPidWPSW1WkSWbIY684SSw9llbdV+mQAgPguYNw4RrvtZlV8IXr2009ovPrqhMyjjHvvZcjOFpFzo6bruSKEMmkSYpSwYazja8xUkYYG9L7K+1gA6tYThbOcFyht7fOk/pITgI+EnkSYmsgpQbIAgLL33giMGiV0WLZVZwvff43DhxNbudKpuSz3z5gxQ1SnJZqui9UNsyxF6x0SAwDh8EdgbD8RPXpdXkYUz7zjXcu68zlkHXS0KwPGfvkRa07b3xXedpgmFgC2/zTjefP523k3Gi8pzkuLu8G7VZ7Z2YjvAEQaY29pZWVHiJDKpPHWIM2Shy3kBeg56iRSNq2XqXObvFiHrih+1r3HWKsrzgere9YzfcwGSiwAbC+dcsQRCAwZIrZgzBRr4e8NQ4cSNgilpbTBfecu5jEAv21hCJhaqutDpAxsgUlCAMAwjLsIuFREzl0mXkKZSz4TIZVCk3PdfcjoK5SzxPJ4bP1arO7v+S6vTTmTCQC4oPHAoEx3Uq3H3n4bkXvu8WzO8xeA/IZDaKIQDdI07SkhWolEnhljW5lrwuHTVcZmiejRYeoNVPDpayKkjmlYdi6K57h3WrxmyhjEZkmMKnSsMZBsAKAceywC//qX2KKxoX+8hoBH9QTV44+HevrpYroQHaFp2ls2VHLUJSEAYBjG7gQsFpE8/8WHqaPxqAipY5qs869D1lkuxeU3NqC+b3cg5uktj6lNkg0AePXceBFNsQy6pvrtSBB9+WVEZ81qfd5bvzFuVQYeAcgjAUWaoqo9S0pKPE9omBAAsJIXIOuzd9DtPg+ucALBpkc/akDAXxaOn5u5rfvvVEQmXyPA21uSpAMAnjf+r39l6kknuWMID58KW4kBKCwqyjzkkEOErsdlGiZRABCIRaObRSIR1dUr0GPMINflDJ56IXIvu1mmbX/jxWJY1bcHqKE5S407o9jimowAgIyMprMAW/kXzM0QfewxioZC5oQOKYKTJjEqEHre36jpujsHHyY6uL6wWhs/bBh8NWSY2rhhM3pfdby7chKhYM5SKFlCARuWy4Fsqq7EppsvMlU1EQRJCQAAAueey5RjjnHHJI2NTfUE23gqLLLHM6OJ5wEQqBydiDwAWwzr7sJqw321hvE1A8yPxFkMva4odzUWQD32ROSPfcidycYf/QzYE7TG+yAUEYXiACDxu1dkTBEa/svJf0FFaO3QRCZPptg779jp2tTHzGZ8FzN1qpj8CYoB2KKGfSM46GkYxhwC+oqw6HXl8USN/IvBnZb//OdQizq5wrzh7VewYeSprvCWwTRZdwBcN/FDNLPf4hYstX49Gi6+2LUfQJ4DkOcCFPIR0VOapg0SopVM5JoBzOQ0DINfyArti3cdfx5lLBd6QGg27E5/Vw7sg4J4nT932qq/HQRa5o7sMiROZgAwD6RxZoHGG28k9tVXzpi00pv22gvBa68VAgAChpTq+lRXBDFhmjAACIfD54MxIaU7TruB8j9xJxYg77G3Eei+uyu2j372HtZeqLvCWxbTZAYArmNw7FhGPd1Jk8d+/RWNI0e6sgaU0lIEzj5bCACQoBgAbl9XlBeZnLW1tfuxWOwjEdr8Z6dTx7lPiJBaomF7/BHFD8611McKcf2QvsAiB9+ZVgazSZvsAEC7747g9deLLSQbNmi86ipiP/9so2fbXQIXX8yUQw8V4htjrHdZWZl7EWhtSJEwALASC5D93jx0fbhCuqx5d7+EwP7uvL+ILVuCNX/7k9AESCRRsgNAfBcwcSKjDh1cMRP7+ms0jh0rfW4Fb7yRUY8eQjJn5+Tk9unTJyGJIaUrLqQxgLq6OuFYgMDK5eg+9kypsrIu3VH81Aei4lqmq7/2TOD1ly3387pDKgCApZh6GwZ046kwT3PG050JtKim6+6knBYYXOqiEhhvO5KwYfDIJ9WsHzU2oJfkGgG5FQ8iWOJOtBlbswqrB/zeTK2k+HsqAAA3lIXEGpbtGnv3XUQmTZK6FjKmTxcNZ/5J0/VdLAstqYNUpa3KFDaMZTz5r2m/aBS9RvSTFgvA8gpR/NLXpsPaJVh388WIVD/ZenezO2S7A9volyoAkFJPhVUVcQAQa59qup6wevOJBYBw2ABjpSJ26jniOFKickKlM4ffjuyT/iUyrGWaWMNmrOGPflopaGLjxtqyDFY6pAoA8LDg+COhgMhbDSsWaKKNGgaiM2dKWQ/UqROCt98uCgAvabo+wLrEcnpIUdiuKFZiAbrfeCYFViy3O9TWfiyYgaKaH0ACIZp2Btsw9UY0PPYfO10T0idlAIB/Kx53HNRBg0QXljV7MtYUHtzo/EfGypkFA0bpun6rNWHlUScUAMKh0KUguqtJnbZ/GztPu55yP5nvWPPg2SORe17TqzzZv8YsFkN92a6giPNJ5FhRQQapBAD81z++C3DrkVBlJUWrqgQt1zqZpc8VoqM0TXM+sW1KnVAAqK2tPZzFYkLZMfOfmUYdXxXKIdK6KYhQGPoRFDR/g2THnpuenY5N/7nKTteE9fEMACSde6hnncVUTXPHXtEoGs4/33E9QZ7QhCc2EWmJygOwRbaEAkAoFCpUiISK/+UuqEbnJ25zJK963D+QP2qSiF9s0aw6fnfQutW2+iaqk5sAIHuHFbeRlUSbNowaue8+ir35po2ev3XhVY+pVy8hHoqqFpSUlPAs2QlpjhaUU4mrqqoyMzMyhAIggsu/xW7jz3ckb8Hsr6AUCN3NWlatoe45bKg4z3K/RHdwEwDc0i1w2WVMOUiowLR1ETZuRMNFFzmaZxZiAKDpumJdSHk9HCkqQ4ywYfAcWaZy0MYN6HXNiaZ0rcnE1AACPd27m48sXwra6F32Yhm25zxSEQD4WQB16ybLBDvxYcuWAVH7qdviz4AzhD4zV2u6XuyaIgKMbS8oAd5CJGHD4J8A5sngIxH0HnkcNR3d+U2WBVISAGQp7wYfntOQJwIRawmNAeAiJhwADMN4gwChOlk9rygnhdlHZjGfpBeVDwAC/rZwgMkLm/ACJwJc+U9Zja7r/URo3aJJOACEw+EpYEyoIEL30QMpsDY5M+u45SC3+SY1AFhYeG7bKc5fQB5++McPAYXkIZqgaVpCM8UmHABqQ6ErGNEdIgbrOuVqyv7Cnee1YifWAjNARBE3aSyKmNQA4KadXOKtHHwwApdeKgoA/TRNq3FJFCG2CQeAcDjcF4zNEZG26LmpVPRKZdukFheAyLjtmcYHALne5UlAeDIQkRaJRnuVl5cvFaF1iybhAGAYRlcC+KMg0xb8/APs+sC1ruYHNBWinRH4ACDHoTx9WeCiixhPYCLaNjc0FPXv33+NKL0bdAkHgMrKyoyOHTpYSJjPkPfSTOoUnpl0VXbccJDbPH0AcGjh3FwEzj+fKX+ynvxlxcqVwYEDByb0VDvhAFBRUaEcfdRRPOWvaV6AbV1FsSiKHr+TChdWN0f1O3Rkmnb3AUDM8TudESkK1L//vSks2d7bhA2arueJje4eVcIBgKsWNgweCpljR03asA6dH7qRcr5053CwLZnEDg7taOVdHx8ArNs6/irx1FOdPU0m+lzTtH2sjy63R3IAQDj8ERjbz4lq6s8/oOuDYyhj+bdO2KRdXx8AxF3Ow48Dgwcz/h7BaUuGGACuQ1IAQK1hPMCAc50alfcPfvERus68iQJrVshg1+55+ABg7mKe3DNwxRVSE5MyYLKu68PMR3eXIlkAgEdOjJapatbCuejy1O2kbBZ6ayRz6JTi5QNA6+7i5ckCw4cz6m1ewc6i0xtAVJrIPABb5E0KAHjttdeKGzZvfh7AURYNaUqeV/0kOtY8ROTgcYfpIClM4ANAC87LyEDgvPOYcrhQhLoV7/NkJvesWLFi5MCBAxusdHSLNikAYIty1dXVvwuoKg8K2lOqwtEoiv97NxW+4V4JMKnyesjMB4BtjM1P9k86iaknnmj3ZL8tzz3fGImc169fv6SKZU8qANhivdqammOZovCQv84y1wJ/rtvx4Vso7zNnCR+2ytQOog59AGjypnLUUQj885/OTvZbmKwMWBCNRv9eXl7+jcy5LItXUgLAViAIhc5lRDyFT47Mtab8vAxdHx5LmT98KcuOKcsn3QFA2W8/qBdeyPj3vuS2DER/1TTtLcl8pbJLagDgmjLGqLa2diwYG2U1WMjMUoFvv0C3hysosMpebTg/DsDMwsn7d9ptNwSGDmX8v5LbRmLs76VlZfxMK+lb0gPAFgsuXLgwuKa+fhoDzpZt1cx356Fr5W2kbEq9jD5ObeHmDiApATI/P77wlX2kx+DEwNgVr73++j0VFRUxp37xqn/KAMAWg8SLisZiz4kWFLFiyJzaZ9H5palEkgqQWBnbLVqzRegmALilky2+gQAC557LlD59bHVvqxMBjxQUFQ0+5JBDUicffLNCKQcAWxwRvzEIBF5wGkG4k2OjURQ+O5WKX3+Gf39InyzJxrDdAwAR+Kk+P92H/GIw82KMDSgrK0utVNDbTMKUBYAtOjTfGDwOQGqBRWrYjI6Pjqe8j15L6Jo1+wV3Klx7BgDl0EObQnfFEnRaMeUXICrXNO07K52SkTblAWArEIRCZzOiewDkyjS0Ur8i/sYgc8lnMtkmjtcO1ykpCwBtXAvxyL3giBEM+fn27dwS8hL9SrHYWaVlZfwJarto7QYAtgKBYVzzP99V8GcBMj0UWLI4fnUYXPGjTLYJ55WyANCC5ahDh6aY/R49ZNt1Az/g08rKpslmnGh+7Q4AuEErKyvVDh06TCHgfNkPnjI+fBPdnryVlA0JTeQibd60CwDIyWkK3T34YGl2aWYUYcD4efPmVaTSyb4VI7RLANhigHnz5uVv3rSJFxSUnno559UX0fmFKUQROyHdBBBLihIHngCAzCiubWd3IAD1tNOY2k+6e3nK7kej0ejQ8vLydn033K4BYMtcaX5j8DSA/7OCjqa0jKHw+elUPHdWyt4YeAIApoa0SMBP9nW9qVR4IGCxsyl5XTASOfOYfv2E8lSacktygrQAgC0+CIfDfYixJxnQXaZfqKEBRY/fQYXvh2Wy9YRXqgFAPO32uecy5Eo96+WPfz4notNKS0s/8cTwSTJIWgHA1oPCUOgURjRdqCSZBUcp9SvR+ZGbKPvrDy30SixpawDg9vWjudbbfybxghuBSy5hPPuu5LYORCdrmlYrmW9KsEtLANjiGcMwRhAwDoBQJUdRj6rLl6Lbg9dT8OeEpnwXEjfZdwC81FZg2DBL6baFFAf4Ad9FmqY9SMQPZNKzpTUAcJfzG4OOHTveCcYuln5jsOhddH1sHKnr7AWKefErnLQAwEN3ecy+/DLgDIxNVAKBa0pKSiLpuex/0zrtAWCLKeJvDKLRRwCcLHtSZM2vRtfnJhGPLky2lnQA4Dzd9nYm3uECYk52Ts6pffr08fPENVvJB4AdVmS8UhFjz4PoMKmLlTHkVblX0MTubiGZAEA58sj4fb4LJ/vvK6p6YklJyfdSfdoOmPkA0IoT62pq/i+mKPzq8Hcy/UzRCIqf+A8VLBQqhyhz6BZ5JQMA0F57IXjFFb+l27aLZjtruJQUZWBpaekC1w2ZogP4AGDiuNpQ6CRG9CCAYpk+pvVr0WXGjZT95bsy2VrmlUgAoG7dEBg5klGnTpblboqianX6riHGLigtKzOpJGtj2HbWxQcAQYeGw+FLwNitALIEuwiRqcu/R9eHKyhjWWIKmiQCAHj6LXXwYKbuv398GUtsjQy4dt68eXe219BdibaKs/IBwIJF4zcGxcXjodAVYFAsdDUlDX7+IbrxGwOPC5p4CgA83faZZzLlmGNM7WGZgOhuRVGuKikpsVBo1vIo7a6DDwA2XFpXV5cVi0YfAjDIRvc2u2S9VYsuT9/pWUETTwCAh+4OGAD15JOlJ+VgQFUkEjk72dJty54XbvHzAcCBZeM3BkRPgzHpeaZ4QZNO1Q8RYu5Wj3YbAOLpts88kyFL6pcT99qiSDR6QrKm23YwrTzt6gOABHMbhnEAAfzAaS8J7H5jEY2iw38nU8GbL7n22MgNAODf9eo++0AdMoTxSD7JbQUD+uu6/rZkvmnJzgcAiW43DKMfAQ9LL2iyfi06zpxAeYskFTTZRmfZAEDFxU0n+/LTbW8C0YWapj0q0WVpz8oHABemQDgcPh+M/YcXNJHJXvn5x+aCJoulsZUGAFlZCFx2GVP23VeabM2MYgRMeHXevNH+yb5s0/q3APIt2sxxm4Im1/DKUzIHCnz9Gbo9cgMF6n/5ja3NpBuOAUBREDj7bKb85S8yVWziRfTUihUrzkqWQpryFUw8R38H4LIPqqqqMrMyMu5nwFmyr10z32suaLLRftIa2wBABOXYY+OL341024qqDiwpKVnusnvSnr0PAB5NAX5joAAzGaDJHjIn/Aw6vzyNKGK9LoUdAFAOPDD+Ug+ZmbJV+bI5dPcD2Yx9fi1bwAcAj2dGbW3tfoyxJ6UXNIlEUPj8NCqeZ62giRUAoJ49m97md+zozGo7R/H+AqJ/apr2sjPGfm+rFvABwKrFJNGHQqG/ENHjBHSTxLLps3nzJnSaOZ5yP5onxFYEAOLptvmV3l5ybzkBNIKxS9pjum0h4ycBkQ8ACXZCbVNBk7sB5MkURVn1K7rOuIEyv1vUJts2ASA7u6me3qGHbsNDylM9XnRtnKqqY/2kHDK9bp2XDwDWbSa9R/ONwbVg7HrpBU2++xJdH+EFTVpOctsiAPDQ3UGDmFpezk/iperL022rqnpxSUnJOqmMfWa2LCDXu7ZE8DttsUD8jUEsNgmMnSf7xiDjwwXo9uR4Ujas3c7gOwLA1nTbQamFlfiYHwYjkePSJd12qsxqHwCS0FOvVlV1bszI4BGF0ite5Mx9AZ1n37v1xmALACj77x//zpedbpsByxVFKUu3dNtJOK1aFMkHgCT2lGEYuxPwX1cKmsyeTuCnMPEAAAJaSURBVMV1lfgy62AERoywmZSjTeOtY8BAXdeTI/VREvs5kaL5AJBI6wuOHQqFjlKIHgMgteolxaJgiioohTAZT8pxg6Zpt6Rzum1hayWY0AeABDvAyvC1odBARnS/7IImVmRog5aBaLqiKEP9k31JFvWAjQ8AHhhZ5hAVFRXK0UcfPRyM8YImEk/qHF3vzYkxdkZZWZm9AggyDeTzsmQBHwAsmSt5iJtLoE8kgBc0kfrYyIKW70djsUF9+/b90kIfnzSJLOADQBI5w44ooVCoUCGaAeCkNvs7+oHfifPSGGP/KCsrEws3tKOY38cTC/gA4ImZ3R8kXgJdUZ6QXtBke9HXE2Pn+em23fenVyP4AOCVpT0ap7a29nAWiz0uuaAJI8ZG/bpq1cSBAwe6m6TQIzv5wzRZwAeAdjoTmgua8BLoHUyKaLRpAQKmbmpoGNa/f//kK2zYTn3npVo+AHhp7QSMZbegCQFzGyKRU/102wlwmodD+gDgobETNVRdXV0gFoncAqIrBG4MvlFUtbykpERe4sFEKe6Pa2oBHwBMTdR+CKqqqgoyMzOngbHTW9BqFQMG6bputB+NfU3MLOADgJmF2uHf6+rquseiUX5QeBSATQy4Qtd1HmHotzSzgA8AaebwbdXl6cl+/fXXz/yT/fSdBD4ApK/vfc19C/jXgP4c8C2QzhbwdwDp7H1f97S3gA8AaT8FfAOkswV8AEhn7/u6p70FfABI+yngGyCdLeADQDp739c97S3gA0DaTwHfAOlsAR8A0tn7vu5pbwEfANJ+CvgGSGcL/D8eRSM8dG6CrgAAAABJRU5ErkJggg==;whiteSpace=wrap;" vertex="1" parent="OYDcvir6wLGYqZr8SC8--20">
          <mxGeometry x="32" y="40" width="136" height="136" as="geometry" />
        </mxCell>
        <mxCell id="OYDcvir6wLGYqZr8SC8--22" value="&lt;font style=&quot;font-size: 18px;&quot;&gt;Backend&lt;/font&gt;" style="swimlane;whiteSpace=wrap;html=1;" vertex="1" parent="1">
          <mxGeometry x="780" y="120" width="663" height="390" as="geometry" />
        </mxCell>
        <mxCell id="OYDcvir6wLGYqZr8SC8--24" style="edgeStyle=orthogonalEdgeStyle;rounded=0;orthogonalLoop=1;jettySize=auto;html=1;exitX=1;exitY=0.5;exitDx=0;exitDy=0;entryX=0;entryY=0.5;entryDx=0;entryDy=0;" edge="1" parent="OYDcvir6wLGYqZr8SC8--22" source="OYDcvir6wLGYqZr8SC8--23" target="OYDcvir6wLGYqZr8SC8--19">
          <mxGeometry relative="1" as="geometry" />
        </mxCell>
        <mxCell id="OYDcvir6wLGYqZr8SC8--23" value="&lt;font style=&quot;font-size: 18px;&quot;&gt;API&lt;/font&gt;" style="swimlane;whiteSpace=wrap;html=1;" vertex="1" parent="OYDcvir6wLGYqZr8SC8--22">
          <mxGeometry y="210" width="302" height="180" as="geometry" />
        </mxCell>
        <mxCell id="OYDcvir6wLGYqZr8SC8--8" value="" style="shape=image;verticalLabelPosition=bottom;labelBackgroundColor=default;verticalAlign=top;aspect=fixed;imageAspect=0;image=data:image/png,iVBORw0KGgoAAAANSUhEUgAAAgIAAAIACAMAAADHU/T1AAAABGdBTUEAALGPC/xhBQAAAAFzUkdCAK7OHOkAAAMAUExURUdwTDd0qTd4rv3NPDdsmf/TP//MOzNypv+/QP/aS7LJXDZunf3RQDZtnDdypDVtmzl1p//PPvzZSTZzpv/UQv/QQTd3rP7MO//LOjZ1qTd2qEFrqDZ1qjd4rzd3rTVrmDVunf/QPzd4rjd3qv/UPDVwoDZ1qv/RQDZunjZ4sDdvoP/QPzZ3rDZ3rjd3rf/QQf7LOf/QP//QP//PPvzURPzIODZ3rPzMPDZwpP/KOf/QPv/PQP/URjZ1qvzKOP/TQvzURjZvoP3LOv/RPfzKOPzLOvzTQzZ1qTd4r//MOjd4rzd4sP3NO/zJODZxozZvn//QPzd4rv/NPDZ2rDZ2rPzMOzVwoDZxofzSQjZ2qjZ3rf/NOzVxovzTQ/zKODd5rzd5sP7LOTZ1qzZwof3TQ/7RQf3UQv/KN//MOjZ1qjd5sDV4rvzJOPzMOzZxpDVqlv/aSv/VRf/cTf3VRP3KOf/XSP/LO/zVRDZunv/RQPzeTjd6sf/VRf3SQv3JOP3WRjVqlP/OPDZ0qf7JNzVwoTZvnzVplf/WRf7ZSv3LOf/NOzVwnzVqmDZunf3YSP3KODZxpDZsmjZwofzeTzd4sTNpk/3eT/3eUDVnlf3URf3VRf3eT/zeUDVwofzeTP/SQv/RQTdzpTdyo//TQzdxojd0p//QQDd2qv/URDdwoDd1qTdypP/PPzd1qDd3rP/XSP/YSTdvnv/VRf/WR//ZSv/LOjd4rjdxof/VRv/MO//OPv/NPDd2q//KOf/URTdzpjd0pv/OPTdvn//aS//WRv/PPjZtmzd4rTZunP/NPTh5sP/TRP/bTDZsmTdwoTh6sf/XR//JOP/QPzdwnzd3qzh5rzdunTZunf/MPDd3rf/cTTZrlzdzpDZrmDd0qDd5rzZtmv/dT//cTjZsmjZqlv/bTf/eUP/SQ//dTv/RQP/YSP/aTP/LOzZtnDh6sP/eTzdxozh6sjd2qf/fUDZqlTZsmP/ZSzdvnf/KODd4r//JNzh7sv/ZSf/KOjZql//IN0hhmJUAAACfdFJOUwBgYLRYDMAUAzABYLQ3YJAOLtgswcAzgnMnCQRKgiKQkBq1HQaQGDl/71haq3ZrEYgmNMD9/UP93HnACTCJ3yrZc5AU7dLsmJ9tkjqY+fmlRd19xbza8lL4pFoh1eLGzeag1b3OqrQ/U+ZU9/Pm7ZBSY26irh5gyGlK+NZA87+Q3E72qOU6t3WIumj7QcWZzM2bssz76Oyt97C7udrd4iZtHFwAACAASURBVHja7N1vaFvXGQZw26x4eE0Qc+diWzJUbp1okbS1C2pZJ5JQFht7JFUsEttzZs9pxmSD264f0uGWtiHboG1CGB60hWJFVhQrdpLGG3Y+GCcEM5eERSG2V4KzZDBBSaAmDhkhpIzJdhLff+fec6V7jnSk5/kQ8uka9P507rnnvOeqqKgQYqut8Nm7S7weh7++1e10BoPNzc0dXV1dgUBXV0fq/8Gg0+lurfc7PN42u6+isq66CBE+1bVN3R5/gzvYFeoZk2T6Ya4uZWL2pDSzqUysxBVodtc7vG2+yip8lqJ94yu6PY3OjtD03I2l3B+TRybg5EmVgEcEJo4fe5TQYbffawcFAb725d2ehubQhbmHyUzAMXnuHD9+PBR8rrjJhg86J1Pq8zT09V9YDjMBDxMK+ovLy/CZ59C473M4OxcurIaxgOMnlrJzj39XHT787KemrbGjP7GwwFPACoFjd1L/hNzechQhi2N/d0NnYinZELCc60evXz8aai3GaJCNiV+TI/XtT2RDgJRASsBy2p/zYRmBa/3tDa7E4+SAgKX01tuhgE+qZPXPGQHLCrbvwsoB81Q0yuqfUwKOnjh3rre+AkVi+fTn7VhczFTANDMB51ZyeEspSsUm5Q09ixwETGQo4OzZs9u2YyhgEHtwcVEQAakc2WPH6qGlKWvrWxRKQCrtazE1tC7dDwGIJCCVz9fiKdGa+DoeCCngyLlz7btwO8g8Nc4HggpI5eyRwz6UMMN1IEePtQKu8hSwlGtubCBkdA8IPBBdwLVrO7dgSpD2ENC4IJyAsyoBw8PDh7FMkOZacN+D/BAwPLxtPaaFacTbn4aAG4wFnEhLQCp7alFRszeBhgfpCLifowKGh3t3oaimUteRZwKGIxE/bgZmFgMC+ScgEvmzDZWlngh25qOASKS9BrWlFODKUQHXMxMQiRxAuzFVyvNWQCTSixUCmnlAZ/4KiER2/gEVNootkM8CIrd3YhwwSLUzvwVEo72VqLJu/PkuIBr9HFuHevEt5L2AaPQwOsp0JgKdBSAgGt2OShPTUBACotG3UWpCmhYKQ0B0Gx4LtFPWUSACotF2TAc0021GQE+Hu9HhcTQ6AwIKiI77UW6tQaCPWkDI71v5Gi3tv9Z1u3tEEzD+0RoUXHMQoBMQVB3WsnlCYgkYHz+I7gF1gnQC+jQ786s8+4USMD7+Q1RcmUoqAfcdpI7s2mahBIwfwIxQGQeNAJfO4Zxqv0gCxsexOKAMxdnhsU79lgvvrEACLmEYUKSGYgzoNNpk8wok4NIlDAOK6hkL2G+8puYQSMCldlRdvj1g/CxQQrG2EBRHwKU4OohUUwF9AW6ay9S5xBEQx46hbDrfbyTARddp4RVHQHwnJoTy2aDBmqCD0lKXMALicRwyk6TJSIDLRnmlYnEE4E4gncbZjXaGGqlvKSFhBMQPYKNAskdktDtM32TRKIyAeByniwgE1AIWAvSX8okjII7VIUndDDpEGugvVdUjjABMBqTTQYMusRIT12oWRkAcC4RaBLT7BJtMXKteGAHxj/AyMjUBQqeomRM4HmEExGdwukxFgNQrbGYdrVgcATMfo/QKAsRucTPXahNHwMz3UHo5AaKAaTNrKMXiCJjZgtLLCOicGLGZuJZXHAEz61F6KQG9M0NmXtTkEEfAeRB4nAqDU2N2E9dyiyMABKQE9M8Nekxcq0scASAgIaApYPXV0k76S9UJJOA8NgmkBPQEjPXQLwy0CSTgPM4USQjoChgba6O+lFMgASAgIWAgYCxIe6VakQSAgCaBOe2fmKDtGWkUSQAIaBEgCKCdENbtF0kACGgQmCP+zAzd0oBbKAGnQUBFgCxgLECzSGwXSwAIrKbcUMDYNMVxotpesQSAgJKAroDpacPTJLbDggkAAQUBAwHT0179i1QFRRMAAnIChgIMxoHSZuEEgICMAIWA6elW8pywIiCeABCQEqAScPVqF+FtQ9We/QIKAAEJAUoBqbRqdN2W2bsmRBQAAmoCNO8VnnDb5e33Nm/XhJgCQEBFgPbN0qHWkoqVWUGdzxPcPyGqABBYTaUpAStxhQKh/QL1CWoIAAEFAZNvl58V6LwAQQAIyAkI/PsC6Qo4/R2UXkKgEAXcAwEJgYIU8E8QWCVgpYBjwggAAQWBwhMAAqupsVDAHcYCItYJAAEZAWEE3LZOAAhICRSkABCQEChMASAgIVCYAr4CAQIBPQEn80kACBAIFI4AEFhNbWEKAAFNAtkVcISrABDQIlBQAkBAg0BhCfgSBFQECkwACJAJ5KmA0woBIKAiYCRglrGAa4wF3FMIAAElgYITAAKrqeMi4GiuCQABOYECFAACMgKFKAAEpATyQEDctAAQkBAoTAEgoCZQYAJAQEWg0AR8AwKPU5q5gOMCCgABBYHCEwACqykrzWJeypqAv4NAbuQlrjtDUgEgkGME+K0IPRIAArlFIAsCQCCnCGRDAAjkEoGsCACBHCKQHQEgkDsEuD8NgkCOEciWABDIFQJZEwACOUmApwAQyEUCXAWAQA4S4CsABHKPAGcBIJBzBAivk2Mm4N9KAi9/3zCbHyX1v32/ObRjw6ZnUULLCHAXoCLwxN/k+UKeW7dunVrNrVOXl/LXln3vvfEjlNEKAiYFzGQuwIiAroBTDwUsZ+O+Pz2f/U/SVu5r83ocqXhK0kyxJVlrMr3GLxWNmz48/JWSgEqAMQF6Act57XevZK/4Pk9Dh0v14+M3CvPV0iYE6BMwKWBqamrj3heyUP66toa+uYWFhQsQYF6ALgHzAqamLk/t+4Bv/SscHXOJRAIC0hSgRyAdAVNTZ86c2fd7bvUv9wcSy4GAdAXoEPhCRYBSQCpP/YxH/atKmhMJCKAT8CVJwH+IBDIRcObMxkPMHxLrHK4EBGQugEggMwFnRke3bmAKoKa+JwEBVgggEfg2UwGp7GU3EJQ29icgwBoBBAJWCBgd3f0qozmA5BYAAXQCviEK0CZAI+CyoYDRoY07yhgIsAcSEGCdAE0CBgJOUQoYnZyc/PQJy2eB7sQDCLBQgBYBCwVMTm7+pbUCSmT3AAjIXMA/1AQsFTA5udvKJQJb6yIEWCxATeBbc4uCRgKGht59xzIBTQEIsFyAmkBaAqbIAoaGWqzaNPD2Q4D1AowIWCAgZcCSPYPqxkUIYCDAgMAtcwsC2gJSBixYILA5IYCJAH0CFgkYmmzJeD5Q2wcBbAToErBKwNDQxa0ZNpXVBiCAkQA9AhYKuDi0OaOWshoIYCZAh0C6AkY1BKTyVAad5pWdEMBMAJmAxQIGB99KfwyAAIYCiARupbc5SBYwOPhhujvDmAmyFKBDwGoBgy3pLRVXNUMASwEkAgwEDA5uTmfbsBrrAWwFEAhYJmBIIiC96QDWBBkL+K8mAUYCBgd/a1pAGwQwFqBJIM0mIWMBg1vNthOWuyCA8kdH0xWgRSAzAZM6AkzfCmx9EMBawL/UBDJsEdEV8PXX5jaM3BDAXICaAFsBA7vNPBWUQAB7AYYELBYwMPC0ib0h9AlyEKBBgK2AgZZnqAk4IYCDADWBzJuEdAUMDFDPCEsoBMxBQKYC9Alksj2sJPBIwEDshbRuAxDASIAuASYCBgZ+QPk0AAFcBOgRYCRgYICqm7QJAvgI0CHATMDgTykElHVAAB8BZAIZt4iQBKTyjsm5IAQwFEAkYK0ABYHPjJsEOiGAk4B5AgFrGgQIg8BAeJ0RAQcE8BJAIMBYQPhJo16xHgjgJUCbAGsB4fAm6kEAAhgL0CTAXkD4Pf09YhcEcBOgRcC6JiGigPC7L+sR8EAAPwEaBNgKeEgg/CbV4wAEsBegJnDZ+s1BDQHh1/TeIwABHAUQCDAXEA6TN4vKAhDAUYA2AQ4Cwr8mv1QOAngKmN+lQYCHgBh5QuiEAJ4C5u1qAjwEpEI6U1DbDwE8Bcx/rCLASUB4r/6yEARwEjC/Rkkg7Taxi+YEhFu0e4mrOyGAq4D/lRsSYCTg5k3tt9V3QwBfAclKIgHWAmJPkieDzAUcg4BHApKlJALMBcRatA4Y2noggK+AT4oIBNgLiMU2ELqFZA8DTATcYSwgIo6A5PsEAla2iZEExN7Svg/kgYDb4ghIHtQmYGmbGElAbOt31feBfgjgKyD5R00CDBoENATEYus07gMQwFdA8nVlDV7hKCCmPmLqhADOApJvK2vwDEcBsX3q+4AVAk5CAL2ApHJ9uGgTRwGxF5Vvpe2GAN4CkjYlgXUs2sQIAtSPhY0QwFvAX1Q34w+YtIkRBMR+ofjrAREEHMknAeoHgqI3WW4OKgXc/LniZcMQwFtAcr2KwA6OAq5ceVG+RlwCAbwFqGeDRYd4CrhyRX7O3E0jYCzPBZzmKuCTKhWBz7gKGPmxrG/UBQGcBdw9qF6j38xVwMhPpH+7wgoBs4wFXGMs4B5jAfNJWdRTgWc3MhKgJLAiYKRF+lsl3lwQcDTPBcgGgeTdNSoCz7PdHlYKGBmRbhO0QgBvAe+rf1r+Dc4CRj5UrgpAAEcBd19XTwWe5ixgRLI4VAoBvAVo3AeKPuUsYORXklNEypeK5qGA+P/Zux+fKq8zDuDPwihIgyO5zYQL0qGoTKZoA1qDQEAEq/Jj/oCo4KrQoRkqYlFLtFIVpFG0SkRbdctsu4VpYqe9McBwpYWtpBvxzmR1zZZMU02nJl2Cc6bZst33Xri/3vPe+9573/Oc9748zz/AzTkf3l/ne56jLwEtjNBONZIAJ4H9rtjIVBKALOCx/H0AUjjGxJgXgcuXXceYTiMByALORgH7afAqx+VhmYDLrn1l3+cv4FcGF/DHgAQ8Psm4DxzgHBCQCxhyJoemkwBkAayHQahFFzAU4XwaJAHIAtoYAjIy0QUMVTsbDIW/gPfCSgDzItDAOSTEEDC0cLzPwDISgCuAdRGAXbgC7ASGxlsQrvYr4PecBXzEWcAtzgL+FZCAxyZWk58ivjExpoChN8ZfCEgAqgDW6wDMwlge9hbQ+9LY5+GQBfzG4AJ+p6mA03EsAgdECOgtGDuCggRgCnj8bWazt2oRAnrH3grnkgBMAcxnQed9AFdA79qxLQR6F3DJSAJOz2QSOK6pgH+oFNBb4lgomkYC8AQ8PsYUELmfe0yMJaC3t8n+539EAvAEpLGbve3ECQi4BIwTcJxU9LIfAX8xuIDPEQW0JbIJ1AoS0GvfWGgmAWgCWuLYAvaJEtAbb99LRgKQBHx5erpC08+3RQkYsG8nWUECkK4Bp00KAuZnYsTEWAIG7D3J14sV8FuDC/jSvwDYhRMTYwgYeNO+VMy9qej73BsKchTwd/4C8jLRAgLeAgbsO8yXkwAMAS0JisdAvCJOwNA2+6ZiQwv4WCcCOqIUBczKFCZgYGCh9HlwNQngL6DMrCggeo9AAQMDKbafsJkE8BZwdq+PI8F2osXEWAIGpJOqXiYBnAW0fNeHgCVFiCEhuYDhcttv+ElYHzAgVsDf1Ag4GefrcNBXkJeHvQQMbwEwkwCuAlqO+TwhuEGwgOHdADNJAEcBZ9PMPgUwbgO4AoZfAkiYUMfMIAsom+77nPjod0QLGF4FsIIE8BLQFgsxvglMESCg10PA8DyAJBLAR0BbK/ir8kzskJBMwPBKxyoRCdCynZwk4OxJk18AkFckYnnYU0DfIYC5JEBzAS35Uf4BQEq1DgT0RUgLhRNVwKd8BJze0QpqKrJWDwL6ngGYSgI0FNCy41giqBPwnC4E9C11I0ACQhRwti3fBDExggX8Sb0AO4G1ADkkQAMBLWX5sSr//fkJ+EUQAiQCy0lASAJa2nbsPRYHgVVKrcDlYffbQF9f7jiBsBJQUdVRc6qs7OQMRn3PR31HdT3vo3bY6/kdafnPVsbOjIEganG1bgT0bQMoDh8BFR0n8ytbk80Q5tWwXz8C+goBloWFgIqatKTpYIhKPZCpIwESgXW6F1Bak9+aCEap+bVCQ0LeAvrqAX6gbwGlpybHgXEqZud+vF5SagT0ldgI6FlAx2wjzb/tOXDPVbExMZmA2wsBpulWQEWxyVDzD5EHMq/eEB4Q8BRw+3aMnYAeBWzPjzMYgCNFV3Uo4HaqRECHAgwHIFsCoEcBt7NtzwL6E1CaZjAATe1FVwUJ6PUjoMdGQH8CahIMNf8x5W9nCuokpEJAT7QXAR0IODzbUPM/60A11lFDKpeHPQVkAazTmYBTUQZ6Aix3zr9eBfSUACzTlYDSvUaZ/ozX2vdkYh43FpyAnnqAYj0JuGCELwHZi9Pbf1ydiXzgXJACegoBlutIQE2wN4GYjKa8SUi1mFWz9r3WkL6zsX3XO7VFmcrnj+tkachNQM82NwLiBZQFvBiUmtdw5Pi5zq6Hd5z1laPujtUXzrpnrz+41UNbfeJRTz70qg+86sGDK+51U6prrhocHLw5GCYCXARydCMgLbDL7b7GXeeb738t1R1eAv4TsIBBdQLELg25CejJdRIIKwHZ5e2dzfel+tqLgIEE/AxFQM9agKk6EZCv+ktb4znH9OtCwE3VAm7oUkDPUoA5YXUNaDrSed9VQgVcMYSAvhMAc3UhoFjVw1/6ubv3uQl4MhEF9PQ8A7BeDwJOqXgXaGrvGh0NQMBdEqBCQE8EQJIOBFT5XxicdKZ5VJWAr3gJeCBSgMZLQ261CWCFeAEVyf4BjI6GgYBBlQI+E7w46FaPCgBM4leGKv2Fbh0A9Cvgmg4EDAUn4NEUgGThAmb4WW5rb8YW8OHEEfAoHiBKtIAq37uDGrpGQxZwjwQoCbDsBkgULOBorM/9l2P3AE8B9ye2gIB3D/sQYJFOLT4oNiWWo+oSEJyAL0QKEHXIRGACLHW2Yd4qVMAFs6/dd6PcBXwiVoCI5WEPAZbFUidyoWlxH28DTZ3hJyAMAgIuApIAywbbSK8RKaBGWcALXToQ8IHRBViybUO9TqCAW8pBsYZmHgIekgBPAYXSWOcI3DVWprwD944qAcJDQuIiIsGFhLwEWOzHU80RJ2BEcc9IoxABEyAk5CXAEiGN9npxe4cVLwKNoz4EUEhIOwGWldJwLxDXP0DpSWCnbgUYYXnYXYBllTTeJmEClF4H9jXrUMAVQwqQvg8DRAnrIZKk0KC7C0PAExIgVbl9yA8KElClsBPrPPs2QCEhjQR4EMizj/kPBXWSUsgMnwlIAIWEAl8cdK9I+5ivEdRLLCqQl4FwDgm9q6OQkJeAQsegF4vpJ3iKHRFrNpwAnQUEPGqjY9TniOkoyVwgiu7Uv4BrxhFg2eQY9kohAirMvm8DFBNDENAf7xh2k5C+wswvg03NFBJCFPDf/jcc424W0lm60ufbAIWE+MTEvAT0zx8b+K0CBBxl7R6ZdIdCQpxDQp4CSqLHRn71L/G7yzM/Dp+jkBCqgP6l4yO/TMAJE6zvQvsoJMQ9IuIhoP/Q+NDncxZwkXHGSKzyRYBCQlgC+qeMD/0CfAEVjK3EecYJCX2m15CQp4DxFwKAKL4C/sk4Z4j1afA4xcS0WBoKQEB/inPwt2ILuM5oKhLZTCEhjOVhNwG5rtGfhi3g+gKFD4MUEkIQYBkT0P+qa/RzsAVcZ3wV6KSQELKA8c/D9gQptoALjG/DFBLCFtBf5xp+E7KAEcbT4BEKCSGEhDwEZEW6hj/xIK6AkTTmfUCkgAdhI6BXKwGub4P2T8RBC/h5MAJGnpU3EpiwMTHMkJCHgP6V7hOQgytgRP5tMJ1CQigBAfdKd5+AJFwBI/LY4HEKCWELyFriPgFxH6EKqJA/CpynkBCygP4TnjOwGVNAt3wHQQr1ksIICXnUPM8pKA5OwF+DEtAtDws0hFtI6EZYhoQ8qtxzCr6FKaBbnhtsp5gYj15SPgQ8LUn1nIJkpoD3+QjoljebPEMxMYSQkAeBN73n4EVEAd1pyk+DFBPjGRFxE/A03nsOihEFdMtSY9n3KCaGLMA633sSkhAFdMvOo5xEMTFUAf1PrSdkV2JzKZ6A7skKLwQUE+MaE3MXYF0k/zazBk9At2yJoJF6SSGEhNwFWDfICczFEyC/CrRTTAxZwAlGeDMBT4D8KrCLYmIYERGXANZ9wPZaiCZATuAcxcRwBbDuAwA5aALkBDopJoYrYCOzv4dJWwHvKQuQEzhPMTHuMTF3Adbd7D5Pm7EEyAn8lGJi/ENCbgIKs9kE0hhLQ1wE3JIR6KJeUjgCxggUKDT9TMYSICfQTDEx/hERlwBrnlLz57eQBDAJUEwMT8DriqdA5CMJkBGIppgYpgBruiKBqFIcAQwCFBPjHRNzE7AtVfk4oHVqBVwKScDHMgIUE+MeE3MJsMb7OBawFUeADwIUE+MVEnIJUHojdFQVigBlAuEbE3tX5zExlwD28oCz9qIIUCRAMTF+ISHXRSDSJ4G4CgwBSgQoJoYgwDrF90HxMANDgAIBionxi4m5qj7DD4HppQgCfBOgIwc5xMSsql4HxpLEIbaUVCOATYBiYhxDQs7KTfVLIPkifwG/ZhGgmBjXgMB4bQH/tS5UAdf9CmARoJgYioDXVQgA00XuAhgEKCaGIiBrsRoCUMZXAJMAxcRQBFhXqhJgeyngLUCJAMXEOMXEnM+CkeoIQA5vAf4I0JGDfARYy1UKgLjtnAUoEKCYGLeAQEC3AftKAWcBbAIUE+MsQPVtQOpEWcVXAJMAxcQ4C8iqgwAq9hJXASwCFBPjLOCbVRBQzQhSwIgqAQwCFBPjFhMbExARExgB8wWeAuQEKCbGLybmEJCbAQHWAp4CFAmEUy+pcImJOQSUvAABVzFHAUoEKCbGS0BWeuACwFzFT4ACAYqJ8QgJSQK+iYdgKqGCm4B/MwlQTIybgAIIriZzE/BnFgHqJcUjJmYXcCgmSAJQxksAiwDFxLjExCQBEanBCgBzBycBDAIUE+MSE5MEvBq8AICoF/kIkBPQVUjIQDEx6S4QDaFUwnYuAnwQoJiYxgI2hSYA4FgpDwHKBCgmprGAeTEQaiWVchDwuRIBCglpKsBakg4aVOVR7QUoEZhwvaT4xsSshbNAk5p9VHMBCgQoJqatgI0bQKOqLNVaAJsAxcQ0DQhkTYkGzap1u8YCmAQoJqalgP9tqwMty3RYWwEsAhQS0lJA1qYM0Lamd2gqgEGAQkJaClhaB5pXYrGWAj6VESABGgYE6helAo+afFQ7AUoEDNRLSlxMrKRgCXCqhLc0E6BAgI4cDF1A1qYNwK8S00o1EsAmQCGhkAXUFzQB3zLVaCOASYBCQqGGhHIXZQD/mn1YCwEsAtRLKjQB9YfqYgCl4tK2hy6AQYBiYqGEhOoPbfl/e3fXmsgVxgE8sJjakIWVblHKUhCEWfDC6GaQ1DDZ+hIQlBXBVpAI0li90EIaYxrYuIRQUrOwtpct7DfY21z0Yi/7Abzrl+h9CV3S3YuNY+bMzBnf5jye//MNDs8vOp7553kSK4urB4+/mVaAkcASx8TezFmAOthohFYWXA++fj2dAEsCmCXFLUDVOsWCZ8WVWnv07OUUAqwILDwktP/Qqj63q68Y9cRQqzOq3qCkaVpp0DtPBpoxl7p/myv86buXkwqwILD4kND2CmryL4Rvf3s9kYB/TAm4EBICgWk/DB49fvbrDw4FmBJwIyYGAjOpL7787P7P9/nrEzYBV0JCICBEeV2MiYGAOARcCgmBgDAE3JolBQKiEHAtIgICghBwLyQEAmIQcDEmBgLCEHArJgYCohBwLSYGAoIQcC8mBgJiEHAxJgYCIhJYaEgIBAQksNiYGAiIR2DBMTEQEI7AomNiD7/X1fokdW/iOkHrGQSkmiV1idYbCcg1SwoEjAQkmyUFAgYCsk0TA4G7BJZqmhjPBAEQuENAbAHzmCWVRevHCEg4SwoExgjIuHIQBPQEpJwkBAI6AnLOkgKBEQFJVw6CgI7AMq4ctJ8mBgIjApJOEwMBUwKyTBMDATMC0sySCqD1bALyTBMDATYBiaaJgQCTgEwrB0GARUCqaWIgwCAg18pBEDASkGzhHAgYCMi2chAE7hKQSAAIMAkse0zMuGIABMYJSLhycAut1xOQceUgCOgJ/CfjujEQ0BOQcuEcCOgIyLlyEARGBKSIiRnXjYGAGQFaMbF2vRguKEohXKy3HS6cAwETAvMUMOvXw5rfpz+Iz685WTkIAmwChGJimabXcJRmhn/pZBGtNyFAQ8CbdJe5GdB7kOZdPw4CTAJkPgP6QbPjBPuci2dBgEVA5JDQmIANr8V5knyrh0GAQYBMTMzmDU+Aa/k0CBgJkImJ2TavyLN+HAQMBMjExGr2Z6pxrB0FgbsEyEREMhxLghMZ+8WzfrR+nAAZAXGuiaXbcdvVwyAwToBOTCzJd6qk7fJpEBgj4HJMzEFIqJXiO1WqZbd+HAT0BAjFxJK8x0raLaAHAR0BSjGxKO+xoiwBV29BgEWAUkRkwH+uqrUAEBiVh1JIyMGP+S1rASCg+8SkFBNT+M+lGF8OggC7PiUUE4sn+M+VUC0FgMCoYoSmiZWcHKxkKeDtBlp/e5FGJCb2ISq66uRgPUsB/4LA6FmA0ByZjpODdSwFgIDuHo3QJKG6k4OdWwoYgsBtrW3SmSXVmZDAO6MAENDVnugxsdG/jDh6FuhbCgABXf1BZ5rYZL8ImAJAQFcv6EwTi4f4jxXKWwoAAV0dEJomFnNw32EtAATuXAxQmSTkYDpMwFrAMIfO35b3lM4sKQfPgz2mgLcfBQxr6PyofqczTSx+xHuooGotAAT09aOwMTHjBAHulzt+GwHDJBo/qgqhaWJpD9+ZPGkbAUP8c7m+jglNE/M7+BCwEjAMo++6uiA0SahV4Xr3lbcTMIyh7/o3RZt0Zkn9terl+JHTsxWQD6Hv+qpTmibGcaezYStgOEDXx+o5qWliXbvjdO0F4HLQ8EAo7tJJ40jBuM2TXFhlBgTG6rqBpo/XNJKkCAAAAspJREFUiYgxMdNlU3HLHYMBDgE3aS+afqf2aa0bq5leD3hqVxyfAde4GGI8DdBaOagVTD7ONC4B1z603PiigNrSyT7jh73St3w5OBJQRcMZt8Rl4WJidksnq93I2O3GZfWKU8B1Ew1nXRESXDoZrya7jWgwGG10k1X16sru1dBHAYM19Jt1o3ZMdemk9X8NMQTcnKHd7Hv1MtmFcw4F9NFskzqQREA+il6b1atlF/CBwM0N/qfYvELHJJdOOhQwwMWgRQX3xIqJzUNAC18D1o+EuwSXTlr876hRwA2uBGxKOSW5boxfAB4EbKtQXmoB57gU4nhhdLrEAvqIi/FUbJeggHdcAqoJtJerfHu0lk5yC+h50Fze34bHrsXE5ibgPYEOvgUc3BEdChgQmFZADldCjupiU1QBf04mQM2iqU4fCp8ulYA0EsPOy3NIUwDz5WAviIZOUs1dEQT8Pb2AfAAXQhNW5NWmSDGxSQUMEBee5pXBvtgBAQ4BrQB+CUxV3otd2iGhczwFTP9t8EuZroABfgjM5rIwV6YZE8sgGzCzqhyW6cXEtC4eAmb6SeDfnbmAucbEqk0AmHUlsiWxY2K6/qsdBQ2by6+Dk3qZQlBQ81fQrLlVKrAveEgo3znBN8CcK5ZrCytArWZT6NAivhCUF3sCClB7WVwDLbC2/U+FCgq2Opf4+194HR0ctoUICqpVv4Lvf7fKF1g/dTUomK8mmxH0weUnA99BLhN3IyiY7mw1kAoXpTzPt+ql+MJCQqrWKZ7hx7+A94ex7sb6XnyuAlStn8s28P8AYn8gxMLFXL+Un7GAvNbLBc528MFP6BEhqLynUH9SSk8jQE1n+jX/5VkshfQf4QoFtwvhgD+Zq99bHZTarbi5gHy6XRqs9ju1nD8bPolVImj8UtZawhNJBY8q0R1fTFGU2LZvJ1qpBIOpCH7co+Sr/wHFUOkOcIFVEwAAAABJRU5ErkJggg==;" vertex="1" parent="OYDcvir6wLGYqZr8SC8--23">
          <mxGeometry x="12" y="30" width="134" height="133.48" as="geometry" />
        </mxCell>
        <mxCell id="OYDcvir6wLGYqZr8SC8--9" value="" style="shape=image;verticalLabelPosition=bottom;labelBackgroundColor=default;verticalAlign=top;aspect=fixed;imageAspect=0;image=data:image/png,iVBORw0KGgoAAAANSUhEUgAAAQAAAAEACAYAAABccqhmAAAAAXNSR0IArs4c6QAAIABJREFUeF7tXQd8FNX2/u7sbrK7SehFICSbgJSQbIAoGhFEEASpovhEKVIsIPpARaxPwMJDEHk2xEKxgfpQxPbsYIE/CEoSBEEgG5rSpITsbpLduX/vkmjAQGZmZ2Zndu/9/fih7C3nfufMN3fuPfccAl44AhyBmEWAxOzM+cQ5AhwBcALgRsARiGEEOAHEsPL51DkCnAC4DXAEYhgBTgAxrHw+dY4AJwBuAxyBGEaAE0AMK59PnSPACYDbAEcghhHgBBDDyudT5whwAuA2wBGIYQQ4AUSb8rt1s+LAAaHqtJy2knYiFRNBbfGCJRgfCBKrFSCUECurRygNBABqBS0TCUpBaJkoisdaBmtt3VzZkcNBkZREsXJlINogi+X5cAIwo/Zz0mvbg2JdkYhOQURHQEgWKOyUwA6KbgAagsLx59QIagGwVPxh5MD0XvmHVaNV/gQBiAANgJLiP/sQaAkoOQiCrwmFn4KUAOJOMWDNI/FiuUMgR49s2HnMjHDGssycAIyqffYmL91uc5TQ+gJsmUGKcwih3QFSRyRIsYhIowQ2AHEAKh9qPWdDARoESDmhKKcEOwHspqC/ESp8JlIcswnCxhMJpcVI3lOGt8GIhReDIcAJwDgKEZI6Natb6iNNLcTagxAxG6LQiRLUAdC44u1tHGlrlIQGALKPAsWg4rcCIfmiQD6KD4rHjhXsOlJjc15BFwQ4AegC8xkGychItFtONBJg6QHQiyjBJQAaAEisWKJHUjq1xxYBHAfFbxTiKhDyPYAv/V7bPmzfXqr2YLw/aQhwApCGk3q1MjLiEuDNCNgwVKChJX1bAHbzveHDhiRIKEooQR4oXW4h4qcn8nf/VLEXEXbnvANpCHACkIZTeLW6dbMmHN7VNkDEiwVgLIB2AOLD6zSqWrNNSB+AfALycoDSb8vaeH7h+wba65gTgFYY5zR1Jojx54oUvSDSoQBagiAptN8elYWZkmqTOwrgR0LpMhH0Y78vbi//TNDGaDgBqIyrvUNaKgnSXEIwmlKcD6B2FH7Pq4zaGbtj+waHAawG6Ksgwf/z5e3Zq9fgsTAOJwA1tNy6dZLT4e+KIBlMCS4H0AgIHdHxoh4C5QD2gZJlsATf8R0VNsDj8avXfWz2xAkgHL27GyfYqX0gIeQOAFkVZ/Lh9MjbSkPASyi+Behcb2JwJdbsYfsHvChAgBOAAtASO7RsKAaDF1JgCiBeAJx0qeVFdwTKQbFatNBZTovlW+6JKB9/TgAyMKuVkVyv3GodBmACgBYVHngyeuBVNUIgCNAfQegsnzXwATbs82o0TtR1ywlAikrZjn553BBKcTclaMMffCmgRaROOUDXCwEyvaR2YBX/NKhZB5wAzoaRu3GCE84eIuh4gtAlG352X7NNGaFGCfMyJAKd7z1KvuCbhWdWCSeA6rDJaep0BKz9QIVbAXSq8NQzgmFzGeQhUALQryjoXH+9XauwEvwq82n4cQI4FRDBmZnekQriAwCu4Ed58p42A9f2AmQRhTjbn19UaGA5dReNE0Al5O7GCQ44bvzDl20qOem8Y9jC/O244hSp5yClmOInvreQv599JsR84XYEEHtWWhdC6CMAOvMNvqh/JkSAfEWIONmbV7RRTf9lMyIXywRAEjLTGokCJgP0JgBJZlQgl1khAhS/ApjlixMWIIYjGcUmAWRkxDkt3j5BgqkC4OZvfYUPkfmbMffibwDc72vt+T4Wbx/GHAEk5bRqECgru58SjDL6t775ny/TzOAgoZhnKS9/qvjnvezyUcyUWCIAIS4rvZ2FBBcApGP0vPVVvYYbM4ZfzUSDIHStSII3lG7csz1W9gZigwDYDj91PACC2/747kuIZSvnc68BAbY3QHCnL9+zNBZIIOoJ4OT9fLwM0EsN+9bnL3GD8RI9QQmd5bcGZkf7vYJoJgDiyE47H5TOBZBrMAvj4miMgAq+EiwYyZsWi/WfJ37cflBjcSPWfbQSALFnpwwjlMwBCIuyy4sBEFDhoYzELPIJxb+8BZ4V0fhJEHUEUKe9q04pxb2goSu7zkhYDB8z6hA4Sol4m78k7u1oi00YVQSQ1KpVg/L48kWE0N4xGGY76p46Y02I7Qtgrr/E9kg0kUDUEIDD3SwZsL2Ck9d2IzCvWN7Ji5m5l4PS533F5O5ouWIcgQdFfV53ZKZeBIEsAnCu+r2bv0eTfnsbFXhKKX3JH2eZHA0uxKYnAIfbdQEAdmbriqTF8IcskuhHYGyC1SIlo0vzC7dGYHTVhjQ1ASRkuy4XRSwEQRPliERu+cpJQ7nWjNCSAFsgCCO9G3eyPIemLKYlAKc7rT8FfRlAQ1Miz4WOCgQoUGARybCSTYX5ZpyQKQnA4U69CiDzAdQ3I+hc5qhCgILSjRaBDj+Rt4slNzVVMR0BVLz5F/KH31R2FgvC/iiKwSGlm3bvMNNkTUUAoW9+ildjfdnP9w4M+ogR5IkkMKR0455fDCrh38QyDQGEdvsp3g1vw88sauFymhiBjWLAMqR08w52pdjwxRQE4GiX0hmC8BpIZI/6DK/NGBJQt1WQskOiDUIA/Uo2e34zukoMTwAVHn4rK1JxGR1P08un24NleqTOOgFKKf5rt+Cmoxs9R408VUMTQFJO0waB8ri3ALC7/LxwBMyEQJACL/qPY5KR3YaNSwA56bXtZfR1QihL0GFcOc1kklxWvREooxQP+dt4Zhk14KhRHyziyE6fASrexW/16W2zfDyVEThKKRnoLyj8WuV+VenOiARAHO6UqwCBXe4xcfw+ZbtHqmhVUidGl0/SJFStpOH+x34SFPp7fzKey7DhCCA+s3kLQbB8CKC1qtrlncUeAsbiuB+EAPoa7WTAUATgzEltQsux5I/UTZfEnrXyGUc7AgT0cyIK7N7AfqPM1TgEMAQW59a0+RR0NN/0k24eTRs1RoIzAezciZAKdbK1LCuV/1v5W+W/V/ntz5FO+61qf/sPHcTxE8XShaocnhA47Y6/5JLdg7QGPr8PQZHF8DR8YXkJn/S1LpxilE1BoxCAYM9y3U0IpvOU3PKM+Plpj6NP1+7yGsmsPWXWw1j60XsyWwGJzgQsnDEXzc9pGiKjEKlUslLF8pziJHH9+VulRVKg2t8qiKryN39pKSZMvxebfjHNtfwSSunN/oKiN4wQZNQQBBCXlZ5lhfgtJagl28pivMGSOfMwsAcLgahdGT/1Hix6903ZA9RKTMLqpe8jvXmq7LZSG/hK/egzdijW5bNEv+YohGIzCaKHEfYDIk4AiR1aNgwGyz8CyHnmUJ+xpFwy53kM7HG5pkKNmzoFi99l/ljyCiOANW9+gLTkFHkNZdRmBNB7zFB8X2AeAmDTo8Abfq91dKQDjEaWADIy4hwW70wQ3G7YrD0yjDESVfkKwHwrgAo7KaMgt/rzC1lQm6o7MLqaUSQJgDizXANEgsU8S69ynetCANPuwaJ3+CeAci2doSXFr4IFV5Rs9ERs+RIxAkjITGscEOj/BKC96sDGUIe6EMD0e7BoGScATcyKYqUvrqxvpHIQRooAiCMrbTYInciX/uGZlS4EoNoKQH1fOzNuAp6mcZEQ+pg3r+jB8CxBWeuIEIA9K60rIfQDAEnKxOatKhGQRQAKn7/xqhGA+nqLAgJgGwDHiEiv8G0qWq0+QmfvUX8CcDdOcMDxMYAuek82GseTRQAKAVB8DJiUhNVL+DGgNNjpB76E4DVYs8cnrb46tfQmAMHhdrEd/yf40l8dBfJjQHMeA1ajfR9EjPJt8rDzVt1OBXQlAGdm+nmiIH7Od/3VefhZL4ZeAXBHILmK3grR0tO3acduuQ2V1tePAHKaOh3lcUsADFAqLG/3dwSUE4D0DQG+B6Cb5VFC6SPe+kXTsRIBPUbVjQAc2SnXgAqvRZWvvwGumyonAOnmxQlAOlbh1iQUxwkCF5cU7CkIty8p7fUhgJMbfx8B6CpFKF5HOgKcAEzrCXhGJVMqzvcX7BoPQPMrjroQgNOdNoCCMk8Su3TT5jWlIMAJQHsCkP6xVJ3GFC0TjwYpcssKPD9LsYFw6mhPADlNnfbyuHcIoO2NlXBQMFvbKjb1xpx5GBTLtwH9fvS50Vy3AaWYGwF52ZtfeKPWJwKaE4Dd7RpJAJbIM17KxHkdeQjwY8CoOQY8XfFeQnGdt8AjPxCDDBPSlABqZSTXC1is31CCDBky8apVEKhp+anLJwCPB1BFI4qW9IpsmqUetwvoqmVyEU0JoMLp50nu9KNI/5Ia6UIA3BVYki40qBQkFLd6CzxsBa1J0YwATgb6CHwH4FxNJOedhhDgBKD9JmAkTY0CG+wCLtNqFaAZATjdaf0p6HL+9tfWfDgBRDcBAPQEBNrbt3EXe5mqXrQhgNC5v/MTgHZWXWLe4SkI6EIAfA8golZHgMXegPMmbN5cprYgmhCAw+0aCtBXAGJVW2De36kIaHMKcOrWI48JGHGr+x3AFb58z1q1JVGfAFo3SHLEJXwJoiTIp347rGoDGan+Yt4PwIRRgZXYCqFY4I2rfws2bChX0v5MbVQnAGf71L5UJO8AiFNTUDP3VdNRXjhz0+UTQO9TABmARUNAEIn6PyyKwQtKN+3eIbG+pGrqE0C2awGlGCVpdF4pbASMTAAsMchbc19AStNmoYQgYihD0alTZs+6wH5jCUJOQyP0G6loV91vIGAEMPq+ScjfujlsLI3egUjphNKComfVlFNVArC3TUslNsp2K5upKSTv68wIGJkAWMafpIRECILA0gLhb09/5bTC+Q1AsbcEwWAwBsyErvd5bRermUtAVQJwuF3XAvRVvvmnny0amQD0QyFmRvJbYDn/RP6OTWrNWD0CyGnqdAbillOKnmoJx/upGQFdCEDhMWDN0vMachFQ+5KQagSQ0CEtWwzSlQDqyJ0Ur68cAW2OAU+VR+kxoPJZ8ZZnQeCAEEC2WnkFVSMAhzttMkBn8tTe+hovXwHoi7cBRmOJlMf4CzwL1ZBFHQLo1s3qOOxZB4IOagjF+5COgC4EoPAYUPostKoZtX4l63z5ngvUQE0VAkjITHOLAv1W+0QfUatQxbrkBKAYOtM2ZHEDBWLprMZmoCoEEO92jROA50yL6N8ENw/RcAKIHquTMxNCcbO3wPOCnDbV1Q2fAFiKb6t3DYCO4QrD28tHgBOAfMyioQUFvvHb6vcI1zU4bAJIaO9qL4r4Px7yKzJmpQsB8GPAyCj37KMeEYlwYWnezm3hCBc2AcRnu2YKFHeHI0S4bWW4joc7lCrtbTYbrBYLrBYrkhISkOhMRL06dWARLCed5ehfuaFEUcTR48dwtPg4ir0nEAiUo6w8APbvrBj3GNA8n1GqKFX3TmiAUEz0hukaHB4BhO7921cCSm7+6Y5YRAa0WCyonZiExg0aIrtNO7hbZ6CVKx3NmzQN/ZvT7oBABFgswhlPUINiMPTAHy8uRtGve/CLZyfyft6MNRs34F/jJ6F31+6azk1pclBNheKds7fEWz6fdUQ4rsFhEUB8ZvMWgmDJB+Dk+vgLgTibDanNmqPHhRejZ+euaHduGzRp2Cj0hg/5xSstVZY67DC4PBAA87e3WbUNu6A0MxDD4arL+6FWYtKpdwGY739lYUueP+8CVFn6hCzzTL9VmC2lCIoiVnz5CQ4cPqQU1erbmWEBQ+h2qzU+t3jDNsWTD4sAnFlpN1JC5wGwqIu++XqLj4tD8ybNcOkFF2HQZX1wXmZ26CJMNBSlBMAe/NVLNU4PHqV5AaTYDTsOFC0Y6N/oYR64iko4BCA4s1wvURLbV3/r16mL7rkX45reA3BBdkew/2dv5WgqhiaAGAkIciZ7IsB4b77neaUJRBRbalKbZvUDcbZ1ANKjydilzoW93fpe0gM3XTsc2a3bwR6vQd4Tg+xucgKQahWRqEc/8B0nQ+Dx+JWMrpgA4jJSMqwWYQ0lqKVkYLO2sVlt6HdpT/xzxNjQph5b+kd7UboJqNcnQO8bh+L7/I3RroZq50eBn6wW66Unftx+UAkAignAkZ12GyidGythv9myPqtVWzw04U50v7Az4uM0eOOfScV/i5WjRNXK2yi9DcgIYM2bHyAtOUX54DW0ZBGBeo8Ziu8LYpMAALAYgV2UBgxVRgBDYHFuTZtPQcdoplkDdczO7K/rNxgPT5yChvXqG0gyfUQx9ApArz0AA58KVLgFv6hkH0AZAeQmO+wllnUEJFMfE4zcKAlOJyaOuBF3jRmn41s/cvOtbmS+B2AsfYSOR5m3WGUh5HVfq8KReBuy46IpIgCHu1kyYGMxyptGEhqt98jSm6fi0Un3on/3niFnnVgtmhOAYkVS+EpL0Wds9KUHl2VrBKt91rKe2LDPK6ud0uAdCW5XbxH4IFrP/9n3/oXZHTFrykPo0DYz6o715BqJ5gQgV6Aq9WMoLPjZUCoFylv68vfukQulohWAPcN1A7FClYgkcgXWuj57+LuefyGefWgG0pJTI7z9pvVspfXP9wCk4RTJWgQ0x5tf9INcGRQRgMOdytJ+DZc7mBnqMw++RTOfQrqGO9dh46B4yaxsZH4KoAw3bVudug9Agfv8+Z4ZcsdUSACuFQD6yx3M6PWTz2mCd55egMxWbYwuqq7y6bMCkMNqf9XlnwCVpkBn+fKLZN/KlU8AOem1HQFxFSiyq7dCA5+XnOWxYRdXnp/2OK7tO0jXh8sMg/E9AONriVB86i3w9AFw8p64xCKbAOztXS4hiLxo8gBkN/TGDR2JGXfcB6vGN+sk6sVQ1TgBGEodZxCGHvLZGjSVGyFINgHEdUjJsASF9QAcZoBFioyXXtAZr89+FnVq1ZZSPebqRC8BRG61KueDR6LBFftK45th69ZiifVD1WQTgD07bRihdFG0HAGe06AR3nlmAdq3bScHt5iqG70EYDA1hsdH5RRiH3/+ri/kzEoBAbjuIRSPKSEPOYLpUdciCJh2+92YOPLG8AJ1nFFYDXheD2BOG0OfTUBlE+ObgH/ipihhiGwCcLpdU/+I2/KQMnVJaBUeC0oY4K8q7MiPvf0b1K0nq51WlZkGA4EAAsEgRCqGUmpXFuafwMKLWa0W3b0Sx0+dgkXvviV72vwykGzIwmpACMZ580KxASQX2QTgyHb9GxRTJI9g0Ips13/+9Fm4ps+AiHn6iZTC5/fht0MH8e36tfhhcz5+KSrEvv37ccJbcgpyTrsdDes3CN2s65iRhdz2OUhv7kKtxETN5ecrAIMa8eliEXqXL6/oCTnSyiMAlgLsdw/LAKRKWiI5gqpd96IO5+Gt/7yIerX1z2VaWlaGrYXb8e5nH+Oz71Zh845t8JeWypoiWw2kJ6fiuakz0LljJ1lt5VbmewByEYtQfUpX+QqKuskZXR4BnEwCssXsUYBYEI//3P8IRgwaIgersOuyN/6WHdvwwpuvYfnnH+Pg74fD7lOXvAAKcwPqEhBEr+vAYWtKhw4otvkKPK3ljCSfACxeDwiayBnEaHVbp7XAxy++gXMaNtJNNBbB982PlmPG/Kfh2bsb7HtfjcIJwM9vA/5lSPt8+Z5mcuwq5giAbaZNuH4U/n3XA5p/O1cqgi35H503F/OWLEKJzydHPzXW5QTACaCKkXACqOmJYcE7V8x7BRfnaPvdXClHWXk5pj49C8++vjAUx1/togsBKEwNxj8B1NZ2jf3t9eV7kmusVaWCrBWALTu1g5UStglo2kQgqU2TsfG9L3QJ5hkMBvH4S8/i3y88rcnDz/RotNRgVT0fdD0G3LTxlCA5ch6CKKpbIgRJ55KfCvOkzkkWAdjdaV0I6KcA7FIHMFq9W4aOxJx7puoi1v+++Qoj7p6AE17ZgVoky8dXAPwToIqx+CGIl/k27vpOqgHJI4CslMsIET4CYJM6gNHqLX9uIXp1lnVSomgKh48ewZUTRmO9ltFqCbDkiXkY2KO3IhmlNuLHgFKRini9MgrxCjnuwLIIwNk+tS8VyXtmvQfAzvwLPvgKdWtpe/bPdvgXLFuCO2ZMRXmARW3WruiyAuDHgNopUN2eg4TSAd6CIvaSllRkEUBclmugheAds+YC6NbpIrw3bxFYcg8tS3HJCfS/eTjWafn2r5gAJwD+CVDFlsUgxeCyAg97SUsqsgjAmeUaRE8SgKx2kiTRoRIL7/3YnfdpPtI3G9Zi4Lgb4C9VlK1JlnycAMIjAC2ua2nRp0SjoIRisLfAs1xifXkPssOddjVA3662cx0v8Uid3On1Xnn8aVx9eT+lzSW3m/bME5j54jOS64dT8Y058zBI6z0AIx8D+v2I5dRgf7cdMsSXX/hfqTYl601+VgKQOmKE6jHf+e//+z+0SW+pqQTsrd956ABs2fGLpuNUds4JgBPAqYamIQGY+ROgaaNz8N2SFWjcoKGmD+ZPv2xF95FXg+0D6FH4J0B4nwB66EjHMbT9BDDzJqC7dQY+XfBm6PqsluWtj1dg1L0TVfP1r0lWTgCcAKrYiNabgKl9KCHvm/EYkMX9Yz4A1Z8AqLdtc9+cxzB3McvTeLKo13P1VMAJgBPAX5ZBA4SCHQN+XNOLo/J3WXsAdndKD4KQI1Cc1AG0qif3wbqqV18snvmURqG//prl4AmjwTwA9SqcADgBVLG1Mhqkvf0/FUk2QHkEkJ1+MaHiZ2Z0BR475HrMvW+6pgTAfP/Z97+euep1IQAjnwKoGA9A7ktFL5KXMY4fQfEy308auQLHZaa5LYL4HUC0/ZCWMWOpVSeOvAmPTJqiaTy9Ep8X3YZdiZ+2b5MqVtj1jHYZqOqEdL0MpIPTVdjK0rwDesJCbBeeyNv+k9ShZK0AwCIChREQJJIMO+22ybhrzDhNYwCUeL24dMRgbPplq1T8w67HVwD8E6CKEWl7HThcAgjb2sPoYNrtk3HXaE4ASiDkl4GUoBaRNsYMCBLJN3+lGsIhAKnyR+0KgF8GisjTrGBQjVcAOTk2R/lh9n1xrgLhItokHAKQKjjbA7h0+FXY9MvPUpuEXU+XT4CoIgD9fNalvjjCNoKKDgjoFm9+UYac/uTtAZwMC/41gFw5gxih7m3DxmDGnfdpegrArgGzU4C1eT/oNmVOAHwPoIqxfeXL93SXY3zyCIBlBDVpYhA9jgEZ8MMnT8CyTz+Uo4Ow6upCADFyDBiWIozQmNA7fXlFc+SIIpsANE8NJkd6GXWv7HkFXn38aU1XAEycx/+4BTj1GVnJWWTM4u9Vz3YMqNYSdNzUKVisRWowFQRkuQF7jxmqq+9FWArTsLE+qcHcaZMBOtNsMQFYMJDlzy0CSwmmZfl89dcYdOsoiKKo5TB/9s1XAPwToMIYRErIDf68wlflGJ7sFYDDnXoVgKUAscoZKNJ1s1q3xWehy0BJmopStG8Pulw3EIeO/K7pOJWdMwIY0KO3vMAOMiXjx4AyAYtM9TKI9FLfpqLVcoaXTQDxGS1aCtZgPtsOkDNQpOs2bdQY3y19H43ra3sdmLkD971pGL5e/3+6TFmXFUBUnQLoopZIDFLs81obYvt2WUkmZROAvUNaqhCg+ZSgViRmqXRMq8WKH5d/hhYpLqVdSG733BuLMPnx6bpcCTYUAZx2wsYTg0g2GTUqHvTZ6jfDhg2yotDKJoC6Oem1/eXiSgDt1ZBazz7eeWYBene5VPMhf965HT1HXQMWGlzrYigCOG2yUUsA+rkSSDYfCvzPn+/pC0DW5pNsAmASOdyuFQD6S5bOIBXvv2Ui7h/3T82lYaHAb51+H15fsUzzVYAuBMCPATW3mbAHIHjcl+eZIrcfRQRgd6e+QEBulDvYmeqrcBokSZQeuV3AVgE2q4z9S4XC/bhlEwbfOhr7Dx+UJJvSSsa9DUhC0ZfWvPkB0pJTlE6vxnb8GPBPiCb58j1zawTstAqKCMCRlTYEhL4ld7BI169bqzY2fbgK7G+tCzsGfGz+U6G8gFoeCfIVAD8GZLYsEqF1ad5O2ffQFRFAfGZaT0EQPzLbUSAD6sMXXgMLD6ZHYUeBI+6+DavWrQENBQdTp1RdlOhCABqeAihcYP0JJFsB9Bk7FOvyN6oDrjl78YIEWvny9uyVK74iAkh0t2gURPB7ANqt7eTORGL9O0bdjEcm3iOxdvjVthbuwNA7bgHbGNSimIIAklM1SyXDCYBZFfnC57X0lXsEGGqpyChzkx32EutaAmQpah/BRiw68Oql72vuElx1iux24LiHpuCHzQWqbwqaggCap2qmcU4ALPIsfc3XpugGvI2gXKCVEcAQWOxbXE8TAePkDhjp+g67HZ8tfAsdM07nrnAXo2ef2YHDhzBn4XwsfvdNHDtRrBoMuhAAPwVQTV9adESBG/z5nlcqglDLGkIZAbCooFkpNxIizDNbiHBCCG4bNhr/vusBWUCpUbk8EMC3G9Zi3huLser7NTjhLQl7RaAHAWh2GUgFUPkpALyEil29Bbs2KIFTOQF0SEslQcp2XjTNtX3qe1kdD4yWKS58/NIbaNa4iRLMwm5TWlaGgm1bQteG2eUhz97d8PtZQFdZPhxg3o2vz34W/bv3qkYm9VY04xWuAJo0bIxv3ngPzA1bq+IzVW5Adez3NCx/cHitl/6+fftxJRgrJoDaWSl1y4nwHQXaKhk4km1sNhsev+sB3PSP4ZoGCa1pjiIV4fX5QgSQ9/Nm/LzjF2zfVYj9hw9h/6GDCIonP+nYqqVh3fqwx8eHSKth3Xpo3qQZWLqzrudfiIb16tc0VFi/K70MlHxOU3zzxnJN71/E/B4Awdu+EutwJRuAyjcBK8zJnpXyPCHCzWFZV4Qan5eZHXIKalC3XoQk+PuwLKIQ8xlgR4ZU/OvgkLE0IwG2Zcv+Zn8EIugmNycA3aCWPRAldIw/r2iB7IYVDRSvAFh7uzt1DAGZb7Z9ACZ7fFwcnn7wMVzff3BEVwFKFadnO6UEwFYp37y+HI3qN9BM3FheARAtjsgkAAAWGElEQVSK4yIwwF/gWaUU4HAJIE2gZKPZbgZWgtXu3NZY9tRLSGmarBS/mGinlADatjgXK199F0kJCZrhVC0BaPKprdkUwun4Z6u9/OLidXsPK+0kLAJAy5bxDmeApQrrolSASLZjS+kbh1yPmZMfDK0IeKkeAaWbgO1atsZXry5DolNnAqhBkeptj0bWYgiw2FvPNRYrVwaUShIeAYSChKbeAUpmK3YqUiq5Su3i4+Lx1P0PY9jAqyV8CkSL6cgDT+kxIPO1YARQfUZmeTKcqTZbAVw+5lqsL8hTp0Pz9FIG4AZfvmdJOCKHTQCJ7uaZQVjW/hEP0xmOIJFsW7d2Hbz9nxdwUYfzq4gRmw97dXpQugLIbX8ePl/0lgRiVa595lTF8jEyl+uYKpQeFKmYW7ppd1gTD5sA2Jvf4XaxOGQXmlkBLFLQRy+8Fjpe4+VUBJTuAfS/tCeWzn1Bob+5NC0cLT6OrtcPxPYij7QGUVKLUvKFv6CwpxLvv6oQqEEAcLpTx1KQF82O7YDul+OFh2dpHjjUbDgpJYDr+g3Gi48+wQlAA4VTitH+As/CcLtWhQDislxtLARrwvUKjPSiWxAEDO13Jf59532oX+c0/4BICxeupsNor5QA7hx9Cx7+p+wgNadIWhPsvx87gtx/9MPuX/eFMUPTNT0ikvILS/P2yr7/f/pMVSEADIHFsdXFTgO0D7insa4sFguuvrwfHrvjXjBXVl4ApQQw6+5/4dbrR2kKIfOYzBncC78fO6rpOEbqnAIf+/M9V6ghkzoEwHYAs1JvpYQ8BUA/FzU1EKimD7YSuDinE2ZPeQiZ57bRaBTzdKt0E/CN2c9hUM8+mk7014P70WFQTxxX8YalpgKH33kQBNf78jxvht+V0ngA1Yxsz0pJJ4SsBYh2bl8yZ1zT8rGm7pjfPQsiOrTvlTHtJ6DkGNBqteKTl5Ygt8N5NcEc1u+7f92LNn26hH2rMiwh9G282xcoycDmgyfUGFa1FUCFUxBjpYFqCGaUPiwWAYN79sWjk+5F8jmRuT0YaSyUrADqJNXCF4v/C+YNqGXZsuOX0CdAzBRK5vgKCu8Kd/e/Ei/1CCAULpylDSPMMUHbBHwR0DYz5Gm3T0bPi7qCOQ/FUlGyB9Cs8Tn45o0VOKeBtpmYvv5+DXqPvS5W1OELUnQsK/D8rNaEVSaAZsmA7VsA2sWAUmvmCvqJs8Wh18WXgKUavzC7Y8wcFyohALZ3wmIBaO1i/dbHK3DDPdrnelBgLuo3IVjtK7F2V3r1tzqBVCUANoAj2zUHFJPUn71xenTaHTg/qz2G9OmP3l26o0nDRpp6u0V65koIYEjv/lgwYy4sgrZ7wk+/+jKmzH4k0hDpMT6lAh3u31j0upqDqU8A7VM6QxQ+NbNrsFSA2YqgZaoLfS+5DFdc0gNZrdrC6TBVztQzTpXFJmBHa3v3/4Zpz8zGx19/KRWWUL1HJ92DiSNvOoUYw92UrU6Ae2Y/iqdefUmWbCatXAQS6Kwk9PfZ5qs6AcDlsjuT8B4liJmdGXZsyG68sQw43TpdBJaBqJO7vWk+EVhkot8OHsDO3UXYuXsXNv2yBT/9sg1sh/3wsaM4Xlz8Z3QiKQ8P2yN588nn0eviblKqK67DgqeMnHJ7KLRaVJYq15opwUx/K8/9SiL/6ksAABLcrt4iwPIHRmwzUIu3jRQjY1eM42y2UPah9m0zcWH7HHRomxlaHSQmJIQ2EGWlJpMy6FnqsHTlgWAQLF9hWXk5fj2wH4V7d6Fw9y4U7duDLTu2YceuolCk4tLSUpQFykNHauyP0sJClH23ZAVYSDAtC4ut2O/mYfjuB5aiwqBFndgEvwUR7FmWv3uT2rNUfwXAJMxNdjhKLB8D5BK1BTZjf4wUrBZLKIZfy9Q0pCU3R+u0lqEVQ9PG56B+nbqIs9pgs1lDob7YioLFLay2UKCsvCyUZ4g9pKH/phTl5eUo9pbgwKGD+PXgAew7sB/7DvwW+nPo999Df/92+CDYQxPuA16TDlicwuXPLgrFMNSylHi96DSkDwr37NJymIj3TUFf8tsajJeb+luK4NoQAAu51T61ryCS98wYLkwKcGrWYeSQlJCExARnaNecRftNSkgECwNYtbCXMosUeKy4GJSKCAbFkAcciyZ8rPh4WG9ttebDyO7+cRNx7023ab4xevDIYbTq1RmlZaUV4qvzulULCzX6YWG/KGhvX0ERu2ujetGMAOrmpNf2l4tfAMhRXWreoa4IyPmcSnA68eH819DJ3UFzGdfm/YAeI4eA7WH8VSJAAloOSbHSFyzpr5bn3+lK0YwA2ECO7JRrQIXXIrkXoLkV8gFOQYAdj77//Kuh1OBal5f/+wZuf/gBVROvai2zzP7LINKhvk1F78hsJ7m6pgSAnKZOR7ntc4DkSpaIVzQ1Ag+On4R7dFj+M5AmzfgX5i991dR41SD8177juBwej1+rSWpLAOxEIMPVW7Tiv+w/w5qElsussATjjSsRYCcfn7y8FJmt9LlB2W34YKzL/zEqFUApjhGB9PLlFa7TcoKaE0BybrLjcImVXRLqr+VEYqZvAxPh1b374eVHn1ThmLPmXYcjx47CPaA7Dh89Ep2qp+RZX0HhbWpd+jkTSJoTABvY2T61LxUJI4HwVgGmUrWBn1QNcGQekO8+sxBdzrtAg97/3uVn332NaybeGDrWNG05o4nQQyKxdC7N2xl2xJ+asNGFAJh3oKMWfRsg/WoSiP9uTgRYFKWXHn0CzD1aj3LfnBn4zysvGuLoU/X5UvzbV+C5H4C8bLEKBNGHAEJpxFJ6EAjMO9C04cMV4BsTTZiD0/vPv6L53f9KMEt8XvQafS1+3FwQjfjupaBd/PlFhXpMTjcCQDdYHb+n/Qeg4/WYGB9DHwSY2/OT907HDYP/obnjT+WM2Pn/wPEjcfyEKkFx9AFK2igioeQWb0Ehu92k3Bdb2lihWvoRwMlkomkEWGeksGEysOJVT0OAef2xKMrPPPgo7PF2+fjUvNdXbZ/TnnkCs15+LpRJOboKXW8LBC8/vnnP73rNS1cCYJOyZ6eOJjSUQ0Dbi+J6IajmOCbbN2SBU199/Bk01jjqT1WI2a7/gHEjI7D811w5JYTSa7wFRR+paVI19aU7AcDdOMEB53sA7VGTcPx34yKQ3aYdXpn5FM51pesq5PLP/4cx90+Czy/FN0bzh1a1uYvAO6XHcb2WTj/VCas/AbBdwOzUDlQkH4IgNqNsqmY2kemIXW2eN3UmOrbL0lUAr8+HUff+E+9/xVJQREk5yVF7BRroU1KwR/ddzYgQQCifYJZrIghm8nsC5jJkFuPg+Wkz4W6dobvg325YiyG33xiKXRBFpYxQcYK3YFdEUutFigCAnPTajnKRXXLoHkXKjNqpsNh+fS/tiRl33BeKY6B3YQ4/Yx+4A8s+MUf0H+n7m3Spz9ZghBZ3/aXoKHIEEAoj7mIZhZlvgLaxo6UgweucEQEW7uyOUTdjwrDRodBn0o1bAqgSO1v9w/fod8sI+EulfPtLGNcIVQjdTgTxEu+PuyOW2DCiBMByCjp/dv2LEjCvJ4sRdMJlOBWBjBat8PjdD+KS83PB8iZGonj9Plw1YQxWfa9JTIxITImNWQqQYb78wmV6nfkbZhOwqiBJbZrVD8TbVoDiokhpgo97KgLsrVArMQkjBg3BnaPHoVH907K9SXxrq4ErC1/2/NJXMPnx6dF07k8JxSveoPMmbN4c0csMkV0BVFhIfPv0c4WguIqfCqjxyITXBwtFxi70sCX/RR3OD68zFVqvL9iIQbeOiq7svxRrrXFx/Yo3bDukAkRhdWEIAgidCrhd1wL0BYBoH0omLMjUaazkJaqkjVRpWcTiS87LxdhrrkPX83LhsCvw7JM6mMR67MrvdXfdilXrVktsYYpq+ynodf78oq8iufSvRMooBMDkIfZs14OE4iHuJaifIdvj4tE992Lc/I/hoUy+bJPPCIVFO37oqdl49vUFobDmahT1CVS2o1EQFJN9BZ65Rnj4Qw+dGsCq1kcohFgcuwgxVLU+eUdnRKB2Ui28+MhsXNqpM1gwT6MU5uP/6ntvY/Ksh3GipMQoYoUtBwEWexMC47Bmjy/szlTqwFgEACCxQ8uGwWDgcwBulebIuzkDAiz3QK/Ol+CfI8aG3v4WQfkuv5pv12/Wr8XwuyfgwOGIfyKraDv0W19CsJeRHn7jrQAq4HZmuQYBWEwJaqmoAd7VGRBg0Xyu6NoD46+7AedlZsNqtUYMq807tuHaSbdguz7X4fWa5z5CaD9vXpHhAhgabgVQoRFid6feS0DYfoA+IWb0MgUDj8PSluV2yMH1/QfjstyuYCm+WJYiPUogGMCHX32Oe554NJSyLIrKPhIUBnl/2mnI/GVGJYCT6cVOWGaCEBZARPnaVIElqbmcVTB8xJuwe/7tWrbGyCuvwcAel6Np4yYQTk9TpKKUJ7wlePb1hZizcD6KS6InyAfL6iOCjvcXFC3RI7yXEpUYlwDYbHKTHXavdS6huNFwG5ZK0DZZG+b518qVjmuvGAQW8dfVrLnqUX9YstJpzz6BpR++F8pzGEWFJfW4z9e2aK7aGX3VxMjYBMBm2rJlLYcj8DkIIu+VoibyJuqLEUFy4yYY3KsvRgy6Gq3SWoZ9fMQ8/NZvysP9T87A6h/X6+TlJ/vYTqmWKAhm+az1H4jUJR+pghufAFii0ez0VoIorgBBa6kT4/XUR4B9GjSoWw83XPkPjL3mejRXmP6b3ex7bcUyPDpvLn47dEB9QSPf49cJpfH9Dm3davh7y6YgAKbPUBARSt4H0Czy+o1tCRgRNG3UGGOuvg7DBlyNZo3PkfRpwM73C7ZtwdSnZ+PzNd8gqJKDj7G0QTfQcuEq/5bCImPJVb00piEAJr7dndaFgC4E0MIM4Ea7jIwI6tepi4E9emPYgKvAIgWxI8XTS1AMYnuRB88vWYylH70XSmUehYXtHa+kAkb7N3o8ZpmfqQggtBJol34+tYgsIyT/HDCQlcXHxaFbp4twy7Uj0LljJ7C7BSKl2Lf/Vyx+9y28vGwJfjsYlct9pgUWnvgDQSQ3lWwq3G8gtdQoiukIoMrnwFIArWqcIa+gKwIJDidy2+dg2MCrsWOXB0s+XI7C3UUIRl0I7z9hpaB4X7Dj5pLvPb/pCrYKg5mSANi84zJSMixWge0J6BuWVgXQY6ELljCEXeKJvtj9p2mP4kuBkuvM9uavnIVpCSBEAu4WmRYEGQm4YuGh4nM0FgIU2AABV5vpm/90BE1NAGwyCZlpblGg7/KVgLEeDl2k0e1Y/2+zYRt+39ByMsIsu/1n0ofpCSC0J5CVkkOJ8AyATn/GEoiccehi+3yQiCFQBoK5Cf74R8xwzl8TSlFBAGySLLZg0GaZTYkwXO+7AzWBrN/vnPW0xJr59lNKp/viGzxldA8/qThEDQGEJswuEHktD4OSCcyBUCoIvB5HQAIC+yghU/ytCpcY2bdfwjxOqRJdBMCmlpNjc5QfvvqPXAPPAqgrFxBe35wIaHyDcx8IudKXV7jeqLf6lGot+gigAgl7VlpXArqURxpWahrmbacuGdBvCcHtRgzmoYaGopYAGDhxmaltLQKZD+Bi7a8Tm+n720yyqmHmivoIEuA1o8XwUzSTszSKagJg83a4WyaDBuaAYIBe+wLqvoHUVjnvTwIC+0Ex05cYeN5oMfwkyC6rStQTQAgNl8vurI2RlGI6gEayEOKVYwkB5ta7jhJ6n1Hi9msNfmwQwEkUSbw7rRUBnUOAnjwtudamZbr+Swmw1GKLu6t4w7bDRonbrzWKsUQAJ7FkuQdK48YSgod51GGtzcuo/Z+2B0LodlDc4wskvB/pXH16IxZ7BMAQHgJL/JaU7kQQniRAhvYbhHqrlY8nEQEWhPBdYgne4f1x96+x8tavik1sEkAFAs4OzZvSoPV+gI5k1wokGg2vFh0I7GWrQK+1/oJo8epTopaYJoBKwOKz03oJFHcDtFvsuhErMR9TtikRgU+sIplWsqkw35QzUFFoTgCVYLobJziI/WZQchu/XqyihRmnKxGgP7Dks95i8iU8Hr9xRIucJJwATsWexGenn0uoeD8BrmFhCE/+zB1nImeiqoy8l1AyzRosX3Z8857fVekxSjrhBFCdInNybM7SA9kQLLdR4Fqensy01l4C0HkUeM6fX8QCdTIfLV6qIMAJ4GzmMASWhK3JPUVifRAUF/4Za6BKG+71Z8TniQYAsppCnO7P3/VVtF3gURNxTgBS0ExOdjjrWW+gwF1/ZC1O48eGUkCLSJ0gCDaB0od9rYuWR9O1Xa3Q5AQgA9lEd4tGQRocBYIbKnIT2GQ051W1Q6CUUloAQp7x28rexoZ9Xu2Giq6eOQEo0Gdih5YNA4FAX0IwqiIMWcVmoYLOpDbh+5DVIVUCYC2Al+w24aMjG3Yekwonr3cSAU4AYVhCnfauOmVBmksFMuqPSyRXcGeiMMCU13Q/QJZRiMv8Ae86bD4YPTnF5eEQdm1OAGFDCCAjIy4hzptBRVxDgcEspzF3KFID2FP6OPl9L2KJaBHeKa2TUoiVKwOqjxJjHXICUFvhuckO5wnr5VTAdaDoDqAeX2kpBjkI4BAFXSFS8mFZfXyCldyBRzGa1TTkBKAmmqf2JSRkuBoFLehDCG4hFG347UPJYB+hwP8RgsW+8pIPsfkg+9bnZ/iS4ZNekROAdKzCqpnobpEp0uBFIjCMEGQCNAkg1rA6jZ7GZaD0GIWQD9DXqVD+XWne3m3RMz3jzoQTgN66ycmxxQeOpAki7QXQLhBoR1DSmKU20FuUSI4XirFP8CshWEMpPhXF4LrSTbt38je9vlrhBKAv3qeO1rJlfGISagXE8kyBoq1IhSsE0DRKQqnPLaHK0XP8V/pHJIafALqTEnwMQnbaLHGbipOaHuWbeZEzQk4AkcP+9JEJXK74xFqWWkEaaEEIOlCQLiBI+SP9dI5eAU2lw1EjM3kBsgag+6lIvyQWocBuJVuPHBP82L6dkQEvBkCAE4ABlHAGEQiGQMDOpvGOclKPwNpIBLmcgNYllGRTQjuyMIcVNxbZXoLeuhQBsGO4UoCWUpD1hCAfFL+KRPhIQFmJr8R+CB22B/A2WF2+iWdAW9PbaAwIgSlFEpCTY8GJE3Z7vK8TqJAiCIinoAmghIU/b1LFKYk9eHUqPimEir+Z3iv/MABYHQpQESDsYWV359mFGuZZV/Gqp8UAfgXBBwTEK4KUkKC4w+e3bUDt2iI2bGBHdqwtLyZCgBOAiZSlVFRbu7Rsqy2YSEXYBUriAyA2K/DHFfmTpxCE0kCQENFCxXKRoJQEaWnQiqNlebt+Ujomb2cOBDgBmENPXEqOgCYIcALQBFbeKUfAHAhwAjCHnriUHAFNEOAEoAmsvFOOgDkQ4ARgDj1xKTkCmiDACUATWHmnHAFzIMAJwBx64lJyBDRBgBOAJrDyTjkC5kCAE4A59MSl5AhoggAnAE1g5Z1yBMyBACcAc+iJS8kR0ASB/wdYI8AtefSmjwAAAABJRU5ErkJggg==;" vertex="1" parent="OYDcvir6wLGYqZr8SC8--23">
          <mxGeometry x="152" y="28.74000000000001" width="136" height="136" as="geometry" />
        </mxCell>
        <mxCell id="OYDcvir6wLGYqZr8SC8--19" value="&lt;font style=&quot;font-size: 18px;&quot;&gt;Servidor de Base de Datos&lt;/font&gt;" style="swimlane;whiteSpace=wrap;html=1;" vertex="1" parent="OYDcvir6wLGYqZr8SC8--22">
          <mxGeometry x="380" y="211" width="283" height="179" as="geometry" />
        </mxCell>
        <mxCell id="OYDcvir6wLGYqZr8SC8--12" value="" style="shape=image;verticalLabelPosition=bottom;labelBackgroundColor=default;verticalAlign=top;aspect=fixed;imageAspect=0;image=data:image/png,iVBORw0KGgoAAAANSUhEUgAAASwAAAEsCAMAAABOo35HAAAACXBIWXMAAAsTAAALEwEAmpwYAAADAFBMVEVHcExIfaVEeaFEeaJFe6NEe6JNfqtDeaFFe6JDeaBCeKJDeqFFeaBFeqFDfKZCe6JFeqNFeaFHeqFGeaZEeqJDe6NCd6JFep9KgKhEd6JFep9CeqJFd6JCeqJHgamJhcRFeqNFfKJxhrZHfJ9Cd6JFeaJCep9FeqFEe6JGfKNFeqJMgaVLgaVCep9Cep9Fd59EeaH///9Cd5/miS5EeaDliS5FeZ9FeaFEd59FeqFFeaBCeZ9GeqLkiC/liC3kiC0kdbb/ixVDeKBEeKBCd6FDd6AzbJg9dJ01bpkhYI9Cd6I3d6n1iSM/dp7/jRG8g0r/ixroiSskYpH/ixdCeqJFd6IsaJTqiSkyd6xEeZ88d6UdXY06cZsvd64bW4xAd6IVdME5d6ctdrAqZ5RfeoxAdp8+dZ0fXo4TVoggdbn7ih0XWYolY5EtaJYRVIf0iSPliS0VV4r9ixxCeKA4b5s8c50ddLsrdbEcXI3siSguapZGe6IwapYxbJcpZZNBdqDuiSY+d6MnZJIldbU+d6IVV4k7cpz5iR41d6r4iSE4cZvyiSQpdbP/jA8YdL/2iSHwiSU3b5pFd58ZWotThKhCeaEoZJP4+fsndbT/jwH/jAw6d6ZIeJ0PU4a4y9rn7fPZ4+zS3+jO2+aMrMWQr8aFpsFgja7/ihJSepV9oL3e5+12nLmZtctzmrjs8fUbdL3UhjlxfYAybJhpk7Onv9OApL/YhzbkiS1Nf6VBeKCgvM/H1+KduM1lkLGwxteIqsPiiC83d6h7fXhsfIO/0d6VsshumLX0+PnB0uCkvtA1d6nFhUOuglMidbgOUob9/f3//v7x9PesxNVslbRKfKS8zt3W4erNhT6zg1FYe5JmfIeoglhZiKtei620ydmrwtSEfnPKhkGbgGKjglx/fnZce4/6+/14nrrAhEiKfm1OeZiWgGXj6/GSgWisg1aOgGt7n7zE1OF1fXy7hEsCR36HfnDehzJie4qdgmC3g04PcsUNUYX+ixpgeoxRf6AAcdXNUKB8AAAAMHRSTlMAIJWaQWAZrmjj+47cqxSDcfZiNMtswMIc8Ken1dIiA4JYBEzy/Ol7SjDqJyfS0bHAxBhTAAAgAElEQVR42uydS0wbSRrHeYZHyANCIM/Ja2by2MxOVwnRNvapIXa3V75YthVijw9j+SFhRhrZVpB5RLIWtEJzMZDksFImIQlShiQHCFIgDy47IdnDzmYScprZHLnkkJHmNpet6raDIbjtdrehyp66EESjwE/1/fv/PaooKyNjbTt9qulkRU1L8xcNdZ9/+tlnn35e1/BFc0tNxcmmU6e3lf258NpTW9lsscPU0unEDwZD+md42S3NlbV7ShbTvtqaRksKEZNlpbBZGmtq95UWpyNNLaz0y3czila39F1sS9ORkgBVfrTBLgYak/cSg9TecLS8uElVH24Xw45RvcSwbD9cXaSgzlaKoLoYzVaXCKzybLGR+qTGoS2odGCOmk+K6L13UFQppkBLVLCDxfGO3K6RSmVVsO20k6qqsxQi+DYOSEtdFcWoKtpzMZyabS+0v9or6CS17ZAFbtauSpN7yyH6MsmqeiTpOmbTlw7JfT1d0VjbXnBNl1V7Sy01qPbaYRdktnChFNK+l46UZjNFXU7syU+FjiGnzhCxkLM/RnYpz1JAp56Hs7cQXC6sU1ygKrh21RGK6oAD6hjClg46DpDoFiBBEbg2yybNRxyvJ0XXN1L6+uNEVRYcZInVeulykFOR2GcgMgLXxKKBkHpXDSQ3BFdDEdYQgGrnGHnvwI3fi2M7t5rVUQe8zFCxLkPH0a1ltZ9wtVqnXPu3ENUJOz2oJFz2E1vFagekQ67WlLp2bA2rxs0uGmtTeG7cAlTldvINw8Ymwr7pMxK7HbSFYFpuvXtzWbVCuqR93VuxdTNZnaFRrtKF68zmsTLQKVfpwmXYrATHQjsrTMuyKclP1RjJ5ZjcyzZjm9CKrbbQK+1rZd5S8F7ZbkirZdjAzRfYQuyiX67ShWtXQWeIdDqmiJZOV8AJpR3FtK+kvbXjT1ZbT6ui+FhhWgWJxF26ImSFaOl2FcIz6JiiXDrtHUQ1hEyRLs0nuaosRcsK0bJomvnQ0hzMNxA1bSkWST4okydqWb/qZop6dWtX3zoDIVPkC2pVO20tflaYVqs2BquLKYHVpYXdKndApiQWdKjvJ9qL+0WY/kq0q+/R65gSWTq1nf0dEDIls1TWa06QJe6s3mjUs4UU+ROqBIskVP4ZweMRYu6wvmB7S4Vs7SdJsDjetfLmp6XJW7wnZu4slGzlPRt4lKgX4eiVJSCtn+70OQuEywDznDvdSZTD4kK/gdW16BmwFsht5VeAGCNqY1kFxOjx7N2rSVxToShbkK01lg+rL8ma2XY/AWAh2BvvMU5KtB54Eh1G7d+Ol+GXeZwxIWy+PTILwM14v/ESL3ifirTeBP4THEZvx5GwpsAuw3151LDIcoxmKwDfj19CDoIbDY3+kBKvq5O3I0Ebb9VQ75XXtraTZt3DPQjNxCAn/pvve5+m9uC3qfFeM6edkVd4huw4cbUGfWwOmQaXm5X8afwXsGbN9Zl82r0RlZ1PrCev1mB23QdgWTBLn/kGAhHr7NytFzdS5uu1za3R5jLAeiWsagksunM8j5i89ya3PBe2uvkBZ9w1PP1SwnXNFrNqo/Tdik4KE1lr4LzTCMnYDJeeWevb/AMe37KE61etNheEubM6QGZdxi9cQ0Rc7vVqFo4I/BtpcwUGtfnRYe5n9gmtJLNuF/Lv10K+1X0lhR0b5gMTUuYIvX4tQhE6cmVVR2olmTNh2XptknBEnZ6+Xn+Sm2+m57FIa0XQIhQNud6esYfcWUjOuwLAkkfKoaMLANyJ+1Nfi8YnkqGY0ICWDuZ2M4uF4Paz34P8wxNpa0XjCM107wcyvlj8Oqb1TjBpQCu3jv4xknv1LI+ynusuEQY3GMF6n7bvIn03Ma0l56B6Wt3wGL3qnsp6vkU0nCPSv+OIzXA6SnP8oRiKJg1o5aLx1WT3CfXxtwDc6pWq8NEAeBdaU5D3OSVaMfWRaMhhxo303lcCyfhLT2dS7xcSibVf9jnbRVq96mlld6Z7Se8T+oYRCm80+QaMjqz/eWHML6aKtoh6WtnuDbQT34COPwXgdixzNwzGEpjW9WSBQo19sGfbWMTDirDIHfTJFPvmY2ZM66ngV+215LdWO/nd+ku4ChgfkXli3vtM9PLeebVx2C47lEzBaIPeeQuAH51yXWmr7QGm5VYr8hBWydb8GPIXMgwABOXahuyICxfpr35UoFBMS6YKuI2K+aJO278AmB2QLxTiVAj8L+RTq1qZb7U+RMd8UQIia9BjlqU1YMW0Hqp18vBQ5hSajiG/eeEGAItDYdlnQm8xLU9UpY3PmE5XUjLlx/LYSSVisrvGjZUNLMQ5lXFYmck30DKWPB/HhT73jBwILib6Bz6h7r/qas/kG6iZ4Y4G8HxIQNZ1Wvu+R89MCuq2VlcG91BHz/gox2Na06PywToiVmtGVUr8xvVlC0VzyW2uOQDe8/LBGvoZZz1xdWMQOsvG0w0UweocRzuLz/Kqczvx1ho3q5T4jSYfqDp1YsYcvg1nCdYA7u2/j+lVqtZG81gUsWJN9wB4G9dnsxh4emQJzympUq2P57UO0gRLb7sGQDSrdPtwwR708+oKW/Ag2SPvWSWrB6XJ2aIQFygWNXAPHw/Hf0LVGR1zCGXJtuxaFPXgrTWgzj3o4Pq/CFhDlWTxSLJWBrNHV+fQCw3cw0cXflN1qlCPGURysQRusVTjUpdOr+8g/oWqU4V6YRKAP8I5PMmF8JTSLa+qrWWAZ9cVHChixRg9SwAE+3N5dNQkGlOVW6uStkZFOizcOxw2Jv0BlCuHcrj2BW46VW2tdY0Lug6NG4O4VCrB8g89kStssbxefc6z1sRX03Ve1fgNAC8lWHBoDgTkmhc+sVKzqHJrpY89HKYMVjAVhtwM2jhTJlYuM/oVb60eVVsLHqZWshgj7rN+04Fdpwt8mNfKsKz4YXBHVTqdLlrllN1zYXS9A8BzDh+7uJ3VoutjK/iZoF+VaJWnHVmlihXKo5cBGEF2gPOIM8pvZS26fxw/816VaqUdcG2gDBYbuwnAK5TuiGUtXI2X81GdUusiwHfmX32ADXRWHMQs5jVOpI2sCWP4LwA/ylp0ax+KWnBjyGWy5itcq5WHI9TdCnIJvw6Dl/RDeAAEV/g8I7J5t1vcf++mevI9t6+DR5Kwmqi7FaQN+/LXfH8An0KJL2Rrps7HXyTPjt0Z780PF2xKwmqhDhZrmkVxJeh7cPvwDxsenByVE6SobXrpA66BfM6OwZYkLJa+e4ys+A2XGMXRCIaH3gLw3CY7ueYf8ERTB/fzOjtmYFOJIX2wOp3IYF0P/i6eK4/24hNO8pV2Nuz2jpteJA+sDCgeRTLAlCVl6FtmbN3f4NM6T4c6vHN4zDTbrRh6zj0UnBCPoj8MRZVurqQtraURFjdjTIrQREJvdk0CMOvM/vvrfSbPLP6mFy5eIa3k4dYaOv+MlXNKguXxMeyoDen3UCQH4WatvfFH6LvuOxWGYrIQ30jnPXU+7wSyo0vnZlg8KHIFvR1dOV1Pw40GXontRK+ibNHQmLzelqGT1oyr94rAiz89ZxoE4J4zp9Birc4BXOO6J4wo8BDJI3XUXm/LcuEwx6Y0bAiA3hx7zxzvwd3XnwMKSvPd4utwT3Hc6seZQktXhZHcKBv93sH7ADwQFJQE4R5aX4Yb0UoIj5Zj/uygOv2RAW98+Hdkuubiuau8+DqsLJb7IpGNWrgpf8kK22k1CcGhJ3OPry0/xePMv8Ryh4X7Yc3Fc7lmdPDxnEkmsvwmoefVjTV32MRy1njYjGAZi+gmUrNp8e5Ixt+Hc756s4bU81dek7LXob2Yrm31Jyb6M/4+nbFVTItTVk+PzeTP3ceLpw+L6z5gCDMfbJO60+DudCIoOHnzuTZFN7rpsHconfuAWb4fw3o2nLhszKO+DPFJsJKBxUBcVEW0BHc+1VK4rex0CcFiooH7mNayJ5+btuDpslOlBAsl3FK5dFZxiQbBOkVht0IdLeG5SOuHiFdpixo2lZ0sKVjI5gvPJPewYlN4hS48WVbRVVKwcIFmULok8EGfsnsyYAWldVJ1odh3T7pCN6Topi1YU9ZacrAY1h/rESdr3im6VQS2kpdHt6HVgRf6mMtjWZ7LkBbFxucQrUdKhr5RJv1XJbDwH5FIrkwWePUJNi9SHd2WC//46uLFr8//7cK59o6NQaDH2v7+z/NfXfzuu6/P//vCuY+BoSfa/0/buT43cV0B3JPONM1MvrRlMv0DEtp+SAdZKwltZUmLsIXHYLRsBy0CWUgONpIDlmVbsgIYP7BlkG3JodOomIRmIOAkgO2EMeRFsAltAlZKm2QMuCQ8O7xJSwJk2s5072sfsky1nez9woz2LuP7m3POPY97z6KR/79wOJeDbOkn5YXTKv6VquNGC94qX49HVXX+pGTT7+rwjJZ1zv9DqLbw9v6doxcuXb575VxFv533lM5cK0WVevhs8Kww7cz07YlzL/Znerbk4KIGY9F+MLK8L7/gOZzV6w7qThROq/hJVZd9G5dJ6Y1D6/LJlqNDSoLsWaSWFd3ujR6fYio5VyQRcTF93NRENjO+OQcDVerP9FyZqtzHuUIJYR7XF5p80Oltp+XTaO8pJgTGjuMealZLX7Vf91XBydLiJ4rmqoBVs0mCdbou306CDnCi8UmrumhVgJCdWMzVs7YSNGxskmPuvZPxl1JyVp5AYLLPlQTTbDYw1+ZOMaHRYM9CGVXavjTFgsH8p2JWk2Zq7jii21vo/fziuUVPq4C17beyzFlZnkYvprIPZI3Hy83qWPGBU1xb2Gow6NEwGKwCh8ozg+OUbNZ45jqXcNukacI8my3N3b/h9Um0jPal9YcNBkMJ81zFI+z/mhc+f7VgWE8XPVN4idW06YAMVr5GQ47y96QJt6os6lj5UwnWagCLFygJAiPwEDiwlVM9lDSronfKFQ8LpAziALys7GLmbECiJcBaDB78D1jzigcGCu3u8+tn1MAyV++XwXppu+ORWqjTNVjU2KtxbzyFIFjZtlTE5Yqk2libzRDet1NcLkX19I5EAFEBJxuvTyQWx1koZMJbadfVgE8tLBVDgKVCDeFlW1muv/uRWohPqhcKa0t2JKEHYhV2J1xTd74dnbg+OcYwiXhyLEgQUJQ/dgxIn8EQbotUji19+PDeyD5XGsmjNc2d5Yl50wCWoIYqDLylVpHv3zNDDym5FqKT6oUOmn/AsEBCwmlmMhbNeHk+kIkOD11K/f44T/Y5ytc5GWGBlrJbt14PDNt7e+1R+wQbcUNa4WQ869EQ1lw1roOl7u9yFqQBpkwLuxTFE2fhjha1OZhOQ+1qc+3s9AveqDCMK3z+WP+5QDslmrWzDOBiYCMj3pjgswpjvscbnObikJbedTeGRUsLWE+ocUpN65XfjajO8edMi/Yqnp8v3NGi/Asr4XpZ7oFkpkFE4/P5iGpRns5kErAKJy5GK7C3KszxZO+63FAR48y4XztYTxY9WzisRqXg6Hbn+KUOnFgj4/WNBUc8dOB2pERYnDU9Et1CUcoQUEQXuxwJA+lLpmN+aRJFe4LXEmFAy5aYxqKlBaxni+YUXglzLkIQ8CeVdAdz9JBoIXn+fuFeqdE+VW8V1maLTAToWRZHtQddcSuUviFe4afS/gznhh6E2xX1aQVr/pyipwqH1YQ/33KCfCKoo1mphefRz2RL/AI1EzDNEljjkBsW74zRY3G4Nu5sDz3rHjDK2YD0Je9HlfEeVdo7nQCPDIeZqyc1g/WUiuSfqexNDOs1TEPZiJYCjQvBYWDi57+xEjha3ctbuhoaGrpackLvptYq+PuyTUJwZhxOuBGsczw9m9caHEkCwbKBOVSOyeMrWfC+NXWv06iVGj5e9FjhsECDUOgztGIauxSNaIkWnreI4SOANUCcs1eq5WjNrURbj7wDYKUgLGviZu8s6SlqcLCPhXsAM7wlNyFTGh1LAzU2sJX9UEO1gPWYioKFueMQFqhviAlf5pRrIdbStU2iVwouyA+IW2SXooOO6Ox3NQprC461QaPT5o568tOivXddcA9InsquyJ1Bx4QNArxv66vwaAXr5ypKYRay2R3oOko+OiU/sbPsC/xxuHKC4V+Uwvkyye9QLiB+yEt1wixj57UUlAy960KvLy8to/0a3ANKXFe89EzXY4ixYT0+qRWsn6goslpW/gF/h7GaWKVbKyU9XLMWl5jKXhYFr1Th1r8r3x3J1qr7CGwDtPe2C1poa1tkKJCPFjV/uB6ZtcoX/TPzgb5h6KfpbaGbMVojWL9QUb631OHLQp8PiMJSK+nhIkywllDT6WqcioDxdJ3MxIkO7GtAOqlBfh+00EK4ww1lPDPz6pTPvgPitO2wz8x9UiuG08h5qD9lN2oE65cqDoZYCIRFa/C+p9N9LfqdJMq+1WImUHV/a1KmIjZ2z9wtdBtWQQttn1ocRsmWNHMpy/tyvS3Kf5aBVonl+ufPXL4xO5WGr8fjUa1g/VDFkSMTUa/aBaJYvCHq4ea1RFA2rCTx9gHYQ8BRTk4mfii5/GZs4XS6Bhhu0z03GBjggaAl4h7KVuRkk2nvdReEFb8PaeTCytxBRo8N9WsFS81htkYiIetNkrC0OHO0sLVZ3AiEeMikyBnuahH/bkvVLpIWQyHewtgFzo1p6ZPMKQ/IJlPy/e5hwgaeJi9mjfnipesR+FjPrNYGFjzMVvCHGJa8hdf8sokqJ04S6WJlfv5LkoqwdHxFihqoK19Ny0wTR5HN8Cj+vAnVbv/OhWXLYGVTzHRvQF7aoXvvpJBRWmrPB8t7BQmebcfq+drA+o2a2yjgFjd2n9BNbvipiFqHQgv3LDdLCdWPy2Gu1LGSxEcHxAZhTuLY/hG3+6CowexNps2KcR12h1wXgvwWWkp93oOrN6TOZPLB4v8JYeltO6LAK/3+YcEDuAWXpBeRXa3LMq9mpZjhQyd3mo7gMkb3PBP4ICgiCeOdeaaNr+MfXi2niAf7Nv6p1SklDzKjXMgdxkl1a5srfS7YQ0yXMXsxCR9sne7NExBRPcc5COvYDphb1gDWHBWXBsQlg/5CucJifv6oWCAzlX2Gn/0JdyJyivXGriU50YBurUPKxrR7Y9NMirViXIIXMfIiKYSJPn7icl5YJ59jEKw+r0awfqDiOoqZbPYHqyxyYYF6SLQQ+p1N4sdl1yJYjpZdYj7QhO37LZzOKbcoy6ftU0xSD3URlWzO9PZAy2WMuuNIDe/kU0OqAnkWghoGNVLDH6m46GRufVeWTAD9HNHYDoSlCduzNSCiaS7WiVsBevWFD0kwjVtANq6Xu6QyXJsrslfdLpnpirDjSFSiNgzru858sE4+YIiBX6GJgS/+qYordOZlX8qEwVF1EC/3M8FCmzv+ip0m0IhvyXIxksZ/Z3O1KGsomG4mwXZZd25JzMcHL/w75D5M6oGp0A2vICuiGtZfy7cbEptl0HPa+FnoCl2h26G5/B+ynJ55+W4dYUeJWog6+FJdiuAQ6OF24tSbt6Fy7ZszTJaki+2BzGVouqBwhZOhnopSSjTws/hZeDc0sCltYOHLmQVe+xULYcgz6t5IiNQtMW8z49QUjG9Mn5JH25zE3p1QBNNiBfKjPJ1Zgenq7QGVfGS5wqkxeztFVm9oG4k+ys+Ku7UJd4p/rOZCuYUoHjrw4dhO6mIflG0gbihSsg1iFegIKY2vKlME0446RUCUB1dFdjSUwrRY7gpP05lJ5JSyif48doOO3QwhB38kqw2sx9W0KrDU/RktcD/MeJpb38cLfq98XoPCfIsRt1QMW1B3Gv+0CRgpZ3We7KHSdLV7eXeKhNbHopvp2GUU7hzuGy7NE0jbl9bDFE3isjYpGtyqoMDm5iKC3cuhNKxyis7TgANnGZBjIGKVBEdCC+pnpo1fz1anlQkXz7vrES19304PzX+LXfQ+f54TV1LFY5TXBtbP1LRX2ZCz2zc2EFh7tx9SuJyWqr/McAy21ciCaQsJLfdXz14sE2gtZFCOqoSb4Gn/EHKkSjhcwFFOXs3BBD1B+X3DIu1VCmzcQ3+qjJ3NYrz88TdEHymcUiXuvQRDQltbI3lZ21Y9sqRvPwPTLvoSkP7EyT9B0R7GZqaVPYOVNlTN0KZgITbuKawlVGNVTuhLwkHBnUL/vI0fWGr/2961BzV1ZvEPBAG1+EDr26L23ZkufN4klyRCwFA0KgaTSAhcMbhVYbRQXKFWW42wgssjyK4dgjjbne2O7G6n6m5H/2lnANcdR407+6y1s11l6/ia6oyt7up0p3vf9+ZFbsi9kOTm94ePzB3BH+ece75zfuc7TAGLWwbAUfvH17QVK7J5aVngH8+Ffuq8l4sfntVop5Oqpe4faPAJWmrsGumkuV2n3agUrTD2SihhPYu1TK7w6UrPch9uWkwOwWRk57N9MgMmx8/+w6o9m895c+nftCp7OkiyFM51PWql7nob1dM43mTzaYW5r1M9ReNDqpshOlkzQrrGrqjIo1jsI9fK/gddrWFP1cTBkT35cdRuy2KSkL/9aMSviOg7eweWUa+4djXRCqOK8MYHmJdpIbb2fKqneLzdJkVHmrvGTtiYdMUer+SJbRR6F6vI69rp7o82K8ub2tcOM7WsN0cWCiM2azEV0433MTX+N6qnkdvV5dVlRQobh2vyCMmI85ZOEmEIbzWDINkRq76FB71a0DTKmZwph3EzPDXQ+nR/sn9bTp+UPtk8shcWYkN05zT/f3Y8l3CfpPywznQV8xKG6Iy7SYFW/g1aKiE2WVNCu9SVbVIcZMt1HkI/rodIXiPKlr58/PDLb+nM4p0KvssVFnrOByBqW0Mu3ZPPb8BNiRGGEKZVtbrQQ3J0sYXWIjGSSrHJygzpumCupLeyiP3o9zyyuJyKK5Wyl7YTYML++98yZlfAY6a1T1dFzpWwSanNPVxPBqIzzls9+OeIQ5e/n9JDHjrZcIEVsxXadA8pMVvpcVaLxCdLjXiAFn1Rf0YETf7wrwsWchE1VyjYwV5TtXYjjyxOf6R656ZX9Y8KcXRZ+s+0id7cm8N78VXXfndfp7M2o6RCUo02WxuGKfVjbimlVybc0lRCnw9PD7YfpWSS+IOUTFJRV3OvqdJHU3oDc9h4cFQiO/UOHJU49Iie+CW4YSlDu+Jc9TYjNHqP1Xes2Pq+P4Up186gpCEMtfTp+SMm09jCMyzrD/P31xdfPFt9QteIWbF294mrefWUUrSu5lLPPoRsAFWfJI+LCkWJ03jXfsLd097UUH1qgBTg4k7Y1sQKAhmyclv+M9jMg+OOVa0f7Dt6tLKvqU+JNWN9fVYBZC0M7fJ8FVvA2rqTK8vf9KtdZrsRTKmUYoTWStClrY/fW8EzrIZHbcvzSmpNHaVXvv7qwbW7178ztVGK7TpnLUaJGxD1BRvtiIq63TUduRfvDT/+zERJu4lONqfszuIqOjX5xXy4qpX6z129rt7cTpcLYndcLn/lMW+ykkNby8A1uH7K/SSKWMEMVU1gyPqnP7K44jKJDfzw7jjbu/sMMVixbPeaGqPR2IITQM0C1NUeOspwgBRWnTJ1ke0fhWL5stI25yFisIBscCi6jP1YJX8chSJLwUwCkRgY6Nik1Fs7+3u/r3pS/OiLJ/dKqKZskJAV4sIPLnl6gyOA60T8iS/64GZ8NvJN/OBKHlceS6kQx+ClfGdJHjldQs4uKShGcktbnH2cvSCOxhum2mV0DZU3jkKQ1f/kQqHPOIo3zuBkIcrWs65NfZt6r/Z+XzzUG5wsr4UfwfthXFrOsxbOWDzEtmw7Nns7X7+2ky8Nr+BfOUe0dZpPFjtLPOeXlpe05a9rtHIRGEEqsTtdZD/Dmwncsq7Ym9iWfwCyFARZWYiVJMuFGe+2NLsEkDUhxCVFnJLjMi8dYDsRRfz6wa4C1jnXetRaf8MzrJ2e5at9F9z93xynJ+POUJNxLcWPzuq8Bugqre6hFlNtaR5lfuQcXS45oII//tius+8jm9hq3Te1eX6wnCSLsiyX7b7rdn9wsryXFAVff6XawfxPeZ2+rAImaG3lX228ha1H/MyDrFVfsmQd9L7LEFFXrtY13iZHM8mZy/yO2it3qq0On9FMB+YeWmcqNtW3ONc4W+pNHfXGQ+Q8DzFvt86mGyQsUY191lvsDy4dTpb9K5eur8l1w+5qPeVqCkaW9/orAYX4w9t/fPnYscvHVv3O49P12y4fu/zGeo9aOtxbjj+KP1zucXOqdj3jydl/377TtzaKp5eYu7PvwcPhS//++trVxhPtqyt9J5zx5xzEbPDQ7f9eufj4i+FT9ifYRbIxS9J1fN0dIhdA7O2dm/xB10qkt1WYVdlqxTCsCsNag6UOPovVBKzsy9HuwaHV+vnUe7xcpaWf9TAfZCN7hdz6n/ivJavL9MQ4eTsxT+4oDDBYjz+GGmzWqsYeXVN7VatNb3d/XmrcX0cE+zMlxt5WhD9Q7g0qbVfzp/eDVRwWjcMyyF2squvXAa9fFXgDAf2YUkk+RzZmjS1EY1axzDhUhYj6bfsugxyDNaOvH2AytY/eKhL1XyYcuKrqUv6aktzltQPVDpHJmj/2C2xf37CHfUeGuSXVL132pr7Tpv28s7RoZM0Zw9XIqhwcyMEDTOE9+68bCsT/Knjy0Vp9ytlxS1cpLlf+ViNLtXR7y8rN727YvH7jVqZxmP3J9i2S/FCIxqz7knkQEZUs/0u3JVrnfvjm+Q8/OPevn3M3GIS59HPk0GW368U1LP/r3EO6O0S4D+790HOi8/xbFaqsLMnoQsS1K3LY1x+SpIhaqh2/9ODq43IJuZIAepjklyxJFvd5kfVpqHfHjTe8Cg4cEqUI8SvPcVT9ZdXba6OKKjy8JwYgCxgk2Gax693DH5A91V/8auuBioLo4ipLYwjEFVggRYgvqNhRvm3bsTdX7S1akYWhV3oAAAP/SURBVBVtgAsCkjVRmlQrR6tWqbQ5qqijCvfCiQHJApPkd1viyIY1KTBXePZQFmeIQ1mgvAFE9Q4eiQzLMBJXIDW2rtIPN2KljkiW8OlDOZBlHpkrMCvuh5wXzgpCFoBxthiuYDCuQDLUxHkik3dPgYN/WOKmRRmWJThXYHE816JyrMUCyIrnWkJyLAYZ8VyLyLEyBJEF0uIxXhOgmhyP8aON7hTmxcmaJ5gs2WemAvJR/nla1ulDWbATtHcVUMYxXjNizc8XS+Qc46FlSUhkgcnyDVvQv7phJGjkS5YmVK7AHLnm8ag/PVYwpMAjcuTqiI/cVhC65fhG1MDu0XAF0uX4RoSW9FGRBTLlZ1oa3shqiJgrtyCPwrlg1DDLzBGhefRcgaVQVktI9XBpGGSBp+SUyEP4FAgL0+UTtlD68jUQTtiSyStRE1bAou98kEu2BS0JYZMFpskjyOvhNCACZsshyEM4G4iCl2OfLQhfBiJBE+sl+bJR1LBG6OjH9CtRI7BXL7AA0R3L6RYKu9NFJAskxbJaBBqSgKhIjt0gD4Wo1kJNt9BYdcJpQHRMjc0gD9GpQAIkxqInwsAzcuEhBus1YVdlZMSWhFzhnojGVJRH0UQgIabGkm1BOBVIimkwVlIIFEqRM3hlpzFyTsTPg8lAciR1x0INogx2J4ExQLoh+gMXhIZ0MDaI+voWFLN+FbyvH9V1eb14dVGBdXlN9IZ2sertglMIS7SmECi0TANjjARzdIZ5CM0JYOwxPRoDlz78Hv2oz9VotLmglCfnIIqkKBNCaKB5KRg/zI2ityL+FpwLxhWZlmhRgB+Blkwwzkjvjg62xG4OjhI/gJGfRODfYgqICMzRRHjkIr6/BBApmGyJ5KN1GbRMBhGEJZMi1xUhnLQERBZSYUT6Iu6Boc3wjhHmReDZGj81zwORiTS0LKJCV1kZmgYiFhmGCPJF3AMNGSCSsdgSKZEeQstiEOlIhnD8+9YoKoHqShLMMo9zTo9/efMsEC2YpRzHUhduVMrooYpsxeJZqmYc+ELxsD4pCUQbJi4wQP0YF571emhYMBFEJSYoxzLYE0FdOQFEL5LSDGPV1sCNKi0JRDkm4+8mqaM9SnyNySAWMGe+WcpTNnFWNs+fA2IGi1LwzF4Kh9Tj/6wlZRGIMbxChHtRCSOIwkP6KyA2kbxQKVIEI6OUcmEyiGkkZE4hI1gYIUxDRqkpmQlADnhmxtMqwjJCFsWVQYInqHp6xjNAVkhITZlugBRQQV6HwzA9JTUByBUZqRNmas00FXr6d0g6msdHZu3MCakZIA7yJPnSizNeSEyZPfPVKWnPP/vcc88+nzbl1ZmzUxJfmPHiS5Fy2vs/liA76yyItUkAAAAASUVORK5CYII=;" vertex="1" parent="OYDcvir6wLGYqZr8SC8--19">
          <mxGeometry x="71.5" y="30" width="140" height="140" as="geometry" />
        </mxCell>
        <mxCell id="OYDcvir6wLGYqZr8SC8--11" value="" style="shape=image;verticalLabelPosition=bottom;labelBackgroundColor=default;verticalAlign=top;aspect=fixed;imageAspect=0;image=data:image/png,iVBORw0KGgoAAAANSUhEUgAAAQAAAAEACAYAAABccqhmAAAACXBIWXMAAAsTAAALEwEAmpwYAAA4JmlUWHRYTUw6Y29tLmFkb2JlLnhtcAAAAAAAPD94cGFja2V0IGJlZ2luPSLvu78iIGlkPSJXNU0wTXBDZWhpSHpyZVN6TlRjemtjOWQiPz4KPHg6eG1wbWV0YSB4bWxuczp4PSJhZG9iZTpuczptZXRhLyIgeDp4bXB0az0iQWRvYmUgWE1QIENvcmUgNS42LWMxMTEgNzkuMTU4MzI1LCAyMDE1LzA5LzEwLTAxOjEwOjIwICAgICAgICAiPgogICA8cmRmOlJERiB4bWxuczpyZGY9Imh0dHA6Ly93d3cudzMub3JnLzE5OTkvMDIvMjItcmRmLXN5bnRheC1ucyMiPgogICAgICA8cmRmOkRlc2NyaXB0aW9uIHJkZjphYm91dD0iIgogICAgICAgICAgICB4bWxuczp4bXA9Imh0dHA6Ly9ucy5hZG9iZS5jb20veGFwLzEuMC8iCiAgICAgICAgICAgIHhtbG5zOmRjPSJodHRwOi8vcHVybC5vcmcvZGMvZWxlbWVudHMvMS4xLyIKICAgICAgICAgICAgeG1sbnM6cGhvdG9zaG9wPSJodHRwOi8vbnMuYWRvYmUuY29tL3Bob3Rvc2hvcC8xLjAvIgogICAgICAgICAgICB4bWxuczp4bXBNTT0iaHR0cDovL25zLmFkb2JlLmNvbS94YXAvMS4wL21tLyIKICAgICAgICAgICAgeG1sbnM6c3RFdnQ9Imh0dHA6Ly9ucy5hZG9iZS5jb20veGFwLzEuMC9zVHlwZS9SZXNvdXJjZUV2ZW50IyIKICAgICAgICAgICAgeG1sbnM6dGlmZj0iaHR0cDovL25zLmFkb2JlLmNvbS90aWZmLzEuMC8iCiAgICAgICAgICAgIHhtbG5zOmV4aWY9Imh0dHA6Ly9ucy5hZG9iZS5jb20vZXhpZi8xLjAvIj4KICAgICAgICAgPHhtcDpDcmVhdG9yVG9vbD5BZG9iZSBQaG90b3Nob3AgQ0MgMjAxNSAoV2luZG93cyk8L3htcDpDcmVhdG9yVG9vbD4KICAgICAgICAgPHhtcDpDcmVhdGVEYXRlPjIwMTYtMDgtMzFUMDQ6NDc6MjItMDQ6MDA8L3htcDpDcmVhdGVEYXRlPgogICAgICAgICA8eG1wOk1vZGlmeURhdGU+MjAxNi0wOC0zMVQxNzoyODoyMy0wNDowMDwveG1wOk1vZGlmeURhdGU+CiAgICAgICAgIDx4bXA6TWV0YWRhdGFEYXRlPjIwMTYtMDgtMzFUMTc6Mjg6MjMtMDQ6MDA8L3htcDpNZXRhZGF0YURhdGU+CiAgICAgICAgIDxkYzpmb3JtYXQ+aW1hZ2UvcG5nPC9kYzpmb3JtYXQ+CiAgICAgICAgIDxwaG90b3Nob3A6Q29sb3JNb2RlPjM8L3Bob3Rvc2hvcDpDb2xvck1vZGU+CiAgICAgICAgIDx4bXBNTTpJbnN0YW5jZUlEPnhtcC5paWQ6Mjc1NmQzOTgtMDIzNy1iNDRhLWI1ODEtN2FhZWUwYjhmMjU0PC94bXBNTTpJbnN0YW5jZUlEPgogICAgICAgICA8eG1wTU06RG9jdW1lbnRJRD54bXAuZGlkOjI3NTZkMzk4LTAyMzctYjQ0YS1iNTgxLTdhYWVlMGI4ZjI1NDwveG1wTU06RG9jdW1lbnRJRD4KICAgICAgICAgPHhtcE1NOk9yaWdpbmFsRG9jdW1lbnRJRD54bXAuZGlkOjI3NTZkMzk4LTAyMzctYjQ0YS1iNTgxLTdhYWVlMGI4ZjI1NDwveG1wTU06T3JpZ2luYWxEb2N1bWVudElEPgogICAgICAgICA8eG1wTU06SGlzdG9yeT4KICAgICAgICAgICAgPHJkZjpTZXE+CiAgICAgICAgICAgICAgIDxyZGY6bGkgcmRmOnBhcnNlVHlwZT0iUmVzb3VyY2UiPgogICAgICAgICAgICAgICAgICA8c3RFdnQ6YWN0aW9uPmNyZWF0ZWQ8L3N0RXZ0OmFjdGlvbj4KICAgICAgICAgICAgICAgICAgPHN0RXZ0Omluc3RhbmNlSUQ+eG1wLmlpZDoyNzU2ZDM5OC0wMjM3LWI0NGEtYjU4MS03YWFlZTBiOGYyNTQ8L3N0RXZ0Omluc3RhbmNlSUQ+CiAgICAgICAgICAgICAgICAgIDxzdEV2dDp3aGVuPjIwMTYtMDgtMzFUMDQ6NDc6MjItMDQ6MDA8L3N0RXZ0OndoZW4+CiAgICAgICAgICAgICAgICAgIDxzdEV2dDpzb2Z0d2FyZUFnZW50PkFkb2JlIFBob3Rvc2hvcCBDQyAyMDE1IChXaW5kb3dzKTwvc3RFdnQ6c29mdHdhcmVBZ2VudD4KICAgICAgICAgICAgICAgPC9yZGY6bGk+CiAgICAgICAgICAgIDwvcmRmOlNlcT4KICAgICAgICAgPC94bXBNTTpIaXN0b3J5PgogICAgICAgICA8dGlmZjpPcmllbnRhdGlvbj4xPC90aWZmOk9yaWVudGF0aW9uPgogICAgICAgICA8dGlmZjpYUmVzb2x1dGlvbj43MjAwMDAvMTAwMDA8L3RpZmY6WFJlc29sdXRpb24+CiAgICAgICAgIDx0aWZmOllSZXNvbHV0aW9uPjcyMDAwMC8xMDAwMDwvdGlmZjpZUmVzb2x1dGlvbj4KICAgICAgICAgPHRpZmY6UmVzb2x1dGlvblVuaXQ+MjwvdGlmZjpSZXNvbHV0aW9uVW5pdD4KICAgICAgICAgPGV4aWY6Q29sb3JTcGFjZT42NTUzNTwvZXhpZjpDb2xvclNwYWNlPgogICAgICAgICA8ZXhpZjpQaXhlbFhEaW1lbnNpb24+MjU2PC9leGlmOlBpeGVsWERpbWVuc2lvbj4KICAgICAgICAgPGV4aWY6UGl4ZWxZRGltZW5zaW9uPjI1NjwvZXhpZjpQaXhlbFlEaW1lbnNpb24+CiAgICAgIDwvcmRmOkRlc2NyaXB0aW9uPgogICA8L3JkZjpSREY+CjwveDp4bXBtZXRhPgogICAgICAgICAgICAgICAgICAgICAgICAgICAgICAgICAgICAgICAgICAgICAgICAgICAgICAgICAgICAgICAgICAgICAgICAgICAgICAgICAgICAgICAgICAgICAgICAgICAgCiAgICAgICAgICAgICAgICAgICAgICAgICAgICAgICAgICAgICAgICAgICAgICAgICAgICAgICAgICAgICAgICAgICAgICAgICAgICAgICAgICAgICAgICAgICAgICAgICAgICAKICAgICAgICAgICAgICAgICAgICAgICAgICAgICAgICAgICAgICAgICAgICAgICAgICAgICAgICAgICAgICAgICAgICAgICAgICAgICAgICAgICAgICAgICAgICAgICAgICAgIAogICAgICAgICAgICAgICAgICAgICAgICAgICAgICAgICAgICAgICAgICAgICAgICAgICAgICAgICAgICAgICAgICAgICAgICAgICAgICAgICAgICAgICAgICAgICAgICAgICAgCiAgICAgICAgICAgICAgICAgICAgICAgICAgICAgICAgICAgICAgICAgICAgICAgICAgICAgICAgICAgICAgICAgICAgICAgICAgICAgICAgICAgICAgICAgICAgICAgICAgICAKICAgICAgICAgICAgICAgICAgICAgICAgICAgICAgICAgICAgICAgICAgICAgICAgICAgICAgICAgICAgICAgICAgICAgICAgICAgICAgICAgICAgICAgICAgICAgICAgICAgIAogICAgICAgICAgICAgICAgICAgICAgICAgICAgICAgICAgICAgICAgICAgICAgICAgICAgICAgICAgICAgICAgICAgICAgICAgICAgICAgICAgICAgICAgICAgICAgICAgICAgCiAgICAgICAgICAgICAgICAgICAgICAgICAgICAgICAgICAgICAgICAgICAgICAgICAgICAgICAgICAgICAgICAgICAgICAgICAgICAgICAgICAgICAgICAgICAgICAgICAgICAKICAgICAgICAgICAgICAgICAgICAgICAgICAgICAgICAgICAgICAgICAgICAgICAgICAgICAgICAgICAgICAgICAgICAgICAgICAgICAgICAgICAgICAgICAgICAgICAgICAgIAogICAgICAgICAgICAgICAgICAgICAgICAgICAgICAgICAgICAgICAgICAgICAgICAgICAgICAgICAgICAgICAgICAgICAgICAgICAgICAgICAgICAgICAgICAgICAgICAgICAgCiAgICAgICAgICAgICAgICAgICAgICAgICAgICAgICAgICAgICAgICAgICAgICAgICAgICAgICAgICAgICAgICAgICAgICAgICAgICAgICAgICAgICAgICAgICAgICAgICAgICAKICAgICAgICAgICAgICAgICAgICAgICAgICAgICAgICAgICAgICAgICAgICAgICAgICAgICAgICAgICAgICAgICAgICAgICAgICAgICAgICAgICAgICAgICAgICAgICAgICAgIAogICAgICAgICAgICAgICAgICAgICAgICAgICAgICAgICAgICAgICAgICAgICAgICAgICAgICAgICAgICAgICAgICAgICAgICAgICAgICAgICAgICAgICAgICAgICAgICAgICAgCiAgICAgICAgICAgICAgICAgICAgICAgICAgICAgICAgICAgICAgICAgICAgICAgICAgICAgICAgICAgICAgICAgICAgICAgICAgICAgICAgICAgICAgICAgICAgICAgICAgICAKICAgICAgICAgICAgICAgICAgICAgICAgICAgICAgICAgICAgICAgICAgICAgICAgICAgICAgICAgICAgICAgICAgICAgICAgICAgICAgICAgICAgICAgICAgICAgICAgICAgIAogICAgICAgICAgICAgICAgICAgICAgICAgICAgICAgICAgICAgICAgICAgICAgICAgICAgICAgICAgICAgICAgICAgICAgICAgICAgICAgICAgICAgICAgICAgICAgICAgICAgCiAgICAgICAgICAgICAgICAgICAgICAgICAgICAgICAgICAgICAgICAgICAgICAgICAgICAgICAgICAgICAgICAgICAgICAgICAgICAgICAgICAgICAgICAgICAgICAgICAgICAKICAgICAgICAgICAgICAgICAgICAgICAgICAgICAgICAgICAgICAgICAgICAgICAgICAgICAgICAgICAgICAgICAgICAgICAgICAgICAgICAgICAgICAgICAgICAgICAgICAgIAogICAgICAgICAgICAgICAgICAgICAgICAgICAgICAgICAgICAgICAgICAgICAgICAgICAgICAgICAgICAgICAgICAgICAgICAgICAgICAgICAgICAgICAgICAgICAgICAgICAgCiAgICAgICAgICAgICAgICAgICAgICAgICAgICAgICAgICAgICAgICAgICAgICAgICAgICAgICAgICAgICAgICAgICAgICAgICAgICAgICAgICAgICAgICAgICAgICAgICAgICAKICAgICAgICAgICAgICAgICAgICAgICAgICAgICAgICAgICAgICAgICAgICAgICAgICAgICAgICAgICAgICAgICAgICAgICAgICAgICAgICAgICAgICAgICAgICAgICAgICAgIAogICAgICAgICAgICAgICAgICAgICAgICAgICAgICAgICAgICAgICAgICAgICAgICAgICAgICAgICAgICAgICAgICAgICAgICAgICAgICAgICAgICAgICAgICAgICAgICAgICAgCiAgICAgICAgICAgICAgICAgICAgICAgICAgICAgICAgICAgICAgICAgICAgICAgICAgICAgICAgICAgICAgICAgICAgICAgICAgICAgICAgICAgICAgICAgICAgICAgICAgICAKICAgICAgICAgICAgICAgICAgICAgICAgICAgICAgICAgICAgICAgICAgICAgICAgICAgICAgICAgICAgICAgICAgICAgICAgICAgICAgICAgICAgICAgICAgICAgICAgICAgIAogICAgICAgICAgICAgICAgICAgICAgICAgICAgICAgICAgICAgICAgICAgICAgICAgICAgICAgICAgICAgICAgICAgICAgICAgICAgICAgICAgICAgICAgICAgICAgICAgICAgCiAgICAgICAgICAgICAgICAgICAgICAgICAgICAgICAgICAgICAgICAgICAgICAgICAgICAgICAgICAgICAgICAgICAgICAgICAgICAgICAgICAgICAgICAgICAgICAgICAgICAKICAgICAgICAgICAgICAgICAgICAgICAgICAgICAgICAgICAgICAgICAgICAgICAgICAgICAgICAgICAgICAgICAgICAgICAgICAgICAgICAgICAgICAgICAgICAgICAgICAgIAogICAgICAgICAgICAgICAgICAgICAgICAgICAgICAgICAgICAgICAgICAgICAgICAgICAgICAgICAgICAgICAgICAgICAgICAgICAgICAgICAgICAgICAgICAgICAgICAgICAgCiAgICAgICAgICAgICAgICAgICAgICAgICAgICAgICAgICAgICAgICAgICAgICAgICAgICAgICAgICAgICAgICAgICAgICAgICAgICAgICAgICAgICAgICAgICAgICAgICAgICAKICAgICAgICAgICAgICAgICAgICAgICAgICAgICAgICAgICAgICAgICAgICAgICAgICAgICAgICAgICAgICAgICAgICAgICAgICAgICAgICAgICAgICAgICAgICAgICAgICAgIAogICAgICAgICAgICAgICAgICAgICAgICAgICAgICAgICAgICAgICAgICAgICAgICAgICAgICAgICAgICAgICAgICAgICAgICAgICAgICAgICAgICAgICAgICAgICAgICAgICAgCiAgICAgICAgICAgICAgICAgICAgICAgICAgICAgICAgICAgICAgICAgICAgICAgICAgICAgICAgICAgICAgICAgICAgICAgICAgICAgICAgICAgICAgICAgICAgICAgICAgICAKICAgICAgICAgICAgICAgICAgICAgICAgICAgICAgICAgICAgICAgICAgICAgICAgICAgICAgICAgICAgICAgICAgICAgICAgICAgICAgICAgICAgICAgICAgICAgICAgICAgIAogICAgICAgICAgICAgICAgICAgICAgICAgICAgICAgICAgICAgICAgICAgICAgICAgICAgICAgICAgICAgICAgICAgICAgICAgICAgICAgICAgICAgICAgICAgICAgICAgICAgCiAgICAgICAgICAgICAgICAgICAgICAgICAgICAgICAgICAgICAgICAgICAgICAgICAgICAgICAgICAgICAgICAgICAgICAgICAgICAgICAgICAgICAgICAgICAgICAgICAgICAKICAgICAgICAgICAgICAgICAgICAgICAgICAgICAgICAgICAgICAgICAgICAgICAgICAgICAgICAgICAgICAgICAgICAgICAgICAgICAgICAgICAgICAgICAgICAgICAgICAgIAogICAgICAgICAgICAgICAgICAgICAgICAgICAgICAgICAgICAgICAgICAgICAgICAgICAgICAgICAgICAgICAgICAgICAgICAgICAgICAgICAgICAgICAgICAgICAgICAgICAgCiAgICAgICAgICAgICAgICAgICAgICAgICAgICAgICAgICAgICAgICAgICAgICAgICAgICAgICAgICAgICAgICAgICAgICAgICAgICAgICAgICAgICAgICAgICAgICAgICAgICAKICAgICAgICAgICAgICAgICAgICAgICAgICAgICAgICAgICAgICAgICAgICAgICAgICAgICAgICAgICAgICAgICAgICAgICAgICAgICAgICAgICAgICAgICAgICAgICAgICAgIAogICAgICAgICAgICAgICAgICAgICAgICAgICAgICAgICAgICAgICAgICAgICAgICAgICAgICAgICAgICAgICAgICAgICAgICAgICAgICAgICAgICAgICAgICAgICAgICAgICAgCiAgICAgICAgICAgICAgICAgICAgICAgICAgICAgICAgICAgICAgICAgICAgICAgICAgICAgICAgICAgICAgICAgICAgICAgICAgICAgICAgICAgICAgICAgICAgICAgICAgICAKICAgICAgICAgICAgICAgICAgICAgICAgICAgICAgICAgICAgICAgICAgICAgICAgICAgICAgICAgICAgICAgICAgICAgICAgICAgICAgICAgICAgICAgICAgICAgICAgICAgIAogICAgICAgICAgICAgICAgICAgICAgICAgICAgICAgICAgICAgICAgICAgICAgICAgICAgICAgICAgICAgICAgICAgICAgICAgICAgICAgICAgICAgICAgICAgICAgICAgICAgCiAgICAgICAgICAgICAgICAgICAgICAgICAgICAgICAgICAgICAgICAgICAgICAgICAgICAgICAgICAgICAgICAgICAgICAgICAgICAgICAgICAgICAgICAgICAgICAgICAgICAKICAgICAgICAgICAgICAgICAgICAgICAgICAgICAgICAgICAgICAgICAgICAgICAgICAgICAgICAgICAgICAgICAgICAgICAgICAgICAgICAgICAgICAgICAgICAgICAgICAgIAogICAgICAgICAgICAgICAgICAgICAgICAgICAgICAgICAgICAgICAgICAgICAgICAgICAgICAgICAgICAgICAgICAgICAgICAgICAgICAgICAgICAgICAgICAgICAgICAgICAgCiAgICAgICAgICAgICAgICAgICAgICAgICAgICAgICAgICAgICAgICAgICAgICAgICAgICAgICAgICAgICAgICAgICAgICAgICAgICAgICAgICAgICAgICAgICAgICAgICAgICAKICAgICAgICAgICAgICAgICAgICAgICAgICAgICAgICAgICAgICAgICAgICAgICAgICAgICAgICAgICAgICAgICAgICAgICAgICAgICAgICAgICAgICAgICAgICAgICAgICAgIAogICAgICAgICAgICAgICAgICAgICAgICAgICAgICAgICAgICAgICAgICAgICAgICAgICAgICAgICAgICAgICAgICAgICAgICAgICAgICAgICAgICAgICAgICAgICAgICAgICAgCiAgICAgICAgICAgICAgICAgICAgICAgICAgICAgICAgICAgICAgICAgICAgICAgICAgICAgICAgICAgICAgICAgICAgICAgICAgICAgICAgICAgICAgICAgICAgICAgICAgICAKICAgICAgICAgICAgICAgICAgICAgICAgICAgICAgICAgICAgICAgICAgICAgICAgICAgICAgICAgICAgICAgICAgICAgICAgICAgICAgICAgICAgICAgICAgICAgICAgICAgIAogICAgICAgICAgICAgICAgICAgICAgICAgICAgICAgICAgICAgICAgICAgICAgICAgICAgICAgICAgICAgICAgICAgICAgICAgICAgICAgICAgICAgICAgICAgICAgICAgICAgCiAgICAgICAgICAgICAgICAgICAgICAgICAgICAgICAgICAgICAgICAgICAgICAgICAgICAgICAgICAgICAgICAgICAgICAgICAgICAgICAgICAgICAgICAgICAgICAgICAgICAKICAgICAgICAgICAgICAgICAgICAgICAgICAgICAgICAgICAgICAgICAgICAgICAgICAgICAgICAgICAgICAgICAgICAgICAgICAgICAgICAgICAgICAgICAgICAgICAgICAgIAogICAgICAgICAgICAgICAgICAgICAgICAgICAgICAgICAgICAgICAgICAgICAgICAgICAgICAgICAgICAgICAgICAgICAgICAgICAgICAgICAgICAgICAgICAgICAgICAgICAgCiAgICAgICAgICAgICAgICAgICAgICAgICAgICAgICAgICAgICAgICAgICAgICAgICAgICAgICAgICAgICAgICAgICAgICAgICAgICAgICAgICAgICAgICAgICAgICAgICAgICAKICAgICAgICAgICAgICAgICAgICAgICAgICAgICAgICAgICAgICAgICAgICAgICAgICAgICAgICAgICAgICAgICAgICAgICAgICAgICAgICAgICAgICAgICAgICAgICAgICAgIAogICAgICAgICAgICAgICAgICAgICAgICAgICAgICAgICAgICAgICAgICAgICAgICAgICAgICAgICAgICAgICAgICAgICAgICAgICAgICAgICAgICAgICAgICAgICAgICAgICAgCiAgICAgICAgICAgICAgICAgICAgICAgICAgICAgICAgICAgICAgICAgICAgICAgICAgICAgICAgICAgICAgICAgICAgICAgICAgICAgICAgICAgICAgICAgICAgICAgICAgICAKICAgICAgICAgICAgICAgICAgICAgICAgICAgICAgICAgICAgICAgICAgICAgICAgICAgICAgICAgICAgICAgICAgICAgICAgICAgICAgICAgICAgICAgICAgICAgICAgICAgIAogICAgICAgICAgICAgICAgICAgICAgICAgICAgICAgICAgICAgICAgICAgICAgICAgICAgICAgICAgICAgICAgICAgICAgICAgICAgICAgICAgICAgICAgICAgICAgICAgICAgCiAgICAgICAgICAgICAgICAgICAgICAgICAgICAgICAgICAgICAgICAgICAgICAgICAgICAgICAgICAgICAgICAgICAgICAgICAgICAgICAgICAgICAgICAgICAgICAgICAgICAKICAgICAgICAgICAgICAgICAgICAgICAgICAgICAgICAgICAgICAgICAgICAgICAgICAgICAgICAgICAgICAgICAgICAgICAgICAgICAgICAgICAgICAgICAgICAgICAgICAgIAogICAgICAgICAgICAgICAgICAgICAgICAgICAgICAgICAgICAgICAgICAgICAgICAgICAgICAgICAgICAgICAgICAgICAgICAgICAgICAgICAgICAgICAgICAgICAgICAgICAgCiAgICAgICAgICAgICAgICAgICAgICAgICAgICAgICAgICAgICAgICAgICAgICAgICAgICAgICAgICAgICAgICAgICAgICAgICAgICAgICAgICAgICAgICAgICAgICAgICAgICAKICAgICAgICAgICAgICAgICAgICAgICAgICAgICAgICAgICAgICAgICAgICAgICAgICAgICAgICAgICAgICAgICAgICAgICAgICAgICAgICAgICAgICAgICAgICAgICAgICAgIAogICAgICAgICAgICAgICAgICAgICAgICAgICAgICAgICAgICAgICAgICAgICAgICAgICAgICAgICAgICAgICAgICAgICAgICAgICAgICAgICAgICAgICAgICAgICAgICAgICAgCiAgICAgICAgICAgICAgICAgICAgICAgICAgICAgICAgICAgICAgICAgICAgICAgICAgICAgICAgICAgICAgICAgICAgICAgICAgICAgICAgICAgICAgICAgICAgICAgICAgICAKICAgICAgICAgICAgICAgICAgICAgICAgICAgICAgICAgICAgICAgICAgICAgICAgICAgICAgICAgICAgICAgICAgICAgICAgICAgICAgICAgICAgICAgICAgICAgICAgICAgIAogICAgICAgICAgICAgICAgICAgICAgICAgICAgICAgICAgICAgICAgICAgICAgICAgICAgICAgICAgICAgICAgICAgICAgICAgICAgICAgICAgICAgICAgICAgICAgICAgICAgCiAgICAgICAgICAgICAgICAgICAgICAgICAgICAgICAgICAgICAgICAgICAgICAgICAgICAgICAgICAgICAgICAgICAgICAgICAgICAgICAgICAgICAgICAgICAgICAgICAgICAKICAgICAgICAgICAgICAgICAgICAgICAgICAgICAgICAgICAgICAgICAgICAgICAgICAgICAgICAgICAgICAgICAgICAgICAgICAgICAgICAgICAgICAgICAgICAgICAgICAgIAogICAgICAgICAgICAgICAgICAgICAgICAgICAgICAgICAgICAgICAgICAgICAgICAgICAgICAgICAgICAgICAgICAgICAgICAgICAgICAgICAgICAgICAgICAgICAgICAgICAgCiAgICAgICAgICAgICAgICAgICAgICAgICAgICAgICAgICAgICAgICAgICAgICAgICAgICAgICAgICAgICAgICAgICAgICAgICAgICAgICAgICAgICAgICAgICAgICAgICAgICAKICAgICAgICAgICAgICAgICAgICAgICAgICAgICAgICAgICAgICAgICAgICAgICAgICAgICAgICAgICAgICAgICAgICAgICAgICAgICAgICAgICAgICAgICAgICAgICAgICAgIAogICAgICAgICAgICAgICAgICAgICAgICAgICAgICAgICAgICAgICAgICAgICAgICAgICAgICAgICAgICAgICAgICAgICAgICAgICAgICAgICAgICAgICAgICAgICAgICAgICAgCiAgICAgICAgICAgICAgICAgICAgICAgICAgICAgICAgICAgICAgICAgICAgICAgICAgICAgICAgICAgICAgICAgICAgICAgICAgICAgICAgICAgICAgICAgICAgICAgICAgICAKICAgICAgICAgICAgICAgICAgICAgICAgICAgICAgICAgICAgICAgICAgICAgICAgICAgICAgICAgICAgICAgICAgICAgICAgICAgICAgICAgICAgICAgICAgICAgICAgICAgIAogICAgICAgICAgICAgICAgICAgICAgICAgICAgICAgICAgICAgICAgICAgICAgICAgICAgICAgICAgICAgICAgICAgICAgICAgICAgICAgICAgICAgICAgICAgICAgICAgICAgCiAgICAgICAgICAgICAgICAgICAgICAgICAgICAgICAgICAgICAgICAgICAgICAgICAgICAgICAgICAgICAgICAgICAgICAgICAgICAgICAgICAgICAgICAgICAgICAgICAgICAKICAgICAgICAgICAgICAgICAgICAgICAgICAgICAgICAgICAgICAgICAgICAgICAgICAgICAgICAgICAgICAgICAgICAgICAgICAgICAgICAgICAgICAgICAgICAgICAgICAgIAogICAgICAgICAgICAgICAgICAgICAgICAgICAgICAgICAgICAgICAgICAgICAgICAgICAgICAgICAgICAgICAgICAgICAgICAgICAgICAgICAgICAgICAgICAgICAgICAgICAgCiAgICAgICAgICAgICAgICAgICAgICAgICAgICAgICAgICAgICAgICAgICAgICAgICAgICAgICAgICAgICAgICAgICAgICAgICAgICAgICAgICAgICAgICAgICAgICAgICAgICAKICAgICAgICAgICAgICAgICAgICAgICAgICAgICAgICAgICAgICAgICAgICAgICAgICAgICAgICAgICAgICAgICAgICAgICAgICAgICAgICAgICAgICAgICAgICAgICAgICAgIAogICAgICAgICAgICAgICAgICAgICAgICAgICAgICAgICAgICAgICAgICAgICAgICAgICAgICAgICAgICAgICAgICAgICAgICAgICAgICAgICAgICAgICAgICAgICAgICAgICAgCiAgICAgICAgICAgICAgICAgICAgICAgICAgICAgICAgICAgICAgICAgICAgICAgICAgICAgICAgICAgICAgICAgICAgICAgICAgICAgICAgICAgICAgICAgICAgICAgICAgICAKICAgICAgICAgICAgICAgICAgICAgICAgICAgICAgICAgICAgICAgICAgICAgICAgICAgICAgICAgICAgICAgICAgICAgICAgICAgICAgICAgICAgICAgICAgICAgICAgICAgIAogICAgICAgICAgICAgICAgICAgICAgICAgICAgICAgICAgICAgICAgICAgICAgICAgICAgICAgICAgICAgICAgICAgICAgICAgICAgICAgICAgICAgICAgICAgICAgICAgICAgCiAgICAgICAgICAgICAgICAgICAgICAgICAgICAgICAgICAgICAgICAgICAgICAgICAgICAgICAgICAgICAgICAgICAgICAgICAgICAgICAgICAgICAgICAgICAgICAgICAgICAKICAgICAgICAgICAgICAgICAgICAgICAgICAgICAgICAgICAgICAgICAgICAgICAgICAgICAgICAgICAgICAgICAgICAgICAgICAgICAgICAgICAgICAgICAgICAgICAgICAgIAogICAgICAgICAgICAgICAgICAgICAgICAgICAgICAgICAgICAgICAgICAgICAgICAgICAgICAgICAgICAgICAgICAgICAgICAgICAgICAgICAgICAgICAgICAgICAgICAgICAgCiAgICAgICAgICAgICAgICAgICAgICAgICAgICAgICAgICAgICAgICAgICAgICAgICAgICAgICAgICAgICAgICAgICAgICAgICAgICAgICAgICAgICAgICAgICAgICAgICAgICAKICAgICAgICAgICAgICAgICAgICAgICAgICAgICAgICAgICAgICAgICAgICAgICAgICAgICAgICAgICAgICAgICAgICAgICAgICAgICAgICAgICAgICAgICAgICAgICAgICAgIAogICAgICAgICAgICAgICAgICAgICAgICAgICAgICAgICAgICAgICAgICAgICAgICAgICAgICAgICAgICAgICAgICAgICAgICAgICAgICAgICAgICAgICAgICAgICAgICAgICAgCiAgICAgICAgICAgICAgICAgICAgICAgICAgICAgICAgICAgICAgICAgICAgICAgICAgICAgICAgICAgICAgICAgICAgICAgICAgICAgICAgICAgICAgICAgICAgICAgICAgICAKICAgICAgICAgICAgICAgICAgICAgICAgICAgICAgICAgICAgICAgICAgICAgICAgICAgICAgICAgICAgICAgICAgICAgICAgICAgICAgICAgICAgICAgICAgICAgICAgICAgIAogICAgICAgICAgICAgICAgICAgICAgICAgICAgICAgICAgICAgICAgICAgICAgICAgICAgICAgICAgICAgICAgICAgICAgICAgICAgICAgICAgICAgICAgICAgICAgICAgICAgCiAgICAgICAgICAgICAgICAgICAgICAgICAgICAgICAgICAgICAgICAgICAgICAgICAgICAgICAgICAgICAgICAgICAgICAgICAgICAgICAgICAgICAgICAgICAgICAgICAgICAKICAgICAgICAgICAgICAgICAgICAgICAgICAgICAgICAgICAgICAgICAgICAgICAgICAgICAgICAgICAgICAgICAgICAgICAgICAgICAgICAgICAgICAgICAgICAgICAgICAgIAogICAgICAgICAgICAgICAgICAgICAgICAgICAgICAgICAgICAgICAgICAgICAgICAgICAgICAgICAgICAgICAgICAgICAgICAgICAgICAgICAgICAgICAgICAgICAgICAgICAgCiAgICAgICAgICAgICAgICAgICAgICAgICAgICAgICAgICAgICAgICAgICAgICAgICAgICAgICAgICAgICAgICAgICAgICAgICAgICAgICAgICAgICAgICAgICAgICAgICAgICAKICAgICAgICAgICAgICAgICAgICAgICAgICAgICAgICAgICAgICAgICAgICAgICAgICAgICAgICAgICAgICAgICAgICAgICAgICAgICAgICAgICAgICAgICAgICAgICAgICAgIAogICAgICAgICAgICAgICAgICAgICAgICAgICAgICAgICAgICAgICAgICAgICAgICAgICAgICAgICAgICAgICAgICAgICAgICAgICAgICAgICAgICAgICAgICAgICAgICAgICAgCiAgICAgICAgICAgICAgICAgICAgICAgICAgICAgICAgICAgICAgICAgICAgICAgICAgICAgICAgICAgICAgICAgICAgICAgICAgICAgICAgICAgICAgICAgICAgICAgICAgICAKICAgICAgICAgICAgICAgICAgICAgICAgICAgICAgICAgICAgICAgICAgICAgICAgICAgICAgICAgICAgICAgICAgICAgICAgICAgICAgICAgICAgICAgICAgICAgICAgICAgIAogICAgICAgICAgICAgICAgICAgICAgICAgICAgICAgICAgICAgICAgICAgICAgICAgICAgICAgICAgICAgICAgICAgICAgICAgICAgICAgICAgICAgICAgICAgICAgICAgICAgCiAgICAgICAgICAgICAgICAgICAgICAgICAgICAgICAgICAgICAgICAgICAgICAgICAgICAgICAgICAgICAgICAgICAgICAgICAgICAgICAgICAgICAgICAgICAgICAgICAgICAKICAgICAgICAgICAgICAgICAgICAgICAgICAgICAgICAgICAgICAgICAgICAgICAgICAgICAgICAgICAgICAgICAgICAgICAgICAgICAgICAgICAgICAgICAgICAgICAgICAgIAogICAgICAgICAgICAgICAgICAgICAgICAgICAgICAgICAgICAgICAgICAgICAgICAgICAgICAgICAgICAgICAgICAgICAgICAgICAgICAgICAgICAgICAgICAgICAgICAgICAgCiAgICAgICAgICAgICAgICAgICAgICAgICAgICAgICAgICAgICAgICAgICAgICAgICAgICAgICAgICAgICAgICAgICAgICAgICAgICAgICAgICAgICAgICAgICAgICAgICAgICAKICAgICAgICAgICAgICAgICAgICAgICAgICAgICAgICAgICAgICAgICAgICAgICAgICAgICAgICAgICAgICAgICAgICAgICAgICAgICAgICAgICAgICAgICAgICAgICAgICAgIAogICAgICAgICAgICAgICAgICAgICAgICAgICAgICAgICAgICAgICAgICAgICAgICAgICAgICAgICAgICAgICAgICAgICAgICAgICAgICAgICAgICAgICAgICAgICAgICAgICAgCiAgICAgICAgICAgICAgICAgICAgICAgICAgICAgICAgICAgICAgICAgICAgICAgICAgICAgICAgICAgICAgICAgICAgICAgICAgICAgICAgICAgICAgICAgICAgICAgICAgICAKICAgICAgICAgICAgICAgICAgICAgICAgICAgICAgICAgICAgICAgICAgICAgICAgICAgICAgICAgICAgICAgICAgICAgICAgICAgICAgICAgICAgICAgICAgICAgICAgICAgIAogICAgICAgICAgICAgICAgICAgICAgICAgICAgICAgICAgICAgICAgICAgICAgICAgICAgICAgICAgICAgICAgICAgICAgICAgICAgICAgICAgICAgICAgICAgICAgICAgICAgCiAgICAgICAgICAgICAgICAgICAgICAgICAgICAgICAgICAgICAgICAgICAgICAgICAgICAgICAgICAgICAgICAgICAgICAgICAgICAgICAgICAgICAgICAgICAgICAgICAgICAKICAgICAgICAgICAgICAgICAgICAgICAgICAgICAgICAgICAgICAgICAgICAgICAgICAgICAgICAgICAgICAgICAgICAgICAgICAgICAgICAgICAgICAgICAgICAgICAgICAgIAogICAgICAgICAgICAgICAgICAgICAgICAgICAgICAgICAgICAgICAgICAgICAgICAgICAgICAgICAgICAgICAgICAgICAgICAgICAgICAgICAgICAgICAgICAgICAgICAgICAgCiAgICAgICAgICAgICAgICAgICAgICAgICAgICAgICAgICAgICAgICAgICAgICAgICAgICAgICAgICAgICAgICAgICAgICAgICAgICAgICAgICAgICAgICAgICAgICAgICAgICAKICAgICAgICAgICAgICAgICAgICAgICAgICAgIAo8P3hwYWNrZXQgZW5kPSJ3Ij8+/5JrmAAAACBjSFJNAAB6JQAAgIMAAPn/AACA6QAAdTAAAOpgAAA6mAAAF2+SX8VGAABXzUlEQVR42uydd1ib1/XHr9h7L71DGI/YsWMbYxswaG/Z2XuPJm2SJm2TtEmz0zRJmybtL2nSpplt2oy2GW2zbbOnGWZKgNhgx3sPDEjA9/fH+0oWGNvYlkDC7/s83weXxua94p7PPfecc88lAIggQYLOTwkfgiBBAgAECRIkAECQIEECAAQJEiQAQJAgQQIABAkSJABAkCBBAgAECRIkAECQIEECAAQJEiQAQJAgQQIABAkSJABAkCBBAgAECRIkAECQIEECAAQJEiQAQJAgQQIABAkSJABAkCBBAgAECRIkAECQIEECAAQJEjQ7AEDItOhAajRpu3Qh6b50DulYm0I61zGkx5BGetbNIZ2XzCPdqrlkMDqYdBskpMcoId0GhrQok0mnjiG9Jv572jmkx8iSvrUSMhQbTLYoadKnl5AefSrpvTiV9K6VkG4jTTrVc8mBu2LIsZ+GkM3pGcSqXkDadfPIrpsTyLEHQki7Ko10G1nSY5IQq0FC9lwSRwauCCXt+rmk5+I00mOSkB4TS3rXppJ+I0u6TTTpMTKk38SS79fRpNeYSvpMDOkyzSU9hjmkz8SQblMq6TSlkT4TTfqMEtJnZEmfSUK6L55Dek0M6TWy/r0mSUSvSZLYb2LZrRfTS7rXpcl7jZIregzMXX1GycN9Rslvek2Sl3tN7Gu9JvbtPpPkvV6T5J+9Jsk/uT+zb3P/n+TlPqPkN9zfYe7sN6Ve0aVnZFvWUkv617Jsr0mS2GuURHA/k+HfQUL6TCz3biaadJrSSLdxDukzsaTHyJAuo5j0mVjSa0ol/Vdyn/GWtQzZspb//E006TGypFvPki4DTbZcTJOmNUuJVXUB2bqWJr1GlnQbJWTrujRSpQ4hZl0cab/qQtJlmkP6TAtJrTqMNGijyRZjGunTs6R3rYT0Xsr9nru0aaTfyJChK4NIj0FCOvj/v2ethHQYJKRLz5DtOjHp1qeSNh1DWrQMGXo4mPRfk0I65Elkq5YlNWqKlGhSSIWKIhVKmjRctoj8NTWaPEwIeWaGJADgPANAh2muAwCxfUb2gj6TZE3Pujk39pqYp3uN7Lu9Jkler0li7TNJBvpMEnhIA70mibXXKNnI/Uzmae4dJGv6TOyCPqMkts9Ekw4BAAIABACcGwA6TfMcAJD0mCS6blPqz/pMzDt9RklZn1Gyq8/IwoOGfkbqNbLoNUl29RklpX0m5p0u05yf9RhTL+0zsYt6jAzpNKYIABAAIADgdADYxgGA7TUyN/WY5rzca0z9rM8ksfaZWPSbvMfgz0Bbe03stz0m5g+9JvbGXlMq03+VAAABAAIAJgJgTZ9J8nT/WubrPpOko88k8VWDn1T9plTHnzv61km+6jNJntqylskWACAA4HwFQEjv2tSlfUb2mV4jW99nkuyfLcZ+Whmdf97XZ5KYe03sKz0menWPkQ0WACAAYNYBYO+lsWTwymBi1c8N7Lk4bXmPSfJEj4mt6zVJjvaaJBAkQa9JMtBjlNR169nHuwx0+paLqfDGrOWkTblQAIAAAF8GAEt2rEtMOXBZ9CWdhrQPe02SUcHYT60eowR96+ivLbJFV3do5ku2mgQACADwTQCs6jIyT3UbUxu6jXO4aLmgKatvLYO+tWx7r1HyfI+RXSMAQACA9wJAO4/svjWeDD8cRKzKNH2PSfJxr0myXzBkN3gEnI72mCT/3rou7YpKVRBp1sUKABAA4D0A6DTNJX2X0jduuyr5u25DqrC395RXYEq1Ww3JGzuN1A1tVy0UACAAYGYAcPBH0WTwgWBSl74i2Kqev65vLVPYbUi1devmoG+tYKieVP/aOegzpQ73rJWUdZtSr+szLQytUYeSem2UAAABAJ4HQJcmjey9LS7owA+j5B2qeRt6TRK7YJgzIRa9JsnoFtPcsjpNlKFJFxvYb5wjAEAAgGcB0GuULOsxpP6zWy9BHzcJBXlH9uDDHgO7SgCAAAD3A+CSVNK7VkL3GJjf9holB3uNEgjyPvUYWFufnv2/3rWS1N7LBAAIAHAHAAyppNeY+tNek6S11yAYmU/IJOnoWcfe320UACAA4CwAMBwd5ADAkh6j5BvB8H3UIzCy33Vp09L7jQwZvjJQAIAAgKkBYDAxNKxfRT/ca5TsFQzJt9VtSN3Xb6KfPXZFaLgAAAEApwVAr0mS0Wdgi3qMXFmqoNkitrDHIFklAEAAwOQA0MwhPUb2h90Gdn+PSTCY2ahuAzvQqWcfEAAgAGA8AEyspFuf+nGPkRUMZbZDwMiix8h+0m2SsB1GAQACAIwSZY+JaRdW/fPJE5CgyyCxdhgk6wQAnN8A+EWvMfWgYBTnp7qMkoEuPfMLAQDnGQC69HR4l555WzACQd1cbOD9bn1qpACA8wAA3UYJ02NghCi/oHEQ6DKwhW1aRiIAYDYCQDmX2IMCSLeBTe82SlqEYJ+gieo1StCpZ7tatEzOyJP+ZMu1AgBmBwAunks6tfPJ7oviL+42SnYJk13QKSFgYI/suDX22r6rxAIAZgMAui6eSzoNc+/tuCJtWJjkgqYCAasqbbTVQN3fqRAA4NMA6F6XRnrWSX7eYxAmtqAzg0C7nkW3hn58i5YRAOCTADCmkU7DnCe7jSwX6RUk6AzEpwnRoZM8X6MWCwDwJQB0rGNJrzH1WWEiC3IHBOo11EvFmhRSLgDARzwAE/Nst0GYwILcAAETVzlYo6VfKlUKAPBuAFyeRrpN9GOC8QtytyfQaZCgSkk9X6YQAOC1AOhal/bzHmHCCvKAeo0SWHUMNqmZJ+sFAHgXAA6y0aTtsvn3dwkTVZAH1WeSoFXPonbt3J+/K4kmDxFCniKEPE0IeZYQ8ptplE8AYCTM32OyhQU4tWdR7JXWy9NswiQV5HFPwCRB+7pUvD83+vanQvzJCyH+5Llgf/J4gIj8hJBpk08AYLshxWPq1tOkyyQhnWtTV3UZJTuEySlouuIBfcZUbNbSB77KSVH9KzuZvLUynlxHh5DpfHwCADt0yR5Tj5Yi3QZW3G2UtAoTU9B0ZwZ6TRJsUlFbP8xMuuAvGfHkekoAwLQCoFtLRXYZ2EphQgqasfSgSYICOdX4p/T4xOsEAHgeADt57dAlkx49+9duA5ejFSRoJsSVDEvwXU7KZ1eJg/0FAExQn1LiNvUrJKRHzZBOPUt6DZJfCBNQkFdAgP/60pK4FwQATFCPYo7b1CefQzrVLLHqJcZOQ+rhLq6vmyBBMypH0Vmbjh1+cH7MDQIAXNSROe+c1Zk1j/TJU0m/LJV0q9i4DgNrFSaeIG9Th14Cs5btv5qOuEAAAK99N8Wdm26OI3tviCfdagnpUaWKurSS/3QZWWHCCfI6L6BLL4FVJ0GxXFwSG+QXJgAAIPgdOTe9TAieI6TDwJJOg+SeTmGyCfJS9Ri4HgIdehYvLI57NlAkEgCAZ8m56TlCRp/wI506dnmXXnJUmGiCvBoCRgnMWhatOnb4h2lRxvMeACNP+J+bnvQntkcCwruNTFmXXphggnxgK2CQoEnLoEAmbpwb5c+c31kAXdrZS8+p2yR5TJhcgnzJC2jVsWjUMHg9Pf7VQD8BAGelbm0a6dKmLe7USfYLE0uQr3kCTRoGm9X0keuZcON5C4AtF7Nnpa2XsKTXxPp16dmNs2FCdGrE6JDFoiM7Au0rg2Bd4Q9rugjWZQTWpQTW5QTW5SK0ZwSgfXUIOtZEoFMej04t5dvj1lLokMdx414dzI17ucu4lxFY00VoX+GP9lXB6FgTiQ5ZHD/uVJ8GQLtegladBF9kp9RLwgJizksA9K+TnJW2XCIhvUbJvZ2+uu/Xs+hUp6AjNwYdWWHoWjsXW+41Ytszd2HXG89gz4evYu8nb2DfF3/H/m//iX3//Sv2ffImdv/tJex85RF8/9Qd6PuBEl16Bh1ZYejIjUGnKhldetY3xi2NQXtWOLoMEvT/UI1tT9+Bna8+ij3v/x57P30L+/77V+z/9mPs++Lv2PuvN7D7/d9j5+tPYNuTt6H/R1p0GSRozwzlYKARe/+4T5IVaNKy6DFI8OJF8c8TN2cFfGMLYJhzRuo1zCF9hlTSY0id02WQbPWpX7qWRqcqGZ3qFHRpKfTfrcOuN57BwcIvcLTTgsFd2zB09ChsAOwARniNuvzZDmB4ZBRDRw7j2PZ+HLU24WDpN9j9zgvY8pNL0GVM5X6GKtlrDKNTS3Hvo0xGl45G/z0G7H77eRwq/RZH25txbMdWDB09jOHRsVOO2wZg6MghHNv5PY52mHFg46fY+YeH0Xe7DF1aCp1qbtxdOsZ3vAA+INikYfbnxIWsPv+2AAbmjNRvYEmPPpV06yUvdxlY33FzpTHoUCai97oM7HzlERxurMTgwf0Yttth5ye4Y5LbRscwbB/BsN2OYZsNw8PD3FebHcMjo7CNwQkJh4btIxg6chBHO83Y88Er6L9Hjy5TGjpkceiQx/MgmEaX2ZjKr/TR6NIx6Ltdit1vPYfD5hoMHTow+bjHgOGREW6cruO22zE8MgLb6NiJ4x4awuC+3ThUlY/tL9yLnquXolOZiA5pDLq0tE9AoFnLolXH4KPMhA8jAkSB5xUAxq4RTV3XisjQVQGk3cCmdxjYI50GFt4rrklke2402qUx6L01B7v+9hKO7fyem+xOYx89PtnPVjYbbCOjzn9zeHQMw8eO4WDlBmz79Y/QddlCWFcHo0MRj07uaivPyShBp46GNTME7Yp49N+/Dvu++BsGD+7DMG/ANgC2EXeM2+6EAgeQMQxs68POPz+FnutWoD0nAu2yWM+P+RzUZWDRrmdRq6Zh0THDhuTQS86vQqAbydR1EyFj1xDSbmA/82rjN6aiUytGW4Yfui6/ELvffxmD+/dyK507Jv4UgOBYYUcAHGmuwrZnf4gOZSKsq4PQqaN5QLnf+DsUCbCuDETPrTnY+/nbGLaPOj0Uz47b5gShHcCx73ux889Po/Pi+WhbGcCN2UtB0G1k0aihUa2isUGWUhIeKEo8bwCwXSueoiiyXScmuy6J03ToJV5s/BK0y+PQnhWK75+6HUfbGzHiWJmHhjxr+BPF/zwHCA6WfYv+e3RozwxGpybFvRDgx92hSsT2/3sYg3t3Y5SPV8zEuB1jPtxcha0PXwtrVig6lIkcnL0QAFY9iyoVhXoNjVtTw+8khAQQQkSzHgDlS3KnpsUyUr40x79Fm1bszat/B+9y7v3kTdj4SThss02/EUwEwcgIRgEMHTqAXe+8gE6dGB2qJLdtd9qlMei5fiUOFH81bn8+Y2MeHsKw3c4FEO027Pnoj+jQiNEujfbKedNj5AqDqlU08qQpjREBojk8BGY3AMyXLZuSmi9bSqzaeZd36RnvNH49jXZ5HHrvkONwfdnMrfqnBMGw0zgPln2D3ptWcwZxtu6xUYJOHYX27HBsefAKDPRavW/cvDdgB3CoMg+9N2VyY9bT3uUFGDgvoEZFY7Oaxk/mRT1ECAkhhPjPagA0X7NgSmq5biHpWsuWdXobABxGII1G//3rcLTHenyv7y2GP0G2Mc4zOdppRt/dOlgzQ9ChFZ8ZBIwSdGhS0L46CN8/eSsGD+w9vtf3xjHzKcaBnjb032dCe24UDwGJV20F6jU0GtQ0vsxJsSSEBKQSQoJmNQDy5eS0Wi8jpFkbf22PcY7N+4yfhnV1MLY8cBmO7djCGYGng3xuCRRyQcLBHVux5WeXw7oqiMvXTzXDoRXDuioI3z99B4aOHObGPezl47bZuADhtj5s+dllsOZEoNPAeA0EugxcOrBKRcOsZcYemB/9MG/LAbMWAFXqsNOqUhVGWnTJ+d1eGMCxrgpE311qDO7ezu33vd3wJ8gO4Nju7ei/fx3as8MwJQ9Lz8CaHY4tD12FwUP7OZffx8Y8uHcntty3FtaVgV6VHegysKhR0zBrGfwrM7E+KTggiRASOGsB0G2ac1r1GNN0XQbJkLcZf3tOBHpuWn185fcx43fdIw9s7UXvHfLT1woYJWhXJKDvDhmObe/3vjjHFDUCYHDPDvTclMllRYze4wWYdTSqVBR6DJKRW5jI+87WC/CNnoBG5rTqNLD/9Drjl8eh69IFONxSx6/8Nt8EgItBHGiqQvslF6BLKz55lkMrRue6uThcV+q70OO3A6MADvdY0XHVRWjPjfSarUCHgUsJWnUMPlidWJwS4h93NsFAnwBAp1EyqbpM3NcOI7Oi08Ac86pUn1aMDq0Yez9/z3f2/KfTyAhGAOz4399hzo1Gl46a1PVvXxOBPR+/zkHPiwOdU0kT2mw2jADYlfcZWrU0VyfgJXOsQcOgSkmh28iOGpLDrudtOnDWAaDVID6p2gwUaTewL7TrOSp6hYwSWKUx2Pb8vdyqPzrm+8bvsjceGh5G6+O3ojEjAN0mybhxt2WGoP9nl2Ho0AHfXv1dswM2O2wAuv7wCJr59OBMz7FOAwuLjkW5kkKbnsHryxP+Ee7vF84DQDSrAJAnJ5NqvYyQMmVgYrdxTofXGL9BgnZ1ErouvxADPVafC35NRWMADlibUGWYi+Y1kegyStBhkMAqj0e7KgkHa4uPFzfNkjHbxoCBfXvQcLsCFlkcP+aZBQBXGUijSkWjXk1tnxcekHumXoBvZAE04ZNqkzqc1GljruwypKKD76TqDWpbHYo9//oL7GOAzUtz3ue6FQCAzteeRulFfrBqaXTpWbSu8MO25++FfWwMw6Ojs2zcXHpwR+FXqMiOhVXHBeNmao518mpQ0yiTU2jVMrhjTsSjAX6iYEJI8KwCQK9BcjIFdRnmfOVNxm/NiULvnUoMHjzgBaWunssKjAA4un0Lqq/KwKZVYbDK4tB1yQIcMddwq/8sHLd9bAy20VGYn7wLlSvD0MEHBGdqrnUZWLRoWZQrKGxSUMiXijdFB/ot4guDAmZPQxCNeFJ1a6jl7Tp2xFuMv11Ho21lEPZ+8T5nBHb77DN+lwg5AHT836MozgjD5hVB2P6rH876cY8BONBSj1J5CurkiegycCvxTHkBjtLgMjmFOhU9pksMvZYQEs6XCItmRxZAz0yqDj3ztFe5/llh6L1DjmO7d8ze1X+CF7CvqRqVmlRU5iRgf8nXs3b1P+4FcCXSbb++D4WLCcy6mQOAwwtoUDMolVPYrKLxp/SEdwkhYkJI2FS8AB+pA2AnU0C7nqn3GgDoGLSt8MfON3416wJgpyubrb9dhdprVmNoeAi22ez18AKAPVVFKMtJQGVOPKwzCIEuAwuzlkG5gkKNksbXOSkdkYF+ywkhkVM5I+C7ADCwGR161uY17r8sDp0XL8ChzWUzUu5rGxkZ3z5rmgzRDqDnL8+h85XHpj/tZ7M5D/BM5+Eq29gYbIODMD9wDQovJGjUzPA2QMeiWkmjUkFhk5IavSU14jZCSDQhJPR02wCfAIBVS5+gdh3zkndF/kPQ/8DlsNlsXM+6aXDBbXY7RsE9Y7wBDB09AtvoGByPx3sN2EdwoLUR+y3103PKb2gINr5vgWN8Q8cGMDQ4OO570+EF9P/jjyheFowKWTJaZ8gL6OS9gM0qGqVyCo0aGq8uj/+IEJLAewEBPg+AFrV4ovzadUyz16z+GhpWaSx2/uVZrsPNNOyBHZ1w95tr0ff+K2h75m5Yfn4Dmu+/HJZf3Ajrr+/Dlo/fwOFuK0YdzTc89T52+7QZv6P7755Nheh+/Wm0PHYHmn96JZp/djVan/oR+v7+Cg62mzHqaJzqod/FCIBD3W2ouXIFSlaGo05Nz5gX0G3g2oWVySk0qGn8Nzu5jwr1X8oDINjnAdCuYyYqq0PPHvEaACiS0HnxAhwo+cbjbrBtZJQLvtVXoOWx21G97kKUpIegcAFB0RI/FC8NQNFiEQoXEJSujEDtFcvR8eKDONTbzrvJ7jdUm93u+S0H7+0caGmA+aHrUKliUbxYhKILCYqXBqD4ogAULiQoSQ9B9dpF6Pj9IxjYu9tz3gD/Ppaf34CipQGoVFBo0zEz5gW06FhsUlKoUlKoU9O2O+ZE3sVnA8IIIX6+3RZ8DePU1iyGdKnZp9qNXpT7l8Wi58ZMDO7ZwXXw9eCqbx8dQ+9fX0alLg3Fy4NQuioS5dJkVChpVCiocSrPTUJJRhhKMsJQfcVybP/6n17fiORk8Y1RALvy/4cq0wUovsgfpaujUCEXnzhmKTfm4ov8Uf8DrdMD8tQ2oOetF1CWFYOy3GTUq5kZLQ6qUdEoV1Cw6lg8c2HsO4SQCF6Bvn0zUA7j1JZshnRq2K+sRq5VsjeoTRqD3nsMHi375Vz+MXT8/mEUZ4ShZHU0yuUpKFdQJ6hMQaFUzktBoUSajMKVESiVJqH/w9c599hu9410HX8ib29NCSq0c1CyMgLlcjHKFfTk4+ZVkpuEgqUBqLtLj4HdOzwCgREAu0q+RaV+Loqz41ClotDu8AqnWZ0Grm14qYKCRcfgnYyEmhB/EXW6mgDfCAIaJbxSidUoYdr1bK+3GH+7joFVkYjvf3WXxwDgWAF73/8/FKUHoywn4ZSGX85Fg1GtolCtolGj4tpJl2dGoyQnEdvy/4sxHynYsQM4tn8P6m5VoDQz5rTjrlKOH3NZejA6fv8wbBiD3c3emW10DAN7dqLmqgwUr45CmYJCs5Zx9vGfbgA0qBmUKShu7Ep6ryE5dC0fAwjzbQCo6ePSMDe069lR7wEADauWws63X/AQALgVcF9DFUrXxKE0JwHlyhNXv1I55wJvVtNo0jBoc7iGLpVqbQYJ6laFov7SxTi8rd9jrrF703yj2PrZuyhdHTWp8ZfyX+vUNMwarjLOkR/v0LNo09Jo1rI42FrvkfiMHUDdDzQoWRWJEjn3+XfOAAA69Fw9gGMr1KlncQsb8TRfCxB+sm2AbwBAlsJJmkysaur37QaJ17j/7VrO7dvz2dseAYB9bAxDx47C/PPrUJweinIlc8LqV6agUKOm0aJlnCfFOk4ySbqNEliWibDt9adgt9s9GrNwh+czNDiI+rt0KF0TP+nKX6WkYdEyzk45E8fdYWDRLo/Hznd+y6Vn3ez12AFYnrgDpdmxKJWloEpJo03HzggE2vhAYJmCQpeBxZMXxHzKxwDC+JoAn68D8GvXsd95jfE7AGCQYN9XH3gAAFyl3b6GSpSuiUO5nJrU+OvVtNPwT//OElgViei8/EIM9Hd59Zl92+gYDvd3Y5NpwQnbnjIF5+pPxdisqiT0P3gFho8dc3u60g6g+8/PokyahDIZF5Mx80CaCS+gSsV9No0aBl+tSamThAUs4Y1/0m2AbwBAL3Fobrue7fcqAGgotBvnYH/e5+4HgM0Om30EPW//FqVZcZOugHVq5qQr/qnUmhmG/fn/8epuRfYxYN/mclTq56IsN3Hc2CuVFFr44pvTjdWqTELPbbkYGjjqEQD0f/wnlMvFKJMlo0TOGd9MAaBOzW0Pq1Q0mjTMXml88OV8EHDSbYCPlAIvIB3GC0i7Ya7BqmPgdQAwzcGBwi+4m2vdnF8fHhxE8wPXcnv/CcZfo6LRrju7qHNbbgx2vvGs8648bw0A7ir9DpW6tHEAcKxwUx23VZmErusyMHT0iNurNO0Atv7nryhX0CiTJXOHctT0jGQCOvRcILCcjwN0GVlok0IfcokDBPsmAAxppMMwl7TrU3/mlQAwpmL/hn+73QOw2UcwNHAUdbfIT9gDVygotOiYs55oVnk8vn/hxxgaOMpVzHkrAIq+RoV2zjgAVCpoZ5BzqgDovjmbA4AHPIDt3/4L5UoGZVIOADUq2hmMnG4ANGuPx4g69Cx+Oj/qz/4iEsUDINQ3AaClOemYd73K+F1iAHu/eN/9ABgZwdCRw6i5csU4ADhc/3OZYFZlIrb88noMHT7gds/FvQD4ahwASvmIf/sZAqDnDrnHtgA78r9AhZpFmTTZGZhs080MAFr1XCbAkRn5T3by+uQQ/4U8AMIndg72jbMAF88hretSo9t1bJn3AYBGu5bGrg9e8ZwHcKviBAC0aN0AgF9cg6FD3g2AnYVfoULjAgD5mbn/jiBg7490GDo24BkArP8U5WrGCYAziU+4W1Y9i0qloyaCRqlC3LIgMlDBZwNOiAP4BACGIgPJQTp8Qcu61D1eBwAdA6syGdte/rkHAMDHAB68xhkDKFNQ2KQ6Mxf4pAB4+FrvB0D+F6jQpDoBUCLnim3OJMhmVSWh7/6LPZYF2Pa/f6BcycUAHJBumaFUoFXPcgVQPIga1PShxZFB17iUBYf4HADG/ETkaFxIjuWSVHgjANrkceh/+FrPZQHe+g1Ks+PGBf+s5wkAtn/7b969TnICwHzGAEjGlkdvxPDgoEfqALZ8/IYzC+DYplh0M5MJaNdz14aV8SBq1bHIiA66hzf+yIlxAN+4F8CYStqMkpusPOG8Ta3SGHTfJsPwoLtXGL4OoL4CJdnxKJOLUcJX+1ldiH82alMmov/hazHo5QDY+vl7KFMyKJUmoUxBoZj3ADoMZzBWVTK+/93Pjh9ddvM7dr3+DPd+shSUuUDqTN7RndqsZlDqki25f27Ur/0ISSKERE08HegjdQAMseqZZ7wWAPIEdFx5EQ6ba9zuBdjHxjA0cARNP7sKRekhKFUy5w0ARgCuBkKajFJZstO4zgYAO996jjN+m/sB0PL0D1GSHYcyudgrANDgAoAaFY23MhLfjwgQLeABEO7aJMQ3AKBj/a069j1vBUCbKgVWLYU9n77lgfPn3FmAPZvLUJwVg+KcBNSqmfMCAKMAzI/dzh20cTGuMwMAgzZ1Cvb8+02u3sHNRU+2MaD+Lj2KV0U6KzNLFBTMupkBQLueRZP2OAA2KWn8Oyvpu9ggvxV8m7BI10Cgr3gAEVY9k+etALDqWbRkhmLLk7d7pC224zRg97u/Q8GyIFRIk9A2ywFgGxvD4IG9qLkuC0Urw53GVao409WVA8CBsm/5cdrc6p0d3fE9qq5Id54GdL7jDAKg2QUAlUoK3+aI6xKC/WU8ACJcC4J8AgBtOjahTce2W3VcA0Svk55Fa3YEum5YjWPf93qkvn4EwMjoKKwvPoCi9DA05cajXcuc9Tu3KRLR/wvvBICNb2nY+7f/Q0lWHEpzElEmp1DG9zgw82nAKY1VQ6PdkIqBvg63/15GAOwqW48K/Tw+RnP8WLJFy6JjBuZiu46FRcu1CS/jT4gWycRbk4L9TYSQGN4DCPEpANSto9g2HTvgtQDQsWhTpqBNGou9//sbd8zWA/X1I3xLr663fosGXRpaMsPRmhsLq5qCVSfxTQDwpch2vsfhGIDRsVHszPsvKnTzULIqepzxl8l549JP9feSjJ4fKHBs7y63x2cAoPsvz6MkMwaluUnOd6xUUGjRcsY4EwBo0TLOz6yc01BKsP8VhJA4l0CgyGcA0GBklniz8TtkSQ/All/eCNuI3WNGZRvljGVvTTH6Hr0ZHZddiJasCFiWidCSEYSW1WFTkmVFAPp+ehmG+euvHa21R3kj9IRO9jguExnYvRP7zZvR/odfolzBoCQz1jmRHcZVwRvXVFfXNmkctj77IwwNDLj3d2LntmXND1yLwiUB496xWkGj1YsAUKmgsCom+CZCSCK/DQjnMwEi30gDauYofAEAbYoktCmTcai21OPNNhxGe6ixEjv/+iK2PHkH+h66Gr0/Xovee00n6sfr0PfQ1djy+K3Y+ut70P/ojdj+2uMY2N6PY9v7cbTHiqPtzTho2Yz95lrsN292jyx12N9Ug711FdhTXYzdlfnYVfIddhZ9je3rP8XWz95D91u/Reuz96LuNg1KsuNQlBHOp9TocQAolnGXXzgm+um3ZhK0rAzG7k/fcvtFrSMADna1ofqKFSjOiBj3jrX8Ia2ZAwCLcvnxz26TgsbNkvD7CCE07wFE8CXBPgIAA3uFLwDAqpfAku6Hrc//GLbhIQ832xjCsM3uXLUd/f8HD+zD4P69zq9Dhw9ieHQMNgADW7qxv+hL7HznN9jy7I/Q94tr0XPvWnTfKkXXjVnouWY56tYtQpnhAlQaF7pHpkWo0M9HuUqCUqkYpWsSULwqCkUrwpG/iCBvHkHBIoLCpUEoXhWJUmnyOKOfCIAGNeO8DOO0UlNokyfisLnWvft//l7E3vdfQeGyYJTmHn/nYvkZvqMHANCqZVGpoJ1bpioljV8siH6CEJLKxwEcjUJ9BABa5k6fAIBj0uXG4mB1IZ8SnKaz9iMjsLm48g4w2EZGcaD0W2x7+SH0/ngdOq9OR5s0Di2rQtCaFcnFEbKj0JoTjXZpLKqyYlCwKhrFq92nktUxKMmKRUl2HErWJKA0JxGlOXzhzEmM/QTj5yey9QxW1pbMCPQ9eBUX53AjAOxjYxgeOIrG+69AwSLi9FQcBmfWeB8AXlgc95KIkAtcABBECPH3jSyAhnnEZwCgl6A1OxJ9D12NoSOHPNop+GSFKSMAhvbvwe4PXkH3bVJYdQxaVoeiJTMcbbJ4WDUUrPoTg4adehY1ShrFMmrKhnmuKj2NHP9djYpB25m41VoGlmUi7PrXX/jU7Ihbg3+7yzdyUFsT73zHEhnnbrfN0P7/ZACoVtJ4ZVn8W34isoQQEuuSCgzwFQ/ghTYd1/PMV9QqS8CeT96apo47Q8722UODg9j1xT/QfvMatCqS0ZITjVZFItr4lOFJ31fH5ZA3KWkUyriCG4dKPaxxUHDpd7BJRaNWRaNZyxm/daqfv14CS1YE2q9aiqM9VrcWZ9kB2MeA1mfuQf5iEUp5QyuVUyiSccbm6M83E7LyMYAKBe383VUpabyRHv+xv4gs5wHgaBUe6CN1AMwffA4AiiS0X7EERzrMnr0ye2gINvsIAOBQbweaH7kFxdmxqMiJR7U8BbVqGpvVXPmwq2r51tk1Khp1ahoNagbNWga1KgZVKu7rZl51HlC9+rgaNZyaNAyatAwsLgZvPRPDd0jLwJzuj22vPcGnTkfdWpW5v7kWpdIUFOckjgNZCb//7/ACAFROAMBb6Qmf+YvICj4VGMEfCgryDQBomdd9DQBtWgYtubHo/emlGDp6CLYxD9xTx1+UOQZgb105KtdeiIKlQSiVpRxfwWVc8MzxtUhGoUAqRqmcKxOtUXHGb9YwXO56uo6tniqbci7SS2BZHYqOq5fj2NYebr8+POSmvT8wPDIK8y9vReGK8HGrf7Hs+DHgmZx3JwPAeysTv/AXkVUuW4BQQkiwr1QCvuVzANCxaFOLYVkdii2/vgfDxwbcnhVwGP/Ooq9QnBWHgqWB4yalq4r5SbpJyXUTMmu5ydLhYpBts0CtymS0SOOw+5M33VyQxdVL7Cz8CsWZsSes/CUyCrUqBh1eAoCKEwHwXYCIrOY9gEi+GMhXAMD8zVcnpHlFILp/fDG3Crmx957javBdpetRkpOIgmXB3LHZSYy/RM710WtQM2idhUY/zuuSxmHLE7dyWRE3nsmwjYzi6M5tqLkhlwcAPe7zLVNQsJwmzjKTAHh/ZWJegEiU6bIFCCeEhPjIFoD9yBcnZIs0Fh3XZuBwe5Pb89Aj/H0B5fr5KFoZManxOyZAnXp8ZVrbLFWrMhldd6pxbM8Ot8dd7ADafvMACleEoVQmPuFzrlHRXvHZOgBQ7uIJVilpfLAysThAJMpy8QDCCSGhAgA8NRnVFFrVYuz5+iP3Gv/QEOwABnbvwOY7tChaGTmp218s4yLpzRru6PBsNnznZ65KwZYnbsORtgbYRuzHP3c3gGAEgPXFh7i9vyzlhCyG2QtWfwcALFoWZfJJAZDtmwDwtS2AXoKWNdHof/IODNvtsLmzF73NjhEAbb99EEWro1EyYTVy7Pc3KSlnUK9Nd/6oVZGEVlUytv72JxjYtY2vkDz3m5BtI6MY2L0DtTfLUZwZ49wCFMu5vb+3ANbqchqw9MQtQDYhJN6lP2CYEAT0hDQUrBcvwJEOi9tX/zEAuyvyUCqjUDQhGHXc+Okzy5vPJuklaNNQMKf7o+O6lRjo73SWSbsjCLir5FsUZcU5Xf9y/nCStwPgr1wQ0HUL4EMA8Kk0oASWVcHY+deXOON34607ttFRDB89jPq716HgosCTBvu8aULOJAjM6f7ovC4Dgzu2uAXE9jHAPgpYHv8BCtPDUKqg0ahhvMrLsupYNGuYcQVcVUoa765M/MqfywLE+x4AfKgQqEUWh/arlmFga4/b24MBwPdffYTCjHAUZ8edYPzlChoWPtjXJghWvQTNGYFof/ZeDA4e42sCzs0LGAOwv6Weg21uIqw6iVd93lYdi8ZJAPBWesLn/iKy0iULEOkzAPCdUmAG5uV+2Pne79xef24fG4NtaBBNP7sGeYvICYE/x6WUs834WzXUOf59Gs1KMQ40V7vlXIZ9jDto1fLr+5F/oQhNXuZtWXVcU9CJAOBLgTN8MgbQqmUebuXr1b1ZLblxaFu3AIdbGzyy+u+uKkJRdjyKsuPH1eoXyY5fld3mA5/TKT9DtRgtsgRYsiPRnBEEiywerTrJuf2b8kRsf/PXHJDd0BUYAHZXFKAwKw5lOfGwaL3rc9+sZlDsMj82KWn8YWnCW37cWQAfBICeucsXJm/Tcj/0P30nRkZH3Vr1ZxsZxSiAzjeew4YFBCV8kUeJnEKRo0+elkv3uW08WpozRlUKWpRJaJEncoYpjZuyWmTxaJHFj/9+bgwsOTGw5ETDnBUB8+owNGcEoXmZCE0XEViyItBqSkPHLTnoe+wWfP+Hn8N68UK0aqizB4AyGd0/u4K/GcjunuPAxwbQ8JMrsWERQa2a8SoA1KjGA6BSSePZxXEviwhZ4psA0KVe4fUrlzIFFlk89nz1IcbcXIQyAuDorm2ouVmBgpWRJ6z+tfxNQWe/6lKw5MTAvCoEzcv90HQRQXO6P8xZEbBI49CqSkGrXoK2tfNhvezCKavt4gVou/gCl+8tRvs1K9B+3Up03JiFrjvV6LlvHfoevRlbf/MTbP/zM9j92dvYX74eR7d0YxTA0f4uWC9dhBZl8tmPT5GEjpvceTsw3xDkH68hf1kwSnKTYdZ6z1ysUtEnAODBBTFPEEIWugAg3GcA0KJh5N4OAHN2JDpuycXA9i1u7z47BmB3VSEKloeiRCYeZ/xlCgoWR2fis1gZLVkRaFGloPseI7a++DPs/Nvvsed/72Pfxs+wv/gr7C9fj4PVhThUV4pDTVU43FI3ZR1qrsah5upx3zvSYcaRzhYc7bFiYPsWDO7bjeGh4eMNQXnZAdgA7C9bj7a189GiSjknALRftYwDgJtqMkYAHOq2YtMVGcjPCHdWAs74QqRjUcHfoFTikhm6gQm/nxAylw8ChjsOBPkEAOrXipd4NQC0DMyrQ9HvuBfAZnfrgR/76Bh63n8F+UuDTnD/a8509ddLuBVfFo+Om3Ow68M/4khrPY7t3u7MdY9OohEPyO5i6LbRsRNy9TYAByo2oG3dcQC0nS0ArnYvABxNQRsfuAZ5SwKc27CZ3Aq08QBwXKBS4tKmfGVM0C2EEIkLAHznLEDdOopt0bEDXuv+q1LQokrBro//xNegu7fDz+CRQ2h++GYUZcY4f7HFcu4CiqYzmXR6CVqUSbDkxmLb//0Sx/bsdHYQchji8MjINDQwmSL8AByo2AjrxfO5bQg/wVvOCgDL3QsAPhjY9eZvUJQZi6LcJNSo3RyHOQsANGvZ4ycUj2eIhpJD/K/km4I6GoKE+QwAWnVsQquWbfdaAMgTYb10EQ7UFLvd/bcDOLpzGyovXYri3KRxAKhQnmFgTC1Gc2YYvn/tieOr78govOlSkIkA2F+xEZa181CvSMZmFYMyBY36Mwy6eQoA3MUgG1Cmn4eCrDiuZfkMZmLadCwa+BqAEpdTivncxSDrCCEpLh6A7/QDaNUwEa0aJq9Vy/U78zZZcmLRcX0mju3b4/Yz/yMADlibUbwmCSVSMUr45h4lMgqbVVz/uam+p3llCLrvNmL40EGuuYWXGr4r/HaVbUCZJg1F2YkollEolHJdd6y6qY+7RZ6E9qvcDwD72BgH58vSUbAyCiVSCvVqxtmXb7rVpmWxWcWMmyPlcgpfZYvrEoL8tfy9ADE+1xGoVcv6t2rZ97wZAD33X+KBK8FssI0BOzb+B8VrEk8AQJOGnTIAWhQpaFGmYM9/3+caZXiqRZm7AVDKAaB4TSJKeAA0egkAHF5K7Z16FGZEoUjK9QS0ziAAqvmmro45UiGn8c/VSd/FBvlJCSEJLvcD+k5PQIuGJRYN84xXAkDDoEWeiC3P/dj9HYBt3EnCnndfRnF2gvOXWiyjUCbjav6nDKnsaHTctAaD+/ZyATcvN35fAYAdgOWpH6EoMw5FuSmokNOwaFhYZwgAFXJqHACqFDT+kp74fniAKJ33AKL4MmDf6Qps1lHEoqNv9EoAqGm0qijseOt59wPAbsewzQbr735xAgCqlPQZQcqyJga9v7ie91JsAgDc+I6drz2D4pwkFOemoFh25u/nNk9UwzgvUHHMlXoVg7vnRD0rImQOISTJ5RyA79wLYNZTxKyjsy1artuJV0nNHQfd/enbbgeAzc6dY29+/AcozE5AsUtjz1oVcwbvSMOiSMb3rz7ukZuLPQ2AUk0aitZwMYACPgbQppv678giT4KVB4DNAwDo++gNFEvFKMpNRoGUwmbVmb2fO9Sq5c8A8PPDAYEmNYvl0UH38AFABwCiCCEBPnMzELcFYBdYNOxurwSAToI9X33gAQCMYOjYMdTdexkKs+LHAaBBzXCr21QMQMVBatc//yQAwAMA2Pq/f6BYTjsBUKOkuezDNM7DNh2LWiXjnCPFMv6iUiV98MLIoBt59z+BzwBE+hQAWjQS0qKRRLdoJKVeBwAVhRZ9KvZu/MwzABgYQPXNyhMA0Kw5EwCI0WKYgz3ffDztNxWdDwDY9t2nKFYwKMpJRqGUq7yzOLYf0wgAx6UujnlSLqdRIBWb54cHruUBEOtyDsB3Lge1aGlezDveBgCLikKLYQ72FX3pfgCMjGDo6FFUX7fGCYAiGYVSOQ2zZuoTzKJMQatpLvYVfSUAwAMA2FHwBUqULIpykrnybDmFZs30AsCiYVEm52IkDgBUK2n8OzP5m6Rg/1W8++/IAIQRQkSEuM9uPQqAdkMaaTemkVZ96k8tGsb7tgD6VOzd8KmHAHAElVdmjANA+VkBYB4OlH4rAMADAPj+m385PYAi3vV2pGina/VvUDPO+eEAQKuWxY/nRb3uJyIUHwNwZABCCf/4BAA6jAtIl+kCYtWn6S0a2itjALu/+IdHADB49AgqL102DgBn6mJalCloXTsfByrzfA8AZd4PgP7P/4piGRcDcBhfk2b6AoFWHYtaFT1u9S+RU2jTslAlhj7CV/8lu2QAgn0KABadxKE5LVq21xuzALv+/ZaHYgBHUXVdzjgAbFIerwGYkgEoUtC27gIcaqqGbcyHADAG7K3fhFLNXGcl4NkCoOPWXAwNHHVrlyYHAHo/+rMzC+D4HTVOIwBatSw2KWgUSMfv/zermF25ccE38/v/+AkpQN8BQIuG4aSmRS1a9lvvAgCNFjWF7W//xnNZgLsvGQeAqjMGQDLaLlmIge97faYIiGuCOoYj3/ehzHCBMw16VgBQJKHnoasxPHjMIwDo+NOvUJSThCK+DqBwGgHQqmVh1nD3ALh6ALUqBv/JSqlmQwOyCSFilxLgCD4D4DsAaJenkHZ5CumQJpNWFfUHi07iPQDQMLDIk7Dl1/e6PcVms9sxbLej/ZUnUZgV55xc1WcKAHkSun6ow9CxY253gT0KgJERDA8OYfMPjU4Ang0AzLlx2PHXl/mTjna3A6D50TtQmBmLYqnYeV6hUT09AHDs/4sm7P+tOhaPXBDzCW/8tEsAMJzPAPgOAFrVNCcVQ1o0zPUtWnbUm7wAc04suu5d65Ecux3Ans3lKMqKR7FMjELpmQPAnBuHHR+8OumZe6+WzQbb2Bi2/ufvKFgZhWIZfeYAUNNoNaThSLvZI/EPO4Ca2zUoyIgcl6adjhhAK9+FqFrFjFv9S2U0WrXs6E1sxG949z+Jd/0jXTMAPhQDYDjpGWLRMUyLlun1NgC035CFwYP73X681j4GDA0NofnR25CfHnbGHoBFlgjrdaswsK3PpwKArgZ27MB+1NymQcGqaOdpwKkaV9OqUGz70zN8r4NRt29Rju7egYorMnhAUS5BQHZaAGDRsCiXj1/9KxU0yuT0Tm1i6LW8BxDrAoAQ4vL4BAD61zBObclmiFXJfmXWeVEtgCwRbZcuwsGaIo+cCBwBcLCrFRWXLsfGZSHYJBejRSc5LQDMObGwyJOxL+9zvk253ecAMGyzYRTA3vpKlOnmY+PyMGxWUmg95TZQAotSjKaMYHT/5HIMHtjrEe9sBMDO4m9Rqp07LkZTMk1pQIf771r8U8zHH/6SnlAd7CdaRAhhJxQABfocAPrWME5tyWZIm5J9spm/BNEbZFaKYVYkY+cHf/TMUVu7HWMA9lSXoPyydBRd5I/G7Ciuxn/i+2gYNOfGoykjGGY1jV2fvs01/vCh4N9ksYBRADuLv0aJ6UKUXRSA5jUxsGhOHL9ZJUZTViSaMoLRdd8lHrmgxbUjUOdfnkfBqhgU5iShiI/RlPKFQC3TMPeqVdy2yDUG0KRh8OTCmL8TQlIJIdSE/X+AzwHArGUmKtOiZY96CwAsGgZNK0PR9/SdHAA8sdLauFtpDvd3wfzEnWgyzUfTyhA0LBWhMSMYjRkhaFzuj8bl/jCraXTddzEOVBdxk9/DXX9sdjsXsPQkCHgI7rc2o/kXN6FZPweN6YFoXObHjz8YDUsJmjIj0HrFUnz/+lMYPLDfc2cf7HaMAmh48DpsXBKAIqkYRXyQskJBw6z1LABa+Oh/qZwr/y1yVolS2KSkj90iibyfEJLG1/9HuQBA5HMAaNFSE+Vn1rLNXgMALYumzEi035KLgR3fe27S8VeDjwI40FSD7e/9Dv2/+hG6H7oa3Q9ehb4nbsf3rz+FfSXfwDY6xr3HNDT+sNlH3J5eO9n4Hf0L99eUYNtffo2+p36A7gevRvdD16D/uXux86PXcKSrDSOOdmceGv8YgIOdLai4LB35KyKcBpgvPZ6m9TQAGtQsCuXHjb+Ijw99kpnckxzsn80DwPUuwHH7f9+rA3CRRcO+6E0AMCtT0JwTi93/e9/t9wKc7IrwMb6h59CxAQwNHIXdpbW2bXR0err+2Eewr6UO+1sapg0CNvuIc/x2AEMDAxgaPDbue55+DwDoef9VbLwoCIV8CXCRjEI+n4Nvm4YtquPwjysAapU0fn9R3L8JIYt59z/WpQ14oE8CoFkjOUFmjWSFWcsOeRMEGpaK0P+rH3Krz+joNBXLjB5v8DmGaU/z2QF0vPYrdPzp2Rk4amxzejrT2eDUPjaG4cFjqP/pNVi/kKBITjv3/86j2jrPrv7NGtYZdHR1/4tllP1aJvyHhJBFLj0Awydz/30aAM0aSYBFw2z2JgA058SiZd0FONzW4LHAk9fl6UfHUH2jFFU3yWYEQDMhANhVmY+CrHgUZMU7DbBASqFMTns8ANii5Wr/iyYAoFxB47/ZKe0RAX5yPgCY6OL+h5JJHt8IAmqYk+lJbwKAwwvY9vYLfPBtZPYawtAQRgHsrinhos9yBnvqK3nwDc3acdvHAPsYYPnVvdiwSIQiGT1u/1+poD26+jtUrjjR/a9U0PjD0vj3RNwtwI4W4GE8AIJ9FwAGanLpqWVmDTviVbEAaTzark7HwLb+2e0F2O0AgJbfPIiNS4ORtywUbS//EsDs9gLGAOy3bEahNAWFaxJPWIU3qz27/2/VsqjXcJd/TgTAJgU9Kk8IuZ1w/f+S+fRfuEsDEN8EQJsudXJpU4NaNXO+9CovQCdB06oQbH/3RW5PPBu9gKEhjAE41NeF8osvQl56OPKWhaDy6tU4unsHRsZ8o+342ez9baNjaH78B8hbHurc+zvcf+56MM/Or1Ydiwrl+Nx/kYy7JerrNeLKqEA/FV/9l+R6CzA5yeMTAKhShk+qTcpwUquKubJFm+pV2wCLmoLFkIbD1kafLL+dSuBxDEDbSw9jw0IRlwPPTcGGxf7o+PNznBfgi1WHU6jI3F7wJfIzY09Y+QulFDYpPbz6uzT+KHD92Xzxzw1MxJP+ItFc3v2Pd+n/F+TTAMhXkEm1QUFIiTIwsVUzp92i4eqivUJaCZqzo9H31A+4QNks8wIAYJ+lDsUKFnnpEfw+mMbGi4JRcckyHOrv4gqiZhP0xoCBvbtQdaMMBatiuDFLKRRJj7fhauK7VXlqXrVqWVQpaOTnUs6fXcQHHjfJqa2pYQGX84G/ZJfgXyQhxM+nAdCooSZVg4YijRqamNWS5y1qLwKAhoVZScGsoLDnf3/3qU68U6l/Hz52DI0P3oANFwacYAh5i/zQ8/tfcrUIY7Nj3Da7HXYArb97GPkrIlGUkzLOAAulFDYpaLRoPGv8TXzb7wLpeAA0qRm8uCT+wxA/0QX86u/a/Td0svSfj2UBUk+pZjWbblYzR80arjzSW9SUHYPWK5fjSG/7rAgI2kZGMAag79P3kLc8HIV8F1yH8qU0yrITYFZROFhbwnkBPh0QHMKwzQbwff8KclKQvzpu3JgLeSNsUDEc+D2kFg2LaiWD/Ak/u0RGoVnDDqoSQ+/hV/5kl+Yfp3T/fQYATWr2tGpWsx97GwDMagaNqyPQed+lGD562OchMAZgT10FirXzUJCdNG4iFvDarGJhkcaj/U4NBvfs8m3vhzf+A52tKDUsxMblYSiU0hOgR6FK6Vnjt2hYNKpZFPGfsevPb1QzeDM9IT8hyO8ivvFHgkvwL/xU7r/vZAFUaaeVVZmmblFLBpu9DQIqGg3Lg9D37N0Y4av2fC5Czuf8D2/tReV1OchbGYNC2QRDyOX2oo4YSGNmJPqfvx82L7+C/HSxjqO7tqHi8gxsWMxtdyZCr5i/fcfTAKhSMMjPHW/8xTIKFjUzfB0d8Sjv+jty/xGTnf33WQCsvyzstPrmijBSq0/e2KpO9S4AaCVoliejISME2956gStb9bG98QhvCDV3mbDhohAU5opPMASuBJavheBjII3Z0dj+DpcOtflYVmAUwLHd21F9uw7fLRSdALzjHg/jPJnn6dV/4tajTsXgbxmJdQlB/ul85Z/ryb/IiUd/fRYAH11HTqu/3UBIpSnhqjbVnGGv2wpoU9EkTURTThy2vfs72EZGfMI1ttm4I7hHdnyPzfdehu8W+aFgTfIJbnAB7wa3TIyB5CagKScOO/79Jnc+YswHehLwB60Ob+lGzV1rsXFZCD/OE13/SgXjDPx5EgCVcvqEvX+xjEKtkrHfPSfq14QQCb/3d139w8gUHp8AQO2qjNOqZlUGachYTVrlc0vMWgbeBwEJmmWJaJYnY+sbv8YQf7TXm4teAOBghwVVt2mxYUkgCtYknej6u9S/TxoIzYlDU24idnz4mvMorzd3IR4BcKDdgurbtdi4PByFuSknGn+uS82/h42/nu/3N3HvX62g8Ulmckt0oN8a/thv4oTKv8BZA4DKNYunpIo1i0mNlrrUKwHAq1mejCZZInqevRcDB/ZhDODO03tLXIDf748B2Fm+ERVXrsbG5eEoyEmZ1A0ullFoVJ16FWySJqA5Nx7fv/k8hoYG+THbvS7GMQZgZ+l6lF+2AhtXRPDGT50APO4KcM8avwMA3P1+J2YdKuQ07kqNeooQciG/+idOCP6JZg0A/nk9mZI+vp6QT68holZVaoFFI/FaCJhVFBpXhcPyAy32WZsA/gz/jEJgaMhZ3z909Ci63n0ZhXJm0rSXwxAKpRTq1czUDEFNozEzAu2P3oaDW3sBgDtWO8Njto2MAABsw0Po/tsrKMxJRl56xKRjduTf61Wedfsdab9aFeOMNbi+R5mMxpdZKY3BfiI53/MvxeXY70kP/vgsAD65hkxJ/76GkE+uEZGSdTFqi9qLAaDhgmWNK0JQo0tD9wd/hm2EK6+d9rw5b4Ccww/sLM9D7V0mrF8ciPyshBNWfYfxF/BBqDNaBbUsGjJCUXf1SvR9+ZFz1R0eHpp+EPDdhQBgb3056u67AhsWB3LAkzOTGn+hjAv6WaZhbjSrWZTIqBP2/lxbeAbX0uEPEkIW8qt/govxR0x19Z91APjkGkI+vo6QT68WEYsm9V/eDACzhkWLLhVNWdGoSA/D5vuuws6KPGdzi2Gb3bMwsNlgs3MBr1EA+5prYX76HhRkJ2L9Ij8U5JwY7HON+NedQ/S7YVU4yldFov6hG7GnvtLZ2chm9/CYh23OHgajfH9F6+8fRbEyFesXijiXXzb5mItlNOftaD3v9re4lPxOfJdyOY3PslKKgv1F2S6pv+jTHfv1aQB8eo1oyvrXtSLyxZWBxKxOXWpWM4e8HQIWrQRmpRgVy0NQrGDR8PObsGdzuTNT4EgbnvOe2WaDbYSrQxjhuwQPHhvErooCmJ+6ByW6BVh/YQDyMqJPagSOE2/nWvVm0UrQLE1A2UWBKFLPQdNT92B3bamzw9CIs8PPiFui+raxMZfPcgyHt/ah7Q+PoWzdRdiwNAR5GVGTjtkR8CuR02iYhj2/mTd+R+Bvsqq/zUpmQJkQeichhJlQ9ntGe/9ZcRbgZGpSU8SiYolZRf+2SUOjWcN4tcwaBmYNjZo1sShYEYECBYva+67A1q//iSM7t2FocNDZ727U2f5rDLaRkfGrJr+q20ZGucYV/H/v7BM4MoLBI4dwsN2C7n/8EVW361CoYLExIwobM6JQkJuCAhmFAql4nPJ5lSu4yjOzO8asZWHWMNiUFYO8lVHIV6Wi9t5L0PfJOzjU24HBI4dhH+PefcwFCvYxHgynGfe4nomDgxjYvRM7Stej6cm7UGK6EBtXRWNDejjyc5JOGK/rmMvkXJ99yzTNg2YNg1I5hfzcE9+nWcPg1WXx/w70I4t540+akPcPImf4+MZZAFXqGatJLSGNaklqo4bZ4u0AcJ0A9SoaJWsSsDEzDhsy41F2yTI0PXU3tvz379jXUo/D2/oxePjQOOOe+Izy1XeDRw7j8Pf92N/WiB1FX6PjLy+g5u6LUSCjkJcZi7zMOORlxaMgN/mkRrAxV4xCmRjVSmrcJHWXLFoGm5UUirITsHF1HDasikGRag7qH7wO3e//H3ZVFeJgZyuO7tzGNT4d48Y38XHCcWwMg4cP4sj2Ldjf1oStX/0Tlud+ioqrViM/OwF5WXHIy4xDfs7Jx5wn5cZc5aExn/Sz0DCoVtLIm+SdNiloFMvEu9Kjg67kS35dq/7OeO/vW3UA2rlnpRrtfNKgSb27WU3DlyBg1jKoUdEokomxITsRGzKisH4JF5SrvCEXDT+/CW1/eAyd77yE7g9eQ//nf8OWLz5E7yfvoufDP6Hjzd+g5cWfo+HhW1B5gxQFUjHWLwnEhuVhyMuMO6nBjzMCfgUql3OrvmUaVr4qBY1CqRgb1yRh46oYbFgWivVLg1GsSUP17Vo0PvYDtL70CDrfeQm9H72Bvk/exZYvP0TfZ39D9wevoePtF9H68iNo+PmN2HSTDAU5yfhucQA2ZkQiPzuB83BOMe6Nucc9nXr19Bm+E/78JZ/5E96rUCpGi5bFw/Oj/uhy2UfihCO/Z7z6+wwANmvnnZVqtfNJkyaVWNT0Bl8BgOvK2KhmUKmgUCjjVqW8NUnYmBGF9UuD8d0iEb5dQPDNfIJv0gi+TiP4Zi7BN/MIvr2A4LsL/bB+aTA2ZkQhPzvxlBP/hBWfN/w6FQ3LNLm/jjE3qBlUOkCQK0Z+bgrysuKxcUUE1l8UhO8W+XHjnseN9+s5/LjnE3y7gOC7RX5YvzSEM/o1iZNuaSYqL5f7fMvkFGpVNMzTOGaH8TuO+uZP8n61Khr/Wp1cT4UGZPJVf4ku7b5PuPBz9gFAk3rWqtNISL2avaBJxez1NQiYXYyiSslF3/N4Qy1wk/JdxPWV41Y/h0HOBPjMWm413KTkim7y3Txm13EXSimUKyhsVnFeYot2Zn7PlQrK6XW5qlROoUgmPqxODL2Tr/hLcin6CZ9qzb9PA6BBT5+DGFJvYEizln7E1wDgujc08x5BrYpGBe8VTGbEU5Gra1kip1DJG4AjwGfRTq/7eyoQNKoZ1KloVCporhGm1D3jLpNzt+g0uMDOPEPjrFXRzvFMdP03KWg8tzj2HULIUj7yn+xS9BN5snbfswoA9if8zk1P+pGhRwLCzVqqtEntmxA4ni3g/tyo4Qxjk5IDQolMjCIXFfJy/V6JnNvfViop1Ki4vHbTJP+2t465ScOgXk2jWkmjUkGhTEGhRD71cW9yAZ03jNui4QBXJDtx9c/nt2GfrU5qjg/007h0+o2fUPTjP+sBgGfJuek5QkaeFBGLQXxRk5o54qsAmMwwXNWkZtCgptGgplHHq0HNT3j15H/H18ds5sHQoKZRf8K4aa8dt+MdyhTUCVF/x+pfo6QH1yWH3k0ImcdH/R29/sKnet5/dgDgRXJueomDQIshhTQpqR/6UlbAHYbSfJ7IV8btCDJWKuhJjT9fKoZFw+CxhbGv+otEjjv+xBPq/cPPNvDncwDYcmv8Oavv5gTSoJOQOk2qqEHDft58HhmGIO+L6VQr6UkDm/lSMepVNP6xMqkkyE+UwRt+ygTXP3Kqx31nBQAqpAvPTbnc11rtPFKjnU/qdZIYs1bcJkxGQTOx+tedJOhXIBVjk4JCsSylb0V00KX8yp88SdQ/lLjp8Y00oG6u21Srm0ca9Syx6MRas5Y5KExKQdNp/A1qGkV8teFE4y+TU6hR0AO3sBG/4At+HOW+rl1+3eL6+1YloDrNbapRzyX1GpY0q8WkQUn/tJEPIgkS5Ek5MjfF8smDfkUyMepUNH55QfTbhBBHh98k3vWPOJM+f7MOAJVZjNtVkcWQymyG1CnZt5vUwgQV5Dk5MjSlJzH+Ai7ijzdXJGwIDRDl8Cm/yQp+gombH98AQDbjMdXLJWENarq0UcWljAQJcqfMGgbNagalMuqkEf9yuRhfrklpWRgRZCCEzOWNP8XF5Y84l3JfAQCnAoBCQho0dFKTimkRJqwgd6qZV7n85Om+EhmFEpm4T5YQco3Lyi/mj/m6reDHpwFQvob1mOpUqaRBx5BGDZPRoKF3CBNXkLvUqGZQIacnrfF3BP2qFdS+S1PC7nZp7e0o9Q1zMf5A4qHHJwAwGBLgMQ2FHtfWBTFX1Zjm2ITJK+hcV/4mNYMKOXXSg0hlcgoNanr0NjbiV/zKn+LS29813x9MPPj4RiUgIdOiA/PiyObL593XoKKEiSzorPf8TRpu5c8/hfE3qmncPzfqj3xbb7FLc0/Hqh91upt9BQC4WfvnJ5Da6+aSWi39QKNKmMyCznbPf/Jof7GMq/R7fEH0O4SQdL6tdxKviAn5fj/i4UcAwEQAXDuX1OhTyWY5/Xij6rg7J0jQVNz+0tP0L6hTMXjuwri/B4tEK/hiH4fxux7yiZgO4xcAcBIA1OolpC6XIjVy+oUGFS1AQNBpjb9BxaBURp905Xfk+l9cEvdRmL/fcr7Md2K6L9KTEX8BAGcCABlFquQMqZYxL9QpKWcxhyBBE42/ju/fmJ97crd/s4rGi0viPg7zFy1zKfFNnpDrj/RkxF8AwBkCoFrGkFoFS8oVKU/WKI4XdQgTX5Bjv79ZefLafpdoP361MOa9ED/RMj7g5zD+qOlK9wkAOFsAKBlSoWRISS79SJVMPC7HK+j8lKOrVJWCdrYRn9h+zNFktF7N4PGF0e8G+4lWuLj9yfxtPhHn2tVXAMA0AKBMyZJGWTKp1tI/2WyQjDQLEDhv1cx/LedLe/NO0n+Qu0GJHv3p3OjXCCHLJhT6RLsYfpSnc/0CANwAgHppMrFcvoD844K4q4ul4gOOVUAwivPI+DUM6lUMSuSU8w6ByVb+YjmFKgV98GY6/Fd8np/hD/akuJT4Rk5HoY8AADcBoEGWQhrWziUvhAaS/2QlZeflUp31quMrgqDZ7/ZXK2kUyk5u/I6DPUW54t6Lk8N+xOf4k08R8AsiM/wIADgDADSum0v+EBNCvshKJp9mpsz7JjelvFZJC3GBWW74DarjxT0nc/kLZWJUK2h8lZ1cp0gIuZpf9ZNcABA54XDPjBu/AICzBMCXWcnkizVi8u7q+OiPViX+rV51vPOuAILZY/hNagabVQyKT7ffl3E3Cv0lPeHbJZFBBpfqPtfyXtc8fyDxkkcAwFkC4Ms1YvKPrATy87nR5PkLYx+vVdEDjp7zQmzA9/f6jWoGmxRc776TGX6eVIwKBYVaFW375QXRb4UFiLJdru6aeHmn1xm/AIBzBMAHWQnksXnRREQIuTstam2DiuqrUXJ36jVrBG/AJ9N7aga1StrZuiv/FMa/WUWjSCr+/rbUiMf5YJ+jjRflcndfxExU+AkAmCYAPDE/hgSLuANbN7KRC77Npb9sUNHYpBC8AV9b9RtU3BHefKkYG09h+AUyMcwaBu9nJJVmxgZf4nJdd/KESP+0HuwRADBDAIj2P/67XRQV7PfChbG/rFPSR8vlFGqVtGBgPrDXr1Jw5bwbc8WnXPnL5BRqlNSxJxbGvh4f5L+Cb9o5MdjnWt3nkVZeAgC8CABR/uPhHuQnIg/Ni1V9tyalqlzO3T5bpxKChN5m+I28u19ymlU/XypGsYxCpYLGJ6uTGtalhN5NCFnA7/GTXC7umBjsC/Zm4xcA4CEAOJ60YP+kPy6Nf6ZMTh2sUtIoV9CoUx2fhA2Cpl0Ow9+s4rr0Ogw/7yTKl4lRraRRIBUf+c3iuL+mhPhpXKL8Yj7gFz3JWf5A4gOPAAAPAoAQQkL8ROTHc6Jz/p2ZVGrRMCiVc7f5bnZ4BBrBKKfF8DXHDb+Cv5Bz4ymMf6OUu1G4WcPgw1VJdZeIw35ACFnkcluPmE/xRU6o7AvzxmCfAIAZAoDjSQ0NCPnjsrjHq5Ti7k1K7p77CgWXMWhy3uwryBOGz+XzaVTwh3c2nGLFdwT5GjU0SuTU9ofnx7weF+i3wsXwU1wad7oG+iJ9weUXADBDAHA8qsSQJR+uTHqzRsUM58u4Y6MVChp1LquUYLjucfWbNAxqlDTKeFd/fe6p3f08qRglcgrVSnr4DxfFf5IZG3ytywGexAl7/bAJLn8A8cFHAMA0A4AQQpKD/cnalDDVxtyUL4tlXOfYQhmFUhmNGsXxrEGDStCZygHQGgWNEhmFvFze8HPFyDuJ8vmruSrlNP6ZmZSnSAy9K8hPNI/P5Se5KJo3dteVP8RbU3wCALwUAI6HCfGPvist/Oqv16RsKpaJR0p5GBRLKWyS06hXMWh0kWDgkxi8y2ezWcmgQkahSEohP1eMDTmnNvwCqRgVcgolMvHYl1kpLdfTEY8kBPuv4KP7rum9WJcIv8+v+gIAvAQA/OMXE+KX+OCCqJs/X51SVa2gRyvlNN9eikKZnEaNgkG9kpvoTWoBBq6fQ72SQY2Cb8bJr/Qbp7DiVytoVMqpkY9XJbfcPSfy6YgAv1y+jDfGJacff5KinhBf2+sLAPBeAIj4lSSIDQmOe3RBzH0frEosbVYzozV80GpjrhhFUgoV3PXRqFcyaDrPYOBs065iUKdkUK2g+Ys3qNMavOuKv1lJo0nF4N0ViY33pUX9KsLPL4MQkubi5jui+1GT1PGH+FKEXwCAbwDA8QQQ7iIIkhIqCro7NeqW9zKS/tusYgeqFTQKpWJsyBVjYw63RaiQ06jm6wocNeyNs83gVcfHtVnJoEpOo0LO9eDbmMN9HnlTUKFUjM1KBk1qxvbOioTyH6ZGPh0ZIFrCB/YcAT7XnL7rsd0oX8rrCwDwXQA4nkAHCOKDA/yNSWGGN5bFv1ouo/qqFQwKeY9gPb+/LZRSKJVTqJRTqFVyxuNYKRt9dZVXc513apScwZfKKBRKKWzMOT7uqRp+rZJGqYza8eLi+H8aksLujw70m88bdJJLZN/V8CdG94Nmi7svAMA3AODYFgTxLieJCRT5LYkMWnLHnIg7v85OyS+RUiiVUVw3Wj7YtSFXjAJ+q1Ai4zyEGiWNOuX4QOJMBxVP9i51Ss6jqZDRKJHR4wJ5G3Km7uIXy7jxl8lofLcmpfYmJvxXiyODLgn2EzG8ccfzBp/Eu/oTI/sRLobvR2b5IwDAOwEwKQgIIaLkYH/mSnG49q30hD9+ujq5rVAqHqyQU1yum98LOwwm38UoymTHtw2bVVyGoX6Kxnkucv33HT9zs3MP71jd+TbaLu8/FaPP51f5Ct4Dys8V2z7NTO54aUncO7lxobelhPjn8gYfxht7Am/88S57/ImGHzybV3wBAL4FgMlAEEQICQnyE8VGB/oxt6dGXPLSkrg3/7U6ua1SQR+tVdKo4mMGebmcZ7Bhkuh4fi7nVhfLKK48Wc4dYa5WcJ5DrVOcwTqlctGE/69WyR2uqVZw77CJ/3fL5DSKpdzPy+d/vuNdNkzQxtPIcTDH8X4lMuroR6uStr6yLO4/1zPhP4jw98sOEJEL+FSea0Q/wSWdNzG4d94ZvgAA3wLAZDGCcH4ViySEBKWFBYp/PDf6+scuiHnt7fSE4lI5taNBRTuvqS6UUuMMbzLjm8wQ83IpFLhK6iL+e/m8NuZSp/w3p2LgGyeBVYFUjHI5hSYNg3oVjQIptePVZfG1j10Q8/4tbORdcUF+6XwKz9GFx7G3nyyV52r4Yfzned4ZvgAA3wWAa9YgiJ/EMfzqFkgIIVEBfmFrU8Jkt7ARDzyyMPbdz7KSS8vl1O4G/hqrEhmFQv4Sy6kYobuN+nQrfKGUct6ow5/VP/h5VnL9LxbE/OdmJuLXmsSwtYRrwuEwdod77yjbjec/k4nFO1Euq/15bfgCAHwfAM5CIh4GwfxEj+EnunNyzw0PpNbEBcs0iaE3P7gg5oVPM5O/Xr9GbC2TUUdq+Hx6MR9pd1xplTfBVXeXXItxCnhjd5y1r1UyKJNRh9bniFs/XJW8/kdzo97QJob+UhYfcvW88ICLeNiF8oE712q9JBejd5zIm3hQJ5Q3en8iPAIAZhEAXOMEDhiE8JM/mpzYfz6ACQ0QzwsLXHphZKAqPTr42gfmR//yT8vi33s/I+m7z7OS679Zk7J1Q454qFDKZRWKZMdVfIZy/buFUi7gtzFHPPzNmpStn2cm1/09I+m7V5fFv39XatSzy6OC7r4wIvDKeeGBuSkhAXN5Qw7gv7oafQL/NdZlGzQxku8azfcXVnsBALMdAJPBwBE4DHdxgSNdgolBhGtgFB4RIEqICfRjE4L8FycF+69KDvZXrokJvvwWNuKun82PevjphbG//d3i+D+/ujT+g9eXJfzrT8sSPn9zeeLXb61I+PbdFYmF76xILHgzPeHbN9MTv/nTsoT/vL4s4d+vLo3/4HeL4994emHsb38yL+rRa+nwe1dGB12fHOxvSgr2VyQE+a+MCfS7MDxAxPIG7njXaH41jz+FwUecxOBDeW9IMHoBAOctACYDQiBvYK7ucZSLQUVO8j3H/44WERLnJyLJ/iJC+YsI4y8ikgARmRMgInMDRKL5nMi8ABGZ7y8iaf4ikuovIqyfiFCi4/3xY1x+lsPIXVf1RBejj3XxYCJOEr13BPJC+PH5CSYtAEAAwOlh4O8ChNBJ9ssOCES7BBhjXYx14sqccBolTvhv4/l/y2HkJ1vVIyfAyVGp5wjiBQirvAAAAQDuCyQG8cYVMkkgLeIkBjrRUCcaretKHT5BEZOAJ3KCO+/YrgQIK7wAAAEA0x9H8J8EDqG8wk5i0JO56hETVvFQFwW7GHkA/zP9hNVdAIAAgJmHgMhl2xDAu96TwcABhFPJsaKH8H/f1fD9J/w84REAIEiQIF+Q8CEIEiQAQJAgQQIABAkSJABAkCBBAgAECRIkAECQIEECAAQJEiQAQJAgQQIABAkSJABAkCBBAgAECRIkAECQIEECAAQJEiQAQJAgQQIABAkSJABAkCBBAgAECRLkRfr/AQDYDk4I8Zo+cAAAAABJRU5ErkJggg==;" vertex="1" parent="OYDcvir6wLGYqZr8SC8--22">
          <mxGeometry x="263.5" y="40" width="136" height="136" as="geometry" />
        </mxCell>
      </root>
    </mxGraphModel>
  </diagram>
</mxfile>
